<svg width="542" height="301" viewBox="0 0 542 301" fill="none" xmlns="http://www.w3.org/2000/svg">
<path d="M25.4423 265.323L25.4012 247.048L36.1511 247.022L36.1557 249.072L27.6058 249.093L27.6194 255.168L35.5194 255.148L35.524 257.198L27.674 257.217L27.6923 265.317L25.4423 265.323ZM45.558 265.524C44.4747 265.526 43.5242 265.312 42.7066 264.881C41.9056 264.449 41.2792 263.842 40.8275 263.06C40.3923 262.261 40.1736 261.337 40.1712 260.287L40.1628 256.537C40.1604 255.47 40.375 254.545 40.8065 253.76C41.2548 252.976 41.8784 252.366 42.6774 251.931C43.4931 251.495 44.4426 251.276 45.526 251.274C46.6093 251.271 47.5514 251.485 48.3524 251.917C49.17 252.348 49.7964 252.955 50.2315 253.737C50.6833 254.519 50.9104 255.444 50.9128 256.51L50.9182 258.935L42.3682 258.956L42.3712 260.281C42.3737 261.365 42.6505 262.197 43.2018 262.779C43.7531 263.345 44.5371 263.626 45.5537 263.624C46.4204 263.621 47.1201 263.47 47.6527 263.168C48.1853 262.85 48.5093 262.383 48.6246 261.766L50.8746 261.761C50.7272 262.911 50.1626 263.829 49.1808 264.515C48.2156 265.184 47.008 265.52 45.558 265.524ZM48.7148 257.441L48.7128 256.516C48.7103 255.433 48.4334 254.6 47.8821 254.018C47.3475 253.436 46.5635 253.146 45.5302 253.149C44.5135 253.151 43.7308 253.445 43.1821 254.029C42.6335 254.614 42.3603 255.448 42.3628 256.531L42.3644 257.256L48.8894 257.24L48.7148 257.441ZM61.3482 265.485C60.2149 265.488 59.3059 265.19 58.6212 264.592C57.9365 263.977 57.5929 263.144 57.5906 262.094L58.0417 262.618L57.5918 262.619L57.5977 265.244L55.3477 265.25L55.3066 247L57.5566 246.994L57.5656 250.994L57.5226 254.119L58.0226 254.118L57.5738 254.644C57.5715 253.611 57.9113 252.785 58.5932 252.167C59.2918 251.548 60.1995 251.238 61.3161 251.235C62.6995 251.231 63.8088 251.687 64.6442 252.602C65.4796 253.516 65.8991 254.765 65.9027 256.349L65.9117 260.374C65.9152 261.94 65.5014 263.183 64.6701 264.102C63.8388 265.02 62.7315 265.481 61.3482 265.485ZM60.5938 263.537C61.5438 263.534 62.2932 263.249 62.8419 262.681C63.3906 262.113 63.6638 261.296 63.6614 260.229L63.6529 256.479C63.6505 255.412 63.3737 254.596 62.8224 254.031C62.2712 253.466 61.5205 253.184 60.5705 253.187C59.6539 253.189 58.9212 253.482 58.3725 254.067C57.8405 254.652 57.5756 255.461 57.578 256.494L57.5864 260.244C57.5887 261.277 57.8572 262.085 58.3919 262.667C58.9432 263.249 59.6772 263.539 60.5938 263.537ZM70.8129 265.212L70.7819 251.462L72.9819 251.456L72.9878 254.081L73.5128 254.08L72.7915 255.707C72.7881 254.223 73.1023 253.106 73.7339 252.354C74.3822 251.586 75.3397 251.2 76.6063 251.197C78.0563 251.194 79.2074 251.649 80.0594 252.564C80.9281 253.462 81.3642 254.686 81.3677 256.236L81.3695 257.061L79.1195 257.066L79.1181 256.441C79.1157 255.358 78.8472 254.534 78.3126 253.968C77.7946 253.386 77.0523 253.096 76.0856 253.099C75.1356 253.101 74.3863 253.394 73.8376 253.979C73.3056 254.564 73.0408 255.389 73.0432 256.456L73.0628 265.206L70.8129 265.212ZM90.5036 265.413C88.9203 265.417 87.6525 264.954 86.7005 264.023C85.7483 263.075 85.2704 261.793 85.2668 260.176L85.2471 251.426L87.4971 251.421L87.5168 260.171C87.5191 261.204 87.7876 262.012 88.3222 262.594C88.8568 263.159 89.5825 263.441 90.4991 263.438C91.4325 263.436 92.1652 263.151 92.6972 262.583C93.2459 261.998 93.5191 261.189 93.5168 260.156L93.4971 251.406L95.7471 251.4L95.7668 260.15C95.7704 261.767 95.29 263.051 94.3254 264.004C93.3609 264.94 92.0869 265.409 90.5036 265.413ZM104.319 265.379C102.869 265.383 101.726 265.019 100.891 264.288C100.056 263.54 99.6374 262.532 99.6345 261.266C99.6316 259.982 100.046 258.973 100.878 258.238C101.709 257.502 102.834 257.133 104.25 257.129L108.5 257.119L108.497 255.744C108.495 254.894 108.235 254.245 107.718 253.796C107.217 253.331 106.499 253.099 105.566 253.101C104.749 253.103 104.067 253.28 103.517 253.631C102.968 253.966 102.652 254.425 102.57 255.009L100.32 255.014C100.468 253.83 101.024 252.887 101.989 252.185C102.954 251.483 104.162 251.13 105.612 251.126C107.195 251.122 108.446 251.527 109.364 252.342C110.283 253.156 110.744 254.264 110.747 255.664L110.768 265.114L108.568 265.119L108.562 262.494L108.187 262.495L108.561 262.119C108.564 263.119 108.174 263.912 107.392 264.497C106.626 265.082 105.602 265.376 104.319 265.379ZM104.865 263.603C105.931 263.6 106.806 263.332 107.488 262.797C108.17 262.262 108.51 261.577 108.508 260.744L108.504 258.794L104.304 258.804C103.554 258.806 102.963 259.016 102.53 259.434C102.098 259.851 101.883 260.419 101.884 261.135C101.886 261.902 102.146 262.51 102.663 262.958C103.198 263.39 103.931 263.605 104.865 263.603ZM115.783 265.101L115.752 251.351L117.952 251.346L117.958 253.971L118.483 253.97L117.762 255.596C117.759 254.113 118.073 252.996 118.704 252.244C119.353 251.476 120.31 251.09 121.577 251.087C123.027 251.083 124.178 251.539 125.03 252.453C125.899 253.351 126.335 254.575 126.338 256.125L126.34 256.95L124.09 256.956L124.089 256.331C124.086 255.247 123.818 254.423 123.283 253.858C122.765 253.276 122.023 252.986 121.056 252.988C120.106 252.991 119.357 253.284 118.808 253.869C118.276 254.453 118.011 255.279 118.014 256.346L118.033 265.096L115.783 265.101ZM132.459 269.56L134.472 264.205L129.343 251.318L131.843 251.312L135.062 259.804C135.179 260.087 135.288 260.428 135.389 260.828C135.49 261.211 135.574 261.536 135.641 261.802C135.707 261.536 135.79 261.21 135.889 260.827C135.988 260.427 136.087 260.085 136.187 259.801L139.168 251.294L141.593 251.288L134.859 269.554L132.459 269.56Z" fill="white"/>
<path d="M53.3849 215.714C50.9849 215.72 48.9007 215.325 47.1322 214.529C45.3637 213.7 43.9944 212.537 43.0244 211.039C42.0543 209.542 41.5671 207.793 41.5626 205.793C41.5576 203.593 42.17 201.708 43.3998 200.138C44.6296 198.569 46.46 197.231 48.8908 196.125L54.4851 193.561C55.6838 192.992 56.6154 192.223 57.2799 191.254C57.9777 190.286 58.3253 189.202 58.3226 188.002C58.3195 186.635 57.867 185.553 56.9653 184.755C56.0634 183.924 54.8458 183.51 53.3124 183.514C51.7791 183.518 50.5467 183.937 49.6153 184.773C48.7171 185.609 48.2696 186.71 48.2727 188.076C48.2753 189.243 48.6277 190.309 49.3299 191.274C50.0321 192.239 50.9671 192.986 52.135 193.517L57.6907 196.053C60.3266 197.213 62.2297 198.592 63.4 200.189C64.5702 201.753 65.1577 203.602 65.1625 205.735C65.1694 208.802 64.1082 211.238 61.9789 213.043C59.8829 214.815 57.0182 215.705 53.3849 215.714ZM53.3729 210.364C55.1062 210.36 56.4719 209.906 57.4698 209.004C58.5011 208.068 59.015 206.85 59.0116 205.35C59.009 204.183 58.6565 203.084 57.9542 202.053C57.2518 200.988 56.2833 200.173 55.0487 199.61L49.0925 196.874C46.8234 195.813 45.0873 194.551 43.884 193.087C42.7139 191.59 42.1266 189.808 42.1219 187.741C42.1177 185.875 42.564 184.224 43.4608 182.788C44.3576 181.353 45.6384 180.233 47.3032 179.429C49.0014 178.625 51.0005 178.22 53.3005 178.214C55.6005 178.208 57.5681 178.604 59.2032 179.4C60.8717 180.195 62.1575 181.309 63.0607 182.74C63.9973 184.171 64.4677 185.82 64.4719 187.687C64.4766 189.787 63.8973 191.571 62.7339 193.041C61.5706 194.51 59.8567 195.781 57.5925 196.854L51.5988 199.668C50.4 200.205 49.4518 200.99 48.7541 202.025C48.0564 203.06 47.7089 204.161 47.7115 205.328C47.7149 206.828 48.2176 208.043 49.2197 208.974C50.2552 209.905 51.6395 210.368 53.3729 210.364ZM75.3336 201.56L75.3205 195.76L91.3205 195.721L91.3335 201.521L75.3336 201.56ZM106.745 215.083L117.506 198.056L117.206 197.857C116.541 198.892 115.643 199.678 114.511 200.214C113.379 200.75 112.113 201.02 110.713 201.023C108.78 201.028 107.079 200.565 105.61 199.636C104.174 198.706 103.055 197.409 102.251 195.744C101.447 194.079 101.043 192.13 101.038 189.897C101.032 187.497 101.528 185.429 102.524 183.693C103.553 181.924 104.984 180.554 106.815 179.583C108.646 178.578 110.778 178.073 113.211 178.067C115.711 178.061 117.879 178.572 119.715 179.601C121.55 180.596 122.97 182.01 123.974 183.841C125.012 185.671 125.533 187.82 125.539 190.287C125.543 191.987 125.263 193.804 124.701 195.739C124.139 197.64 123.326 199.425 122.263 201.095L113.695 215.066L106.745 215.083ZM113.302 196.267C115.136 196.262 116.618 195.675 117.748 194.506C118.879 193.303 119.442 191.718 119.438 189.752C119.433 187.852 118.863 186.32 117.727 185.156C116.591 183.959 115.107 183.362 113.273 183.367C111.44 183.371 109.958 183.975 108.827 185.178C107.697 186.347 107.133 187.882 107.138 189.782C107.142 191.749 107.712 193.33 108.848 194.528C109.984 195.692 111.469 196.271 113.302 196.267Z" fill="white"/>
<rect x="0.501124" y="0.498771" width="159.64" height="159.64" transform="matrix(0.999997 -0.00245513 0.00225055 0.999997 1.99888 139.396)" stroke="#44BE4F"/>
<path d="M236.12 163.3C234.68 163.3 233.44 163.06 232.4 162.58C231.38 162.1 230.59 161.41 230.03 160.51C229.47 159.61 229.18 158.54 229.16 157.3H231.86C231.86 158.4 232.23 159.27 232.97 159.91C233.73 160.55 234.78 160.87 236.12 160.87C237.38 160.87 238.36 160.56 239.06 159.94C239.78 159.32 240.14 158.46 240.14 157.36C240.14 156.48 239.9 155.71 239.42 155.05C238.96 154.39 238.29 153.93 237.41 153.67L234.44 152.74C232.94 152.28 231.78 151.51 230.96 150.43C230.16 149.35 229.76 148.08 229.76 146.62C229.76 145.44 230.02 144.42 230.54 143.56C231.08 142.68 231.83 142 232.79 141.52C233.75 141.02 234.88 140.77 236.18 140.77C238.1 140.77 239.64 141.31 240.8 142.39C241.96 143.45 242.55 144.87 242.57 146.65H239.87C239.87 145.57 239.54 144.73 238.88 144.13C238.24 143.51 237.33 143.2 236.15 143.2C234.99 143.2 234.08 143.48 233.42 144.04C232.78 144.6 232.46 145.38 232.46 146.38C232.46 147.28 232.7 148.06 233.18 148.72C233.66 149.38 234.35 149.85 235.25 150.13L238.25 151.09C239.71 151.55 240.84 152.33 241.64 153.43C242.44 154.53 242.84 155.82 242.84 157.3C242.84 158.5 242.56 159.55 242 160.45C241.44 161.35 240.65 162.05 239.63 162.55C238.63 163.05 237.46 163.3 236.12 163.3ZM247.538 163V160.54H253.388V148.96H248.288V146.5H256.088V160.54H261.638V163H247.538ZM254.438 143.53C253.778 143.53 253.258 143.36 252.878 143.02C252.498 142.68 252.308 142.22 252.308 141.64C252.308 141.04 252.498 140.57 252.878 140.23C253.258 139.87 253.778 139.69 254.438 139.69C255.098 139.69 255.618 139.87 255.998 140.23C256.378 140.57 256.568 141.04 256.568 141.64C256.568 142.22 256.378 142.68 255.998 143.02C255.618 143.36 255.098 143.53 254.438 143.53ZM266.307 163V146.5H268.947V149.65H269.577L268.707 151.6C268.707 149.82 269.087 148.48 269.847 147.58C270.627 146.66 271.777 146.2 273.297 146.2C275.037 146.2 276.417 146.75 277.437 147.85C278.477 148.93 278.997 150.4 278.997 152.26V153.25H276.297V152.5C276.297 151.2 275.977 150.21 275.337 149.53C274.717 148.83 273.827 148.48 272.667 148.48C271.527 148.48 270.627 148.83 269.967 149.53C269.327 150.23 269.007 151.22 269.007 152.5V163H266.307ZM302.223 163L299.703 141.1H302.283L303.933 157.3C303.973 157.74 304.013 158.2 304.053 158.68C304.093 159.14 304.123 159.58 304.143 160C304.183 160.42 304.203 160.77 304.203 161.05C304.243 160.77 304.273 160.42 304.293 160C304.333 159.58 304.373 159.14 304.413 158.68C304.473 158.2 304.533 157.74 304.593 157.3L306.633 141.1H309.423L311.283 157.3C311.343 157.74 311.393 158.2 311.433 158.68C311.493 159.14 311.543 159.58 311.583 160C311.643 160.42 311.683 160.77 311.703 161.05C311.723 160.77 311.743 160.42 311.763 160C311.803 159.58 311.843 159.14 311.883 158.68C311.943 158.2 311.993 157.74 312.033 157.3L313.743 141.1H316.203L313.623 163H310.233L308.373 146.5C308.333 146.04 308.283 145.59 308.223 145.15C308.183 144.71 308.143 144.3 308.103 143.92C308.063 143.54 308.033 143.23 308.013 142.99C307.993 143.23 307.953 143.54 307.893 143.92C307.853 144.3 307.813 144.71 307.773 145.15C307.733 145.59 307.683 146.04 307.623 146.5L305.613 163H302.223ZM319.491 163V160.54H325.341V148.96H320.241V146.5H328.041V160.54H333.591V163H319.491ZM326.391 143.53C325.731 143.53 325.211 143.36 324.831 143.02C324.451 142.68 324.261 142.22 324.261 141.64C324.261 141.04 324.451 140.57 324.831 140.23C325.211 139.87 325.731 139.69 326.391 139.69C327.051 139.69 327.571 139.87 327.951 140.23C328.331 140.57 328.521 141.04 328.521 141.64C328.521 142.22 328.331 142.68 327.951 143.02C327.571 143.36 327.051 143.53 326.391 143.53ZM346.18 163C345.22 163 344.38 162.81 343.66 162.43C342.94 162.05 342.38 161.51 341.98 160.81C341.58 160.11 341.38 159.29 341.38 158.35V143.56H335.83V141.1H344.08V158.35C344.08 159.03 344.27 159.57 344.65 159.97C345.03 160.35 345.54 160.54 346.18 160.54H351.43V163H346.18ZM364.168 163C363.208 163 362.368 162.81 361.648 162.43C360.928 162.05 360.368 161.51 359.968 160.81C359.568 160.11 359.368 159.29 359.368 158.35V143.56H353.818V141.1H362.068V158.35C362.068 159.03 362.258 159.57 362.638 159.97C363.018 160.35 363.528 160.54 364.168 160.54H369.418V163H364.168ZM373.456 163V160.54H379.306V148.96H374.206V146.5H382.006V160.54H387.556V163H373.456ZM380.356 143.53C379.696 143.53 379.176 143.36 378.796 143.02C378.416 142.68 378.226 142.22 378.226 141.64C378.226 141.04 378.416 140.57 378.796 140.23C379.176 139.87 379.696 139.69 380.356 139.69C381.016 139.69 381.536 139.87 381.916 140.23C382.296 140.57 382.486 141.04 382.486 141.64C382.486 142.22 382.296 142.68 381.916 143.02C381.536 143.36 381.016 143.53 380.356 143.53ZM396.455 163.3C394.715 163.3 393.345 162.86 392.345 161.98C391.345 161.08 390.845 159.87 390.845 158.35C390.845 156.81 391.345 155.6 392.345 154.72C393.345 153.84 394.695 153.4 396.395 153.4H401.495V151.75C401.495 150.73 401.185 149.95 400.565 149.41C399.965 148.85 399.105 148.57 397.985 148.57C397.005 148.57 396.185 148.78 395.525 149.2C394.865 149.6 394.485 150.15 394.385 150.85H391.685C391.865 149.43 392.535 148.3 393.695 147.46C394.855 146.62 396.305 146.2 398.045 146.2C399.945 146.2 401.445 146.69 402.545 147.67C403.645 148.65 404.195 149.98 404.195 151.66V163H401.555V159.85H401.105L401.555 159.4C401.555 160.6 401.085 161.55 400.145 162.25C399.225 162.95 397.995 163.3 396.455 163.3ZM397.115 161.17C398.395 161.17 399.445 160.85 400.265 160.21C401.085 159.57 401.495 158.75 401.495 157.75V155.41H396.455C395.555 155.41 394.845 155.66 394.325 156.16C393.805 156.66 393.545 157.34 393.545 158.2C393.545 159.12 393.855 159.85 394.475 160.39C395.115 160.91 395.995 161.17 397.115 161.17ZM408.863 163V146.5H411.233V148.48H411.773L411.353 149.2C411.353 148.28 411.593 147.55 412.073 147.01C412.573 146.47 413.243 146.2 414.083 146.2C415.003 146.2 415.713 146.54 416.213 147.22C416.713 147.9 416.963 148.86 416.963 150.1L416.153 148.48H417.413L416.843 149.2C416.843 148.28 417.093 147.55 417.593 147.01C418.113 146.47 418.793 146.2 419.633 146.2C420.673 146.2 421.473 146.59 422.033 147.37C422.613 148.15 422.903 149.18 422.903 150.46V163H420.413V150.43C420.413 149.75 420.263 149.22 419.963 148.84C419.683 148.46 419.263 148.27 418.703 148.27C418.163 148.27 417.733 148.46 417.413 148.84C417.113 149.2 416.963 149.72 416.963 150.4V163H414.803V150.43C414.803 149.73 414.643 149.2 414.323 148.84C414.023 148.46 413.593 148.27 413.033 148.27C412.473 148.27 412.053 148.46 411.773 148.84C411.493 149.2 411.353 149.72 411.353 150.4V163H408.863ZM445.649 163V141.1H448.349V150.46H455.369V141.1H458.069V163H455.369V152.92H448.349V163H445.649ZM469.848 163.3C468.548 163.3 467.408 163.04 466.428 162.52C465.468 162 464.718 161.27 464.178 160.33C463.658 159.37 463.398 158.26 463.398 157V152.5C463.398 151.22 463.658 150.11 464.178 149.17C464.718 148.23 465.468 147.5 466.428 146.98C467.408 146.46 468.548 146.2 469.848 146.2C471.148 146.2 472.278 146.46 473.238 146.98C474.218 147.5 474.968 148.23 475.488 149.17C476.028 150.11 476.298 151.22 476.298 152.5V155.41H466.038V157C466.038 158.3 466.368 159.3 467.028 160C467.688 160.68 468.628 161.02 469.848 161.02C470.888 161.02 471.728 160.84 472.368 160.48C473.008 160.1 473.398 159.54 473.538 158.8H476.238C476.058 160.18 475.378 161.28 474.198 162.1C473.038 162.9 471.588 163.3 469.848 163.3ZM473.658 153.61V152.5C473.658 151.2 473.328 150.2 472.668 149.5C472.028 148.8 471.088 148.45 469.848 148.45C468.628 148.45 467.688 148.8 467.028 149.5C466.368 150.2 466.038 151.2 466.038 152.5V153.37H473.868L473.658 153.61ZM481.596 163V146.5H484.296V149.65H484.866L484.296 150.28C484.296 148.98 484.686 147.98 485.466 147.28C486.246 146.56 487.326 146.2 488.706 146.2C490.366 146.2 491.686 146.71 492.666 147.73C493.646 148.75 494.136 150.14 494.136 151.9V163H491.436V152.2C491.436 151.02 491.116 150.12 490.476 149.5C489.856 148.86 489.006 148.54 487.926 148.54C486.806 148.54 485.916 148.88 485.256 149.56C484.616 150.24 484.296 151.22 484.296 152.5V163H481.596ZM500.154 163V146.5H502.794V149.65H503.424L502.554 151.6C502.554 149.82 502.934 148.48 503.694 147.58C504.474 146.66 505.624 146.2 507.144 146.2C508.884 146.2 510.264 146.75 511.284 147.85C512.324 148.93 512.844 150.4 512.844 152.26V153.25H510.144V152.5C510.144 151.2 509.824 150.21 509.184 149.53C508.564 148.83 507.674 148.48 506.514 148.48C505.374 148.48 504.474 148.83 503.814 149.53C503.174 150.23 502.854 151.22 502.854 152.5V163H500.154ZM520.153 168.4L522.583 161.98L516.463 146.5H519.463L523.303 156.7C523.443 157.04 523.573 157.45 523.693 157.93C523.813 158.39 523.913 158.78 523.993 159.1C524.073 158.78 524.173 158.39 524.293 157.93C524.413 157.45 524.533 157.04 524.653 156.7L528.253 146.5H531.163L523.033 168.4H520.153ZM229.79 203V181.1H236C238 181.1 239.56 181.6 240.68 182.6C241.82 183.6 242.39 184.99 242.39 186.77C242.39 187.77 242.18 188.64 241.76 189.38C241.34 190.12 240.74 190.69 239.96 191.09C239.2 191.49 238.28 191.68 237.2 191.66V191.21C238.36 191.19 239.36 191.41 240.2 191.87C241.06 192.33 241.72 192.99 242.18 193.85C242.66 194.71 242.9 195.73 242.9 196.91C242.9 198.15 242.64 199.23 242.12 200.15C241.6 201.07 240.86 201.78 239.9 202.28C238.94 202.76 237.79 203 236.45 203H229.79ZM232.43 200.57H236.15C237.41 200.57 238.4 200.24 239.12 199.58C239.86 198.9 240.23 197.98 240.23 196.82C240.23 195.62 239.86 194.65 239.12 193.91C238.4 193.15 237.41 192.77 236.15 192.77H232.43V200.57ZM232.43 190.43H235.97C237.13 190.43 238.04 190.12 238.7 189.5C239.38 188.88 239.72 188.04 239.72 186.98C239.72 185.92 239.39 185.08 238.73 184.46C238.07 183.84 237.16 183.53 236 183.53H232.43V190.43ZM248.318 203V186.5H250.958V189.65H251.588L250.718 191.6C250.718 189.82 251.098 188.48 251.858 187.58C252.638 186.66 253.788 186.2 255.308 186.2C257.048 186.2 258.428 186.75 259.448 187.85C260.488 188.93 261.008 190.4 261.008 192.26V193.25H258.308V192.5C258.308 191.2 257.988 190.21 257.348 189.53C256.728 188.83 255.838 188.48 254.678 188.48C253.538 188.48 252.638 188.83 251.978 189.53C251.338 190.23 251.018 191.22 251.018 192.5V203H248.318ZM270.537 203.3C268.797 203.3 267.427 202.86 266.427 201.98C265.427 201.08 264.927 199.87 264.927 198.35C264.927 196.81 265.427 195.6 266.427 194.72C267.427 193.84 268.777 193.4 270.477 193.4H275.577V191.75C275.577 190.73 275.267 189.95 274.647 189.41C274.047 188.85 273.187 188.57 272.067 188.57C271.087 188.57 270.267 188.78 269.607 189.2C268.947 189.6 268.567 190.15 268.467 190.85H265.767C265.947 189.43 266.617 188.3 267.777 187.46C268.937 186.62 270.387 186.2 272.127 186.2C274.027 186.2 275.527 186.69 276.627 187.67C277.727 188.65 278.277 189.98 278.277 191.66V203H275.637V199.85H275.187L275.637 199.4C275.637 200.6 275.167 201.55 274.227 202.25C273.307 202.95 272.077 203.3 270.537 203.3ZM271.197 201.17C272.477 201.17 273.527 200.85 274.347 200.21C275.167 199.57 275.577 198.75 275.577 197.75V195.41H270.537C269.637 195.41 268.927 195.66 268.407 196.16C267.887 196.66 267.627 197.34 267.627 198.2C267.627 199.12 267.937 199.85 268.557 200.39C269.197 200.91 270.077 201.17 271.197 201.17ZM285.795 208.4V205.94H291.045C291.885 205.94 292.495 205.75 292.875 205.37C293.275 204.99 293.475 204.4 293.475 203.6V201.5L293.535 198.5H292.995L293.505 198.05C293.505 199.25 293.105 200.2 292.305 200.9C291.505 201.6 290.435 201.95 289.095 201.95C287.395 201.95 286.055 201.4 285.075 200.3C284.095 199.18 283.605 197.68 283.605 195.8V192.32C283.605 190.44 284.095 188.95 285.075 187.85C286.055 186.75 287.395 186.2 289.095 186.2C290.435 186.2 291.505 186.55 292.305 187.25C293.105 187.95 293.505 188.9 293.505 190.1L292.995 189.65H293.505V186.5H296.175V203.6C296.175 205.08 295.715 206.25 294.795 207.11C293.895 207.97 292.635 208.4 291.015 208.4H285.795ZM289.905 199.61C291.025 199.61 291.905 199.26 292.545 198.56C293.185 197.86 293.505 196.89 293.505 195.65V192.5C293.505 191.26 293.185 190.29 292.545 189.59C291.905 188.89 291.025 188.54 289.905 188.54C288.765 188.54 287.875 188.88 287.235 189.56C286.615 190.24 286.305 191.22 286.305 192.5V195.65C286.305 196.93 286.615 197.91 287.235 198.59C287.875 199.27 288.765 199.61 289.905 199.61ZM303.783 208.4V205.94H309.033C309.873 205.94 310.483 205.75 310.863 205.37C311.263 204.99 311.463 204.4 311.463 203.6V201.5L311.523 198.5H310.983L311.493 198.05C311.493 199.25 311.093 200.2 310.293 200.9C309.493 201.6 308.423 201.95 307.083 201.95C305.383 201.95 304.043 201.4 303.063 200.3C302.083 199.18 301.593 197.68 301.593 195.8V192.32C301.593 190.44 302.083 188.95 303.063 187.85C304.043 186.75 305.383 186.2 307.083 186.2C308.423 186.2 309.493 186.55 310.293 187.25C311.093 187.95 311.493 188.9 311.493 190.1L310.983 189.65H311.493V186.5H314.163V203.6C314.163 205.08 313.703 206.25 312.783 207.11C311.883 207.97 310.623 208.4 309.003 208.4H303.783ZM307.893 199.61C309.013 199.61 309.893 199.26 310.533 198.56C311.173 197.86 311.493 196.89 311.493 195.65V192.5C311.493 191.26 311.173 190.29 310.533 189.59C309.893 188.89 309.013 188.54 307.893 188.54C306.753 188.54 305.863 188.88 305.223 189.56C304.603 190.24 304.293 191.22 304.293 192.5V195.65C304.293 196.93 304.603 197.91 305.223 198.59C305.863 199.27 306.753 199.61 307.893 199.61ZM337.72 203V181.1H343.93C345.93 181.1 347.49 181.6 348.61 182.6C349.75 183.6 350.32 184.99 350.32 186.77C350.32 187.77 350.11 188.64 349.69 189.38C349.27 190.12 348.67 190.69 347.89 191.09C347.13 191.49 346.21 191.68 345.13 191.66V191.21C346.29 191.19 347.29 191.41 348.13 191.87C348.99 192.33 349.65 192.99 350.11 193.85C350.59 194.71 350.83 195.73 350.83 196.91C350.83 198.15 350.57 199.23 350.05 200.15C349.53 201.07 348.79 201.78 347.83 202.28C346.87 202.76 345.72 203 344.38 203H337.72ZM340.36 200.57H344.08C345.34 200.57 346.33 200.24 347.05 199.58C347.79 198.9 348.16 197.98 348.16 196.82C348.16 195.62 347.79 194.65 347.05 193.91C346.33 193.15 345.34 192.77 344.08 192.77H340.36V200.57ZM340.36 190.43H343.9C345.06 190.43 345.97 190.12 346.63 189.5C347.31 188.88 347.65 188.04 347.65 186.98C347.65 185.92 347.32 185.08 346.66 184.46C346 183.84 345.09 183.53 343.93 183.53H340.36V190.43ZM361.888 203.3C359.988 203.3 358.468 202.74 357.328 201.62C356.188 200.48 355.618 198.94 355.618 197V186.5H358.318V197C358.318 198.24 358.638 199.21 359.278 199.91C359.918 200.59 360.788 200.93 361.888 200.93C363.008 200.93 363.888 200.59 364.528 199.91C365.188 199.21 365.518 198.24 365.518 197V186.5H368.218V197C368.218 198.94 367.638 200.48 366.478 201.62C365.318 202.74 363.788 203.3 361.888 203.3ZM373.456 203V200.54H379.306V188.96H374.206V186.5H382.006V200.54H387.556V203H373.456ZM380.356 183.53C379.696 183.53 379.176 183.36 378.796 183.02C378.416 182.68 378.226 182.22 378.226 181.64C378.226 181.04 378.416 180.57 378.796 180.23C379.176 179.87 379.696 179.69 380.356 179.69C381.016 179.69 381.536 179.87 381.916 180.23C382.296 180.57 382.486 181.04 382.486 181.64C382.486 182.22 382.296 182.68 381.916 183.02C381.536 183.36 381.016 183.53 380.356 183.53ZM400.145 203C399.185 203 398.345 202.81 397.625 202.43C396.905 202.05 396.345 201.51 395.945 200.81C395.545 200.11 395.345 199.29 395.345 198.35V183.56H389.795V181.1H398.045V198.35C398.045 199.03 398.235 199.57 398.615 199.97C398.995 200.35 399.505 200.54 400.145 200.54H405.395V203H400.145ZM414.923 203.3C413.283 203.3 411.953 202.75 410.933 201.65C409.933 200.55 409.433 199.06 409.433 197.18V192.35C409.433 190.45 409.933 188.95 410.933 187.85C411.933 186.75 413.263 186.2 414.923 186.2C416.283 186.2 417.373 186.57 418.193 187.31C419.013 188.05 419.423 189.04 419.423 190.28L418.883 189.65H419.483L419.423 185.9V181.1H422.123V203H419.423V199.85H418.883L419.423 199.22C419.423 200.48 419.013 201.48 418.193 202.22C417.373 202.94 416.283 203.3 414.923 203.3ZM415.823 200.96C416.943 200.96 417.823 200.61 418.463 199.91C419.103 199.21 419.423 198.24 419.423 197V192.5C419.423 191.26 419.103 190.29 418.463 189.59C417.823 188.89 416.943 188.54 415.823 188.54C414.683 188.54 413.783 188.88 413.123 189.56C412.463 190.24 412.133 191.22 412.133 192.5V197C412.133 198.28 412.463 199.26 413.123 199.94C413.783 200.62 414.683 200.96 415.823 200.96ZM427.421 203V200.54H433.271V188.96H428.171V186.5H435.971V200.54H441.521V203H427.421ZM434.321 183.53C433.661 183.53 433.141 183.36 432.761 183.02C432.381 182.68 432.191 182.22 432.191 181.64C432.191 181.04 432.381 180.57 432.761 180.23C433.141 179.87 433.661 179.69 434.321 179.69C434.981 179.69 435.501 179.87 435.881 180.23C436.261 180.57 436.451 181.04 436.451 181.64C436.451 182.22 436.261 182.68 435.881 183.02C435.501 183.36 434.981 183.53 434.321 183.53ZM445.619 203V186.5H448.319V189.65H448.889L448.319 190.28C448.319 188.98 448.709 187.98 449.489 187.28C450.269 186.56 451.349 186.2 452.729 186.2C454.389 186.2 455.709 186.71 456.689 187.73C457.669 188.75 458.159 190.14 458.159 191.9V203H455.459V192.2C455.459 191.02 455.139 190.12 454.499 189.5C453.879 188.86 453.029 188.54 451.949 188.54C450.829 188.54 449.939 188.88 449.279 189.56C448.639 190.24 448.319 191.22 448.319 192.5V203H445.619ZM465.678 208.4V205.94H470.928C471.768 205.94 472.378 205.75 472.758 205.37C473.158 204.99 473.358 204.4 473.358 203.6V201.5L473.418 198.5H472.878L473.388 198.05C473.388 199.25 472.988 200.2 472.188 200.9C471.388 201.6 470.318 201.95 468.978 201.95C467.278 201.95 465.938 201.4 464.958 200.3C463.978 199.18 463.488 197.68 463.488 195.8V192.32C463.488 190.44 463.978 188.95 464.958 187.85C465.938 186.75 467.278 186.2 468.978 186.2C470.318 186.2 471.388 186.55 472.188 187.25C472.988 187.95 473.388 188.9 473.388 190.1L472.878 189.65H473.388V186.5H476.058V203.6C476.058 205.08 475.598 206.25 474.678 207.11C473.778 207.97 472.518 208.4 470.898 208.4H465.678ZM469.788 199.61C470.908 199.61 471.788 199.26 472.428 198.56C473.068 197.86 473.388 196.89 473.388 195.65V192.5C473.388 191.26 473.068 190.29 472.428 189.59C471.788 188.89 470.908 188.54 469.788 188.54C468.648 188.54 467.758 188.88 467.118 189.56C466.498 190.24 466.188 191.22 466.188 192.5V195.65C466.188 196.93 466.498 197.91 467.118 198.59C467.758 199.27 468.648 199.61 469.788 199.61ZM483.786 207.8L486.186 198.47H490.086L486.186 207.8H483.786ZM236 243.3C233.96 243.3 232.4 242.74 231.32 241.62C230.24 240.48 229.7 238.94 229.7 237V221.1H232.4V237C232.4 238.2 232.69 239.15 233.27 239.85C233.87 240.55 234.78 240.9 236 240.9C237.2 240.9 238.1 240.55 238.7 239.85C239.3 239.15 239.6 238.2 239.6 237V221.1H242.3V237C242.3 238.96 241.76 240.5 240.68 241.62C239.62 242.74 238.06 243.3 236 243.3ZM247.748 243V226.5H250.448V229.65H251.018L250.448 230.28C250.448 228.98 250.838 227.98 251.618 227.28C252.398 226.56 253.478 226.2 254.858 226.2C256.518 226.2 257.838 226.71 258.818 227.73C259.798 228.75 260.288 230.14 260.288 231.9V243H257.588V232.2C257.588 231.02 257.268 230.12 256.628 229.5C256.008 228.86 255.158 228.54 254.078 228.54C252.958 228.54 252.068 228.88 251.408 229.56C250.768 230.24 250.448 231.22 250.448 232.5V243H247.748ZM265.527 243V240.54H271.377V228.96H266.277V226.5H274.077V240.54H279.627V243H265.527ZM272.427 223.53C271.767 223.53 271.247 223.36 270.867 223.02C270.487 222.68 270.297 222.22 270.297 221.64C270.297 221.04 270.487 220.57 270.867 220.23C271.247 219.87 271.767 219.69 272.427 219.69C273.087 219.69 273.607 219.87 273.987 220.23C274.367 220.57 274.557 221.04 274.557 221.64C274.557 222.22 274.367 222.68 273.987 223.02C273.607 223.36 273.087 223.53 272.427 223.53ZM288.135 243L282.615 226.5H285.375L289.035 237.6C289.255 238.26 289.455 238.9 289.635 239.52C289.815 240.12 289.945 240.59 290.025 240.93C290.125 240.59 290.265 240.12 290.445 239.52C290.625 238.9 290.815 238.26 291.015 237.6L294.585 226.5H297.315L291.795 243H288.135ZM307.953 243.3C306.653 243.3 305.513 243.04 304.533 242.52C303.573 242 302.823 241.27 302.283 240.33C301.763 239.37 301.503 238.26 301.503 237V232.5C301.503 231.22 301.763 230.11 302.283 229.17C302.823 228.23 303.573 227.5 304.533 226.98C305.513 226.46 306.653 226.2 307.953 226.2C309.253 226.2 310.383 226.46 311.343 226.98C312.323 227.5 313.073 228.23 313.593 229.17C314.133 230.11 314.403 231.22 314.403 232.5V235.41H304.143V237C304.143 238.3 304.473 239.3 305.133 240C305.793 240.68 306.733 241.02 307.953 241.02C308.993 241.02 309.833 240.84 310.473 240.48C311.113 240.1 311.503 239.54 311.643 238.8H314.343C314.163 240.18 313.483 241.28 312.303 242.1C311.143 242.9 309.693 243.3 307.953 243.3ZM311.763 233.61V232.5C311.763 231.2 311.433 230.2 310.773 229.5C310.133 228.8 309.193 228.45 307.953 228.45C306.733 228.45 305.793 228.8 305.133 229.5C304.473 230.2 304.143 231.2 304.143 232.5V233.37H311.973L311.763 233.61ZM320.271 243V226.5H322.911V229.65H323.541L322.671 231.6C322.671 229.82 323.051 228.48 323.811 227.58C324.591 226.66 325.741 226.2 327.261 226.2C329.001 226.2 330.381 226.75 331.401 227.85C332.441 228.93 332.961 230.4 332.961 232.26V233.25H330.261V232.5C330.261 231.2 329.941 230.21 329.301 229.53C328.681 228.83 327.791 228.48 326.631 228.48C325.491 228.48 324.591 228.83 323.931 229.53C323.291 230.23 322.971 231.22 322.971 232.5V243H320.271ZM343.42 243.24C342.3 243.24 341.32 243.07 340.48 242.73C339.66 242.37 339 241.87 338.5 241.23C338.02 240.59 337.73 239.83 337.63 238.95H340.33C340.45 239.53 340.77 239.99 341.29 240.33C341.83 240.67 342.54 240.84 343.42 240.84H344.68C345.74 240.84 346.53 240.63 347.05 240.21C347.57 239.77 347.83 239.19 347.83 238.47C347.83 237.77 347.59 237.22 347.11 236.82C346.65 236.4 345.96 236.12 345.04 235.98L342.82 235.62C341.2 235.34 339.99 234.84 339.19 234.12C338.41 233.38 338.02 232.31 338.02 230.91C338.02 229.43 338.49 228.29 339.43 227.49C340.37 226.67 341.78 226.26 343.66 226.26H344.8C346.38 226.26 347.65 226.63 348.61 227.37C349.57 228.11 350.15 229.11 350.35 230.37H347.65C347.53 229.85 347.23 229.44 346.75 229.14C346.27 228.82 345.62 228.66 344.8 228.66H343.66C342.64 228.66 341.89 228.85 341.41 229.23C340.95 229.61 340.72 230.18 340.72 230.94C340.72 231.62 340.92 232.12 341.32 232.44C341.72 232.76 342.35 232.99 343.21 233.13L345.43 233.49C347.21 233.77 348.5 234.29 349.3 235.05C350.12 235.81 350.53 236.91 350.53 238.35C350.53 239.87 350.04 241.07 349.06 241.95C348.1 242.81 346.64 243.24 344.68 243.24H343.42ZM355.468 243V240.54H361.318V228.96H356.218V226.5H364.018V240.54H369.568V243H355.468ZM362.368 223.53C361.708 223.53 361.188 223.36 360.808 223.02C360.428 222.68 360.238 222.22 360.238 221.64C360.238 221.04 360.428 220.57 360.808 220.23C361.188 219.87 361.708 219.69 362.368 219.69C363.028 219.69 363.548 219.87 363.928 220.23C364.308 220.57 364.498 221.04 364.498 221.64C364.498 222.22 364.308 222.68 363.928 223.02C363.548 223.36 363.028 223.53 362.368 223.53ZM381.706 243C380.286 243 379.176 242.62 378.376 241.86C377.596 241.1 377.206 240.03 377.206 238.65V228.96H372.556V226.5H377.206V221.85H379.906V226.5H386.506V228.96H379.906V238.65C379.906 239.91 380.506 240.54 381.706 240.54H386.206V243H381.706ZM394.235 248.4L396.665 241.98L390.545 226.5H393.545L397.385 236.7C397.525 237.04 397.655 237.45 397.775 237.93C397.895 238.39 397.995 238.78 398.075 239.1C398.155 238.78 398.255 238.39 398.375 237.93C398.495 237.45 398.615 237.04 398.735 236.7L402.335 226.5H405.245L397.115 248.4H394.235ZM433.871 243.24C432.551 243.24 431.411 242.99 430.451 242.49C429.491 241.99 428.741 241.27 428.201 240.33C427.681 239.37 427.421 238.24 427.421 236.94V232.56C427.421 231.24 427.681 230.11 428.201 229.17C428.741 228.23 429.491 227.51 430.451 227.01C431.411 226.51 432.551 226.26 433.871 226.26C435.191 226.26 436.331 226.51 437.291 227.01C438.251 227.51 438.991 228.23 439.511 229.17C440.051 230.11 440.321 231.23 440.321 232.53V236.94C440.321 238.24 440.051 239.37 439.511 240.33C438.991 241.27 438.251 241.99 437.291 242.49C436.331 242.99 435.191 243.24 433.871 243.24ZM433.871 240.84C435.051 240.84 435.971 240.51 436.631 239.85C437.291 239.19 437.621 238.22 437.621 236.94V232.56C437.621 231.28 437.291 230.31 436.631 229.65C435.971 228.99 435.051 228.66 433.871 228.66C432.711 228.66 431.791 228.99 431.111 229.65C430.451 230.31 430.121 231.28 430.121 232.56V236.94C430.121 238.22 430.451 239.19 431.111 239.85C431.791 240.51 432.711 240.84 433.871 240.84ZM449.459 243V230.61H444.659V228.15H449.459V225.3C449.459 224 449.869 222.98 450.689 222.24C451.509 221.48 452.639 221.1 454.079 221.1H458.909V223.56H454.079C453.459 223.56 452.979 223.71 452.639 224.01C452.319 224.29 452.159 224.72 452.159 225.3V228.15H458.909V230.61H452.159V243H449.459ZM230.45 283V261.1H233.15V280.54H243.05V283H230.45ZM253.988 283.3C252.688 283.3 251.548 283.04 250.568 282.52C249.608 282 248.858 281.27 248.318 280.33C247.798 279.37 247.538 278.26 247.538 277V272.5C247.538 271.22 247.798 270.11 248.318 269.17C248.858 268.23 249.608 267.5 250.568 266.98C251.548 266.46 252.688 266.2 253.988 266.2C255.288 266.2 256.418 266.46 257.378 266.98C258.358 267.5 259.108 268.23 259.628 269.17C260.168 270.11 260.438 271.22 260.438 272.5V275.41H250.178V277C250.178 278.3 250.508 279.3 251.168 280C251.828 280.68 252.768 281.02 253.988 281.02C255.028 281.02 255.868 280.84 256.508 280.48C257.148 280.1 257.538 279.54 257.678 278.8H260.378C260.198 280.18 259.518 281.28 258.338 282.1C257.178 282.9 255.728 283.3 253.988 283.3ZM257.798 273.61V272.5C257.798 271.2 257.468 270.2 256.808 269.5C256.168 268.8 255.228 268.45 253.988 268.45C252.768 268.45 251.828 268.8 251.168 269.5C250.508 270.2 250.178 271.2 250.178 272.5V273.37H258.008L257.798 273.61ZM271.977 283.3C270.677 283.3 269.537 283.04 268.557 282.52C267.597 282 266.847 281.27 266.307 280.33C265.787 279.37 265.527 278.26 265.527 277V272.5C265.527 271.22 265.787 270.11 266.307 269.17C266.847 268.23 267.597 267.5 268.557 266.98C269.537 266.46 270.677 266.2 271.977 266.2C273.277 266.2 274.407 266.46 275.367 266.98C276.347 267.5 277.097 268.23 277.617 269.17C278.157 270.11 278.427 271.22 278.427 272.5V275.41H268.167V277C268.167 278.3 268.497 279.3 269.157 280C269.817 280.68 270.757 281.02 271.977 281.02C273.017 281.02 273.857 280.84 274.497 280.48C275.137 280.1 275.527 279.54 275.667 278.8H278.367C278.187 280.18 277.507 281.28 276.327 282.1C275.167 282.9 273.717 283.3 271.977 283.3ZM275.787 273.61V272.5C275.787 271.2 275.457 270.2 274.797 269.5C274.157 268.8 273.217 268.45 271.977 268.45C270.757 268.45 269.817 268.8 269.157 269.5C268.497 270.2 268.167 271.2 268.167 272.5V273.37H275.997L275.787 273.61ZM289.005 283.3C287.365 283.3 286.035 282.75 285.015 281.65C284.015 280.55 283.515 279.06 283.515 277.18V272.35C283.515 270.45 284.015 268.95 285.015 267.85C286.015 266.75 287.345 266.2 289.005 266.2C290.365 266.2 291.455 266.57 292.275 267.31C293.095 268.05 293.505 269.04 293.505 270.28L292.965 269.65H293.565L293.505 265.9V261.1H296.205V283H293.505V279.85H292.965L293.505 279.22C293.505 280.48 293.095 281.48 292.275 282.22C291.455 282.94 290.365 283.3 289.005 283.3ZM289.905 280.96C291.025 280.96 291.905 280.61 292.545 279.91C293.185 279.21 293.505 278.24 293.505 277V272.5C293.505 271.26 293.185 270.29 292.545 269.59C291.905 268.89 291.025 268.54 289.905 268.54C288.765 268.54 287.865 268.88 287.205 269.56C286.545 270.24 286.215 271.22 286.215 272.5V277C286.215 278.28 286.545 279.26 287.205 279.94C287.865 280.62 288.765 280.96 289.905 280.96ZM307.443 283.24C306.323 283.24 305.343 283.07 304.503 282.73C303.683 282.37 303.023 281.87 302.523 281.23C302.043 280.59 301.753 279.83 301.653 278.95H304.353C304.473 279.53 304.793 279.99 305.313 280.33C305.853 280.67 306.563 280.84 307.443 280.84H308.703C309.763 280.84 310.553 280.63 311.073 280.21C311.593 279.77 311.853 279.19 311.853 278.47C311.853 277.77 311.613 277.22 311.133 276.82C310.673 276.4 309.983 276.12 309.063 275.98L306.843 275.62C305.223 275.34 304.013 274.84 303.213 274.12C302.433 273.38 302.043 272.31 302.043 270.91C302.043 269.43 302.513 268.29 303.453 267.49C304.393 266.67 305.803 266.26 307.683 266.26H308.823C310.403 266.26 311.673 266.63 312.633 267.37C313.593 268.11 314.173 269.11 314.373 270.37H311.673C311.553 269.85 311.253 269.44 310.773 269.14C310.293 268.82 309.643 268.66 308.823 268.66H307.683C306.663 268.66 305.913 268.85 305.433 269.23C304.973 269.61 304.743 270.18 304.743 270.94C304.743 271.62 304.943 272.12 305.343 272.44C305.743 272.76 306.373 272.99 307.233 273.13L309.453 273.49C311.233 273.77 312.523 274.29 313.323 275.05C314.143 275.81 314.553 276.91 314.553 278.35C314.553 279.87 314.063 281.07 313.083 281.95C312.123 282.81 310.663 283.24 308.703 283.24H307.443Z" fill="white"/>
<path d="M3.27 31L0.75 9.1H3.33L4.98 25.3C5.02 25.74 5.06 26.2 5.1 26.68C5.14 27.14 5.17 27.58 5.19 28C5.23 28.42 5.25 28.77 5.25 29.05C5.29 28.77 5.32 28.42 5.34 28C5.38 27.58 5.42 27.14 5.46 26.68C5.52 26.2 5.58 25.74 5.64 25.3L7.68 9.1H10.47L12.33 25.3C12.39 25.74 12.44 26.2 12.48 26.68C12.54 27.14 12.59 27.58 12.63 28C12.69 28.42 12.73 28.77 12.75 29.05C12.77 28.77 12.79 28.42 12.81 28C12.85 27.58 12.89 27.14 12.93 26.68C12.99 26.2 13.04 25.74 13.08 25.3L14.79 9.1H17.25L14.67 31H11.28L9.42 14.5C9.38 14.04 9.33 13.59 9.27 13.15C9.23 12.71 9.19 12.3 9.15 11.92C9.11 11.54 9.08 11.23 9.06 10.99C9.04 11.23 9 11.54 8.94 11.92C8.9 12.3 8.86 12.71 8.82 13.15C8.78 13.59 8.73 14.04 8.67 14.5L6.66 31H3.27ZM26.9883 31.3C25.6883 31.3 24.5483 31.04 23.5683 30.52C22.6083 30 21.8583 29.27 21.3183 28.33C20.7983 27.37 20.5383 26.26 20.5383 25V20.5C20.5383 19.22 20.7983 18.11 21.3183 17.17C21.8583 16.23 22.6083 15.5 23.5683 14.98C24.5483 14.46 25.6883 14.2 26.9883 14.2C28.2883 14.2 29.4183 14.46 30.3783 14.98C31.3583 15.5 32.1083 16.23 32.6283 17.17C33.1683 18.11 33.4383 19.22 33.4383 20.5V23.41H23.1783V25C23.1783 26.3 23.5083 27.3 24.1683 28C24.8283 28.68 25.7683 29.02 26.9883 29.02C28.0283 29.02 28.8683 28.84 29.5083 28.48C30.1483 28.1 30.5383 27.54 30.6783 26.8H33.3783C33.1983 28.18 32.5183 29.28 31.3383 30.1C30.1783 30.9 28.7283 31.3 26.9883 31.3ZM30.7983 21.61V20.5C30.7983 19.2 30.4683 18.2 29.8083 17.5C29.1683 16.8 28.2283 16.45 26.9883 16.45C25.7683 16.45 24.8283 16.8 24.1683 17.5C23.5083 18.2 23.1783 19.2 23.1783 20.5V21.37H31.0083L30.7983 21.61ZM40.7766 17.05L43.1766 7.72H47.0766L43.1766 17.05H40.7766ZM57.2948 31V14.5H59.9348V17.65H60.5648L59.6948 19.6C59.6948 17.82 60.0748 16.48 60.8348 15.58C61.6148 14.66 62.7648 14.2 64.2848 14.2C66.0248 14.2 67.4048 14.75 68.4248 15.85C69.4648 16.93 69.9848 18.4 69.9848 20.26V21.25H67.2848V20.5C67.2848 19.2 66.9648 18.21 66.3248 17.53C65.7048 16.83 64.8148 16.48 63.6548 16.48C62.5148 16.48 61.6148 16.83 60.9548 17.53C60.3148 18.23 59.9948 19.22 59.9948 20.5V31H57.2948ZM80.9531 31.3C79.6531 31.3 78.5131 31.04 77.5331 30.52C76.5731 30 75.8231 29.27 75.2831 28.33C74.7631 27.37 74.5031 26.26 74.5031 25V20.5C74.5031 19.22 74.7631 18.11 75.2831 17.17C75.8231 16.23 76.5731 15.5 77.5331 14.98C78.5131 14.46 79.6531 14.2 80.9531 14.2C82.2531 14.2 83.3831 14.46 84.3431 14.98C85.3231 15.5 86.0731 16.23 86.5931 17.17C87.1331 18.11 87.4031 19.22 87.4031 20.5V23.41H77.1431V25C77.1431 26.3 77.4731 27.3 78.1331 28C78.7931 28.68 79.7331 29.02 80.9531 29.02C81.9931 29.02 82.8331 28.84 83.4731 28.48C84.1131 28.1 84.5031 27.54 84.6431 26.8H87.3431C87.1631 28.18 86.4831 29.28 85.3031 30.1C84.1431 30.9 82.6931 31.3 80.9531 31.3ZM84.7631 21.61V20.5C84.7631 19.2 84.4331 18.2 83.7731 17.5C83.1331 16.8 82.1931 16.45 80.9531 16.45C79.7331 16.45 78.7931 16.8 78.1331 17.5C77.4731 18.2 77.1431 19.2 77.1431 20.5V21.37H84.9731L84.7631 21.61ZM116.93 31.3C115.63 31.3 114.49 31.04 113.51 30.52C112.55 30 111.8 29.27 111.26 28.33C110.74 27.37 110.48 26.26 110.48 25V20.5C110.48 19.22 110.74 18.11 111.26 17.17C111.8 16.23 112.55 15.5 113.51 14.98C114.49 14.46 115.63 14.2 116.93 14.2C118.23 14.2 119.36 14.46 120.32 14.98C121.3 15.5 122.05 16.23 122.57 17.17C123.11 18.11 123.38 19.22 123.38 20.5V23.41H113.12V25C113.12 26.3 113.45 27.3 114.11 28C114.77 28.68 115.71 29.02 116.93 29.02C117.97 29.02 118.81 28.84 119.45 28.48C120.09 28.1 120.48 27.54 120.62 26.8H123.32C123.14 28.18 122.46 29.28 121.28 30.1C120.12 30.9 118.67 31.3 116.93 31.3ZM120.74 21.61V20.5C120.74 19.2 120.41 18.2 119.75 17.5C119.11 16.8 118.17 16.45 116.93 16.45C115.71 16.45 114.77 16.8 114.11 17.5C113.45 18.2 113.12 19.2 113.12 20.5V21.37H120.95L120.74 21.61ZM127.418 31L133.268 22.51L127.778 14.5H130.958L134.228 19.6C134.368 19.82 134.498 20.06 134.618 20.32C134.758 20.58 134.868 20.79 134.948 20.95C135.008 20.79 135.098 20.58 135.218 20.32C135.358 20.06 135.498 19.82 135.638 19.6L138.938 14.5H142.088L136.598 22.54L142.418 31H139.238L135.698 25.6C135.558 25.38 135.418 25.13 135.278 24.85C135.158 24.55 135.048 24.31 134.948 24.13C134.868 24.31 134.748 24.55 134.588 24.85C134.448 25.13 134.298 25.38 134.138 25.6L130.568 31H127.418ZM153.026 31.3C151.706 31.3 150.546 31.05 149.546 30.55C148.566 30.05 147.806 29.33 147.266 28.39C146.726 27.43 146.456 26.3 146.456 25V20.5C146.456 19.18 146.726 18.05 147.266 17.11C147.806 16.17 148.566 15.45 149.546 14.95C150.546 14.45 151.706 14.2 153.026 14.2C154.926 14.2 156.456 14.71 157.616 15.73C158.776 16.75 159.386 18.14 159.446 19.9H156.746C156.686 18.84 156.326 18.03 155.666 17.47C155.026 16.89 154.146 16.6 153.026 16.6C151.846 16.6 150.906 16.94 150.206 17.62C149.506 18.28 149.156 19.23 149.156 20.47V25C149.156 26.24 149.506 27.2 150.206 27.88C150.906 28.56 151.846 28.9 153.026 28.9C154.146 28.9 155.026 28.61 155.666 28.03C156.326 27.45 156.686 26.64 156.746 25.6H159.446C159.386 27.36 158.776 28.75 157.616 29.77C156.456 30.79 154.926 31.3 153.026 31.3ZM164.445 31V28.54H170.295V16.96H165.195V14.5H172.995V28.54H178.545V31H164.445ZM171.345 11.53C170.685 11.53 170.165 11.36 169.785 11.02C169.405 10.68 169.215 10.22 169.215 9.64C169.215 9.04 169.405 8.57 169.785 8.23C170.165 7.87 170.685 7.69 171.345 7.69C172.005 7.69 172.525 7.87 172.905 8.23C173.285 8.57 173.475 9.04 173.475 9.64C173.475 10.22 173.285 10.68 172.905 11.02C172.525 11.36 172.005 11.53 171.345 11.53ZM190.683 31C189.263 31 188.153 30.62 187.353 29.86C186.573 29.1 186.183 28.03 186.183 26.65V16.96H181.533V14.5H186.183V9.85H188.883V14.5H195.483V16.96H188.883V26.65C188.883 27.91 189.483 28.54 190.683 28.54H195.183V31H190.683ZM206.871 31.3C205.571 31.3 204.431 31.04 203.451 30.52C202.491 30 201.741 29.27 201.201 28.33C200.681 27.37 200.421 26.26 200.421 25V20.5C200.421 19.22 200.681 18.11 201.201 17.17C201.741 16.23 202.491 15.5 203.451 14.98C204.431 14.46 205.571 14.2 206.871 14.2C208.171 14.2 209.301 14.46 210.261 14.98C211.241 15.5 211.991 16.23 212.511 17.17C213.051 18.11 213.321 19.22 213.321 20.5V23.41H203.061V25C203.061 26.3 203.391 27.3 204.051 28C204.711 28.68 205.651 29.02 206.871 29.02C207.911 29.02 208.751 28.84 209.391 28.48C210.031 28.1 210.421 27.54 210.561 26.8H213.261C213.081 28.18 212.401 29.28 211.221 30.1C210.061 30.9 208.611 31.3 206.871 31.3ZM210.681 21.61V20.5C210.681 19.2 210.351 18.2 209.691 17.5C209.051 16.8 208.111 16.45 206.871 16.45C205.651 16.45 204.711 16.8 204.051 17.5C203.391 18.2 203.061 19.2 203.061 20.5V21.37H210.891L210.681 21.61ZM223.899 31.3C222.259 31.3 220.929 30.75 219.909 29.65C218.909 28.55 218.409 27.06 218.409 25.18V20.35C218.409 18.45 218.909 16.95 219.909 15.85C220.909 14.75 222.239 14.2 223.899 14.2C225.259 14.2 226.349 14.57 227.169 15.31C227.989 16.05 228.399 17.04 228.399 18.28L227.859 17.65H228.459L228.399 13.9V9.1H231.099V31H228.399V27.85H227.859L228.399 27.22C228.399 28.48 227.989 29.48 227.169 30.22C226.349 30.94 225.259 31.3 223.899 31.3ZM224.799 28.96C225.919 28.96 226.799 28.61 227.439 27.91C228.079 27.21 228.399 26.24 228.399 25V20.5C228.399 19.26 228.079 18.29 227.439 17.59C226.799 16.89 225.919 16.54 224.799 16.54C223.659 16.54 222.759 16.88 222.099 17.56C221.439 18.24 221.109 19.22 221.109 20.5V25C221.109 26.28 221.439 27.26 222.099 27.94C222.759 28.62 223.659 28.96 224.799 28.96ZM262.636 31C261.216 31 260.106 30.62 259.306 29.86C258.526 29.1 258.136 28.03 258.136 26.65V16.96H253.486V14.5H258.136V9.85H260.836V14.5H267.436V16.96H260.836V26.65C260.836 27.91 261.436 28.54 262.636 28.54H267.136V31H262.636ZM278.824 31.24C277.504 31.24 276.364 30.99 275.404 30.49C274.444 29.99 273.694 29.27 273.154 28.33C272.634 27.37 272.374 26.24 272.374 24.94V20.56C272.374 19.24 272.634 18.11 273.154 17.17C273.694 16.23 274.444 15.51 275.404 15.01C276.364 14.51 277.504 14.26 278.824 14.26C280.144 14.26 281.284 14.51 282.244 15.01C283.204 15.51 283.944 16.23 284.464 17.17C285.004 18.11 285.274 19.23 285.274 20.53V24.94C285.274 26.24 285.004 27.37 284.464 28.33C283.944 29.27 283.204 29.99 282.244 30.49C281.284 30.99 280.144 31.24 278.824 31.24ZM278.824 28.84C280.004 28.84 280.924 28.51 281.584 27.85C282.244 27.19 282.574 26.22 282.574 24.94V20.56C282.574 19.28 282.244 18.31 281.584 17.65C280.924 16.99 280.004 16.66 278.824 16.66C277.664 16.66 276.744 16.99 276.064 17.65C275.404 18.31 275.074 19.28 275.074 20.56V24.94C275.074 26.22 275.404 27.19 276.064 27.85C276.744 28.51 277.664 28.84 278.824 28.84ZM309.491 31L306.851 14.5H309.251L310.901 26.2C310.961 26.64 311.021 27.12 311.081 27.64C311.161 28.14 311.221 28.56 311.261 28.9C311.301 28.56 311.361 28.14 311.441 27.64C311.541 27.12 311.621 26.64 311.681 26.2L313.511 14.5H316.091L317.921 26.2C317.981 26.64 318.051 27.12 318.131 27.64C318.231 28.14 318.301 28.56 318.341 28.9C318.381 28.56 318.441 28.14 318.521 27.64C318.621 27.12 318.701 26.64 318.761 26.2L320.471 14.5H322.751L319.991 31H317.021L315.251 19.6C315.171 19.04 315.081 18.48 314.981 17.92C314.881 17.36 314.811 16.92 314.771 16.6C314.731 16.92 314.671 17.36 314.591 17.92C314.511 18.48 314.421 19.04 314.321 19.6L312.461 31H309.491ZM332.789 31.3C331.489 31.3 330.349 31.04 329.369 30.52C328.409 30 327.659 29.27 327.119 28.33C326.599 27.37 326.339 26.26 326.339 25V20.5C326.339 19.22 326.599 18.11 327.119 17.17C327.659 16.23 328.409 15.5 329.369 14.98C330.349 14.46 331.489 14.2 332.789 14.2C334.089 14.2 335.219 14.46 336.179 14.98C337.159 15.5 337.909 16.23 338.429 17.17C338.969 18.11 339.239 19.22 339.239 20.5V23.41H328.979V25C328.979 26.3 329.309 27.3 329.969 28C330.629 28.68 331.569 29.02 332.789 29.02C333.829 29.02 334.669 28.84 335.309 28.48C335.949 28.1 336.339 27.54 336.479 26.8H339.179C338.999 28.18 338.319 29.28 337.139 30.1C335.979 30.9 334.529 31.3 332.789 31.3ZM336.599 21.61V20.5C336.599 19.2 336.269 18.2 335.609 17.5C334.969 16.8 334.029 16.45 332.789 16.45C331.569 16.45 330.629 16.8 329.969 17.5C329.309 18.2 328.979 19.2 328.979 20.5V21.37H336.809L336.599 21.61ZM353.027 31C352.067 31 351.227 30.81 350.507 30.43C349.787 30.05 349.227 29.51 348.827 28.81C348.427 28.11 348.227 27.29 348.227 26.35V11.56H342.677V9.1H350.927V26.35C350.927 27.03 351.117 27.57 351.497 27.97C351.877 28.35 352.387 28.54 353.027 28.54H358.277V31H353.027ZM368.886 31.3C367.566 31.3 366.406 31.05 365.406 30.55C364.426 30.05 363.666 29.33 363.126 28.39C362.586 27.43 362.316 26.3 362.316 25V20.5C362.316 19.18 362.586 18.05 363.126 17.11C363.666 16.17 364.426 15.45 365.406 14.95C366.406 14.45 367.566 14.2 368.886 14.2C370.786 14.2 372.316 14.71 373.476 15.73C374.636 16.75 375.246 18.14 375.306 19.9H372.606C372.546 18.84 372.186 18.03 371.526 17.47C370.886 16.89 370.006 16.6 368.886 16.6C367.706 16.6 366.766 16.94 366.066 17.62C365.366 18.28 365.016 19.23 365.016 20.47V25C365.016 26.24 365.366 27.2 366.066 27.88C366.766 28.56 367.706 28.9 368.886 28.9C370.006 28.9 370.886 28.61 371.526 28.03C372.186 27.45 372.546 26.64 372.606 25.6H375.306C375.246 27.36 374.636 28.75 373.476 29.77C372.316 30.79 370.786 31.3 368.886 31.3ZM386.754 31.24C385.434 31.24 384.294 30.99 383.334 30.49C382.374 29.99 381.624 29.27 381.084 28.33C380.564 27.37 380.304 26.24 380.304 24.94V20.56C380.304 19.24 380.564 18.11 381.084 17.17C381.624 16.23 382.374 15.51 383.334 15.01C384.294 14.51 385.434 14.26 386.754 14.26C388.074 14.26 389.214 14.51 390.174 15.01C391.134 15.51 391.874 16.23 392.394 17.17C392.934 18.11 393.204 19.23 393.204 20.53V24.94C393.204 26.24 392.934 27.37 392.394 28.33C391.874 29.27 391.134 29.99 390.174 30.49C389.214 30.99 388.074 31.24 386.754 31.24ZM386.754 28.84C387.934 28.84 388.854 28.51 389.514 27.85C390.174 27.19 390.504 26.22 390.504 24.94V20.56C390.504 19.28 390.174 18.31 389.514 17.65C388.854 16.99 387.934 16.66 386.754 16.66C385.594 16.66 384.674 16.99 383.994 17.65C383.334 18.31 383.004 19.28 383.004 20.56V24.94C383.004 26.22 383.334 27.19 383.994 27.85C384.674 28.51 385.594 28.84 386.754 28.84ZM397.722 31V14.5H400.092V16.48H400.632L400.212 17.2C400.212 16.28 400.452 15.55 400.932 15.01C401.432 14.47 402.102 14.2 402.942 14.2C403.862 14.2 404.572 14.54 405.072 15.22C405.572 15.9 405.822 16.86 405.822 18.1L405.012 16.48H406.272L405.702 17.2C405.702 16.28 405.952 15.55 406.452 15.01C406.972 14.47 407.652 14.2 408.492 14.2C409.532 14.2 410.332 14.59 410.892 15.37C411.472 16.15 411.762 17.18 411.762 18.46V31H409.272V18.43C409.272 17.75 409.122 17.22 408.822 16.84C408.542 16.46 408.122 16.27 407.562 16.27C407.022 16.27 406.592 16.46 406.272 16.84C405.972 17.2 405.822 17.72 405.822 18.4V31H403.662V18.43C403.662 17.73 403.502 17.2 403.182 16.84C402.882 16.46 402.452 16.27 401.892 16.27C401.332 16.27 400.912 16.46 400.632 16.84C400.352 17.2 400.212 17.72 400.212 18.4V31H397.722ZM422.73 31.3C421.43 31.3 420.29 31.04 419.31 30.52C418.35 30 417.6 29.27 417.06 28.33C416.54 27.37 416.28 26.26 416.28 25V20.5C416.28 19.22 416.54 18.11 417.06 17.17C417.6 16.23 418.35 15.5 419.31 14.98C420.29 14.46 421.43 14.2 422.73 14.2C424.03 14.2 425.16 14.46 426.12 14.98C427.1 15.5 427.85 16.23 428.37 17.17C428.91 18.11 429.18 19.22 429.18 20.5V23.41H418.92V25C418.92 26.3 419.25 27.3 419.91 28C420.57 28.68 421.51 29.02 422.73 29.02C423.77 29.02 424.61 28.84 425.25 28.48C425.89 28.1 426.28 27.54 426.42 26.8H429.12C428.94 28.18 428.26 29.28 427.08 30.1C425.92 30.9 424.47 31.3 422.73 31.3ZM426.54 21.61V20.5C426.54 19.2 426.21 18.2 425.55 17.5C424.91 16.8 423.97 16.45 422.73 16.45C421.51 16.45 420.57 16.8 419.91 17.5C419.25 18.2 418.92 19.2 418.92 20.5V21.37H426.75L426.54 21.61ZM455.047 36.4L457.477 29.98L451.357 14.5H454.357L458.197 24.7C458.337 25.04 458.467 25.45 458.587 25.93C458.707 26.39 458.807 26.78 458.887 27.1C458.967 26.78 459.067 26.39 459.187 25.93C459.307 25.45 459.427 25.04 459.547 24.7L463.147 14.5H466.057L457.927 36.4H455.047ZM476.695 31.24C475.375 31.24 474.235 30.99 473.275 30.49C472.315 29.99 471.565 29.27 471.025 28.33C470.505 27.37 470.245 26.24 470.245 24.94V20.56C470.245 19.24 470.505 18.11 471.025 17.17C471.565 16.23 472.315 15.51 473.275 15.01C474.235 14.51 475.375 14.26 476.695 14.26C478.015 14.26 479.155 14.51 480.115 15.01C481.075 15.51 481.815 16.23 482.335 17.17C482.875 18.11 483.145 19.23 483.145 20.53V24.94C483.145 26.24 482.875 27.37 482.335 28.33C481.815 29.27 481.075 29.99 480.115 30.49C479.155 30.99 478.015 31.24 476.695 31.24ZM476.695 28.84C477.875 28.84 478.795 28.51 479.455 27.85C480.115 27.19 480.445 26.22 480.445 24.94V20.56C480.445 19.28 480.115 18.31 479.455 17.65C478.795 16.99 477.875 16.66 476.695 16.66C475.535 16.66 474.615 16.99 473.935 17.65C473.275 18.31 472.945 19.28 472.945 20.56V24.94C472.945 26.22 473.275 27.19 473.935 27.85C474.615 28.51 475.535 28.84 476.695 28.84ZM494.654 31.3C492.754 31.3 491.234 30.74 490.094 29.62C488.954 28.48 488.384 26.94 488.384 25V14.5H491.084V25C491.084 26.24 491.404 27.21 492.044 27.91C492.684 28.59 493.554 28.93 494.654 28.93C495.774 28.93 496.654 28.59 497.294 27.91C497.954 27.21 498.284 26.24 498.284 25V14.5H500.984V25C500.984 26.94 500.404 28.48 499.244 29.62C498.084 30.74 496.554 31.3 494.654 31.3ZM10.8 71C9.38 71 8.27 70.62 7.47 69.86C6.69 69.1 6.3 68.03 6.3 66.65V56.96H1.65V54.5H6.3V49.85H9V54.5H15.6V56.96H9V66.65C9 67.91 9.6 68.54 10.8 68.54H15.3V71H10.8ZM26.9883 71.24C25.6683 71.24 24.5283 70.99 23.5683 70.49C22.6083 69.99 21.8583 69.27 21.3183 68.33C20.7983 67.37 20.5383 66.24 20.5383 64.94V60.56C20.5383 59.24 20.7983 58.11 21.3183 57.17C21.8583 56.23 22.6083 55.51 23.5683 55.01C24.5283 54.51 25.6683 54.26 26.9883 54.26C28.3083 54.26 29.4483 54.51 30.4083 55.01C31.3683 55.51 32.1083 56.23 32.6283 57.17C33.1683 58.11 33.4383 59.23 33.4383 60.53V64.94C33.4383 66.24 33.1683 67.37 32.6283 68.33C32.1083 69.27 31.3683 69.99 30.4083 70.49C29.4483 70.99 28.3083 71.24 26.9883 71.24ZM26.9883 68.84C28.1683 68.84 29.0883 68.51 29.7483 67.85C30.4083 67.19 30.7383 66.22 30.7383 64.94V60.56C30.7383 59.28 30.4083 58.31 29.7483 57.65C29.0883 56.99 28.1683 56.66 26.9883 56.66C25.8283 56.66 24.9083 56.99 24.2283 57.65C23.5683 58.31 23.2383 59.28 23.2383 60.56V64.94C23.2383 66.22 23.5683 67.19 24.2283 67.85C24.9083 68.51 25.8283 68.84 26.9883 68.84ZM62.9648 71.24C61.6448 71.24 60.5048 70.99 59.5448 70.49C58.5848 69.99 57.8348 69.27 57.2948 68.33C56.7748 67.37 56.5148 66.24 56.5148 64.94V60.56C56.5148 59.24 56.7748 58.11 57.2948 57.17C57.8348 56.23 58.5848 55.51 59.5448 55.01C60.5048 54.51 61.6448 54.26 62.9648 54.26C64.2848 54.26 65.4248 54.51 66.3848 55.01C67.3448 55.51 68.0848 56.23 68.6048 57.17C69.1448 58.11 69.4148 59.23 69.4148 60.53V64.94C69.4148 66.24 69.1448 67.37 68.6048 68.33C68.0848 69.27 67.3448 69.99 66.3848 70.49C65.4248 70.99 64.2848 71.24 62.9648 71.24ZM62.9648 68.84C64.1448 68.84 65.0648 68.51 65.7248 67.85C66.3848 67.19 66.7148 66.22 66.7148 64.94V60.56C66.7148 59.28 66.3848 58.31 65.7248 57.65C65.0648 56.99 64.1448 56.66 62.9648 56.66C61.8048 56.66 60.8848 56.99 60.2048 57.65C59.5448 58.31 59.2148 59.28 59.2148 60.56V64.94C59.2148 66.22 59.5448 67.19 60.2048 67.85C60.8848 68.51 61.8048 68.84 62.9648 68.84ZM80.9231 71.3C79.0231 71.3 77.5031 70.74 76.3631 69.62C75.2231 68.48 74.6531 66.94 74.6531 65V54.5H77.3531V65C77.3531 66.24 77.6731 67.21 78.3131 67.91C78.9531 68.59 79.8231 68.93 80.9231 68.93C82.0431 68.93 82.9231 68.59 83.5631 67.91C84.2231 67.21 84.5531 66.24 84.5531 65V54.5H87.2531V65C87.2531 66.94 86.6731 68.48 85.5131 69.62C84.3531 70.74 82.8231 71.3 80.9231 71.3ZM93.2714 71V54.5H95.9114V57.65H96.5414L95.6714 59.6C95.6714 57.82 96.0514 56.48 96.8114 55.58C97.5914 54.66 98.7414 54.2 100.261 54.2C102.001 54.2 103.381 54.75 104.401 55.85C105.441 56.93 105.961 58.4 105.961 60.26V61.25H103.261V60.5C103.261 59.2 102.941 58.21 102.301 57.53C101.681 56.83 100.791 56.48 99.6314 56.48C98.4914 56.48 97.5914 56.83 96.9314 57.53C96.2914 58.23 95.9714 59.22 95.9714 60.5V71H93.2714ZM128.678 71V68.24L135.368 61.13C136.508 59.91 137.338 58.83 137.858 57.89C138.378 56.93 138.638 56.01 138.638 55.13C138.638 53.91 138.298 52.95 137.618 52.25C136.958 51.55 136.048 51.2 134.888 51.2C133.608 51.2 132.598 51.56 131.858 52.28C131.138 53 130.778 53.99 130.778 55.25H128.078C128.118 53.93 128.418 52.79 128.978 51.83C129.558 50.85 130.348 50.1 131.348 49.58C132.368 49.06 133.548 48.8 134.888 48.8C136.208 48.8 137.348 49.06 138.308 49.58C139.288 50.08 140.038 50.8 140.558 51.74C141.078 52.68 141.338 53.8 141.338 55.1C141.338 56.34 141.008 57.57 140.348 58.79C139.688 60.01 138.608 61.4 137.108 62.96L131.708 68.54H141.698V71H128.678ZM156.206 71V66.2H146.306V61.97L154.976 49.1H157.916L149.006 62.54V63.74H156.206V58.4H158.906V71H156.206ZM182.643 71V49.1H185.343V54.5V57.65H185.913L185.343 58.28C185.343 56.98 185.733 55.98 186.513 55.28C187.293 54.56 188.373 54.2 189.753 54.2C191.413 54.2 192.733 54.71 193.713 55.73C194.693 56.75 195.183 58.14 195.183 59.9V71H192.483V60.2C192.483 59.02 192.163 58.11 191.523 57.47C190.903 56.81 190.053 56.48 188.973 56.48C187.853 56.48 186.963 56.83 186.303 57.53C185.663 58.23 185.343 59.22 185.343 60.5V71H182.643ZM206.871 71.24C205.551 71.24 204.411 70.99 203.451 70.49C202.491 69.99 201.741 69.27 201.201 68.33C200.681 67.37 200.421 66.24 200.421 64.94V60.56C200.421 59.24 200.681 58.11 201.201 57.17C201.741 56.23 202.491 55.51 203.451 55.01C204.411 54.51 205.551 54.26 206.871 54.26C208.191 54.26 209.331 54.51 210.291 55.01C211.251 55.51 211.991 56.23 212.511 57.17C213.051 58.11 213.321 59.23 213.321 60.53V64.94C213.321 66.24 213.051 67.37 212.511 68.33C211.991 69.27 211.251 69.99 210.291 70.49C209.331 70.99 208.191 71.24 206.871 71.24ZM206.871 68.84C208.051 68.84 208.971 68.51 209.631 67.85C210.291 67.19 210.621 66.22 210.621 64.94V60.56C210.621 59.28 210.291 58.31 209.631 57.65C208.971 56.99 208.051 56.66 206.871 56.66C205.711 56.66 204.791 56.99 204.111 57.65C203.451 58.31 203.121 59.28 203.121 60.56V64.94C203.121 66.22 203.451 67.19 204.111 67.85C204.791 68.51 205.711 68.84 206.871 68.84ZM224.829 71.3C222.929 71.3 221.409 70.74 220.269 69.62C219.129 68.48 218.559 66.94 218.559 65V54.5H221.259V65C221.259 66.24 221.579 67.21 222.219 67.91C222.859 68.59 223.729 68.93 224.829 68.93C225.949 68.93 226.829 68.59 227.469 67.91C228.129 67.21 228.459 66.24 228.459 65V54.5H231.159V65C231.159 66.94 230.579 68.48 229.419 69.62C228.259 70.74 226.729 71.3 224.829 71.3ZM237.178 71V54.5H239.818V57.65H240.448L239.578 59.6C239.578 57.82 239.958 56.48 240.718 55.58C241.498 54.66 242.648 54.2 244.168 54.2C245.908 54.2 247.288 54.75 248.308 55.85C249.348 56.93 249.868 58.4 249.868 60.26V61.25H247.168V60.5C247.168 59.2 246.848 58.21 246.208 57.53C245.588 56.83 244.698 56.48 243.538 56.48C242.398 56.48 241.498 56.83 240.838 57.53C240.198 58.23 239.878 59.22 239.878 60.5V71H237.178ZM272.614 71V49.1H275.314V58.46H282.334V49.1H285.034V71H282.334V60.92H275.314V71H272.614ZM295.373 71.3C293.633 71.3 292.263 70.86 291.263 69.98C290.263 69.08 289.763 67.87 289.763 66.35C289.763 64.81 290.263 63.6 291.263 62.72C292.263 61.84 293.613 61.4 295.312 61.4H300.413V59.75C300.413 58.73 300.103 57.95 299.483 57.41C298.883 56.85 298.023 56.57 296.903 56.57C295.923 56.57 295.103 56.78 294.443 57.2C293.783 57.6 293.403 58.15 293.303 58.85H290.603C290.783 57.43 291.453 56.3 292.613 55.46C293.773 54.62 295.223 54.2 296.963 54.2C298.863 54.2 300.363 54.69 301.463 55.67C302.563 56.65 303.113 57.98 303.113 59.66V71H300.473V67.85H300.023L300.473 67.4C300.473 68.6 300.003 69.55 299.063 70.25C298.143 70.95 296.913 71.3 295.373 71.3ZM296.033 69.17C297.313 69.17 298.363 68.85 299.183 68.21C300.003 67.57 300.413 66.75 300.413 65.75V63.41H295.373C294.473 63.41 293.763 63.66 293.243 64.16C292.723 64.66 292.463 65.34 292.463 66.2C292.463 67.12 292.773 67.85 293.393 68.39C294.033 68.91 294.913 69.17 296.033 69.17ZM314.921 71.3C313.601 71.3 312.441 71.05 311.441 70.55C310.461 70.05 309.701 69.33 309.161 68.39C308.621 67.43 308.351 66.3 308.351 65V60.5C308.351 59.18 308.621 58.05 309.161 57.11C309.701 56.17 310.461 55.45 311.441 54.95C312.441 54.45 313.601 54.2 314.921 54.2C316.821 54.2 318.351 54.71 319.511 55.73C320.671 56.75 321.281 58.14 321.341 59.9H318.641C318.581 58.84 318.221 58.03 317.561 57.47C316.921 56.89 316.041 56.6 314.921 56.6C313.741 56.6 312.801 56.94 312.101 57.62C311.401 58.28 311.051 59.23 311.051 60.47V65C311.051 66.24 311.401 67.2 312.101 67.88C312.801 68.56 313.741 68.9 314.921 68.9C316.041 68.9 316.921 68.61 317.561 68.03C318.221 67.45 318.581 66.64 318.641 65.6H321.341C321.281 67.36 320.671 68.75 319.511 69.77C318.351 70.79 316.821 71.3 314.921 71.3ZM326.639 71V49.1H329.339V61.31H332.519L337.319 54.5H340.409L334.859 62.36L340.499 71H337.349L332.549 63.65H329.339V71H326.639ZM349.337 71.3C347.597 71.3 346.227 70.86 345.227 69.98C344.227 69.08 343.727 67.87 343.727 66.35C343.727 64.81 344.227 63.6 345.227 62.72C346.227 61.84 347.577 61.4 349.277 61.4H354.377V59.75C354.377 58.73 354.067 57.95 353.447 57.41C352.847 56.85 351.987 56.57 350.867 56.57C349.887 56.57 349.067 56.78 348.407 57.2C347.747 57.6 347.367 58.15 347.267 58.85H344.567C344.747 57.43 345.417 56.3 346.577 55.46C347.737 54.62 349.187 54.2 350.927 54.2C352.827 54.2 354.327 54.69 355.427 55.67C356.527 56.65 357.077 57.98 357.077 59.66V71H354.437V67.85H353.987L354.437 67.4C354.437 68.6 353.967 69.55 353.027 70.25C352.107 70.95 350.877 71.3 349.337 71.3ZM349.997 69.17C351.277 69.17 352.327 68.85 353.147 68.21C353.967 67.57 354.377 66.75 354.377 65.75V63.41H349.337C348.437 63.41 347.727 63.66 347.207 64.16C346.687 64.66 346.427 65.34 346.427 66.2C346.427 67.12 346.737 67.85 347.357 68.39C347.997 68.91 348.877 69.17 349.997 69.17ZM370.566 71C369.146 71 368.036 70.62 367.236 69.86C366.456 69.1 366.066 68.03 366.066 66.65V56.96H361.416V54.5H366.066V49.85H368.766V54.5H375.366V56.96H368.766V66.65C368.766 67.91 369.366 68.54 370.566 68.54H375.066V71H370.566ZM380.514 71V49.1H383.214V54.5V57.65H383.784L383.214 58.28C383.214 56.98 383.604 55.98 384.384 55.28C385.164 54.56 386.244 54.2 387.624 54.2C389.284 54.2 390.604 54.71 391.584 55.73C392.564 56.75 393.054 58.14 393.054 59.9V71H390.354V60.2C390.354 59.02 390.034 58.11 389.394 57.47C388.774 56.81 387.924 56.48 386.844 56.48C385.724 56.48 384.834 56.83 384.174 57.53C383.534 58.23 383.214 59.22 383.214 60.5V71H380.514ZM404.742 71.24C403.422 71.24 402.282 70.99 401.322 70.49C400.362 69.99 399.612 69.27 399.072 68.33C398.552 67.37 398.292 66.24 398.292 64.94V60.56C398.292 59.24 398.552 58.11 399.072 57.17C399.612 56.23 400.362 55.51 401.322 55.01C402.282 54.51 403.422 54.26 404.742 54.26C406.062 54.26 407.202 54.51 408.162 55.01C409.122 55.51 409.862 56.23 410.382 57.17C410.922 58.11 411.192 59.23 411.192 60.53V64.94C411.192 66.24 410.922 67.37 410.382 68.33C409.862 69.27 409.122 69.99 408.162 70.49C407.202 70.99 406.062 71.24 404.742 71.24ZM404.742 68.84C405.922 68.84 406.842 68.51 407.502 67.85C408.162 67.19 408.492 66.22 408.492 64.94V60.56C408.492 59.28 408.162 58.31 407.502 57.65C406.842 56.99 405.922 56.66 404.742 56.66C403.582 56.66 402.662 56.99 401.982 57.65C401.322 58.31 400.992 59.28 400.992 60.56V64.94C400.992 66.22 401.322 67.19 401.982 67.85C402.662 68.51 403.582 68.84 404.742 68.84ZM416.49 71V54.5H419.19V57.65H419.76L419.19 58.28C419.19 56.98 419.58 55.98 420.36 55.28C421.14 54.56 422.22 54.2 423.6 54.2C425.26 54.2 426.58 54.71 427.56 55.73C428.54 56.75 429.03 58.14 429.03 59.9V71H426.33V60.2C426.33 59.02 426.01 58.12 425.37 57.5C424.75 56.86 423.9 56.54 422.82 56.54C421.7 56.54 420.81 56.88 420.15 57.56C419.51 58.24 419.19 59.22 419.19 60.5V71H416.49ZM439.759 64.55L439.129 52.7V49.1H442.309V52.7L441.679 64.55H439.759ZM440.269 71.15C439.749 71.15 439.319 70.98 438.979 70.64C438.639 70.3 438.469 69.87 438.469 69.35C438.469 68.83 438.639 68.4 438.979 68.06C439.319 67.72 439.749 67.55 440.269 67.55H441.169C441.749 67.55 442.189 67.72 442.489 68.06C442.809 68.38 442.969 68.8 442.969 69.32C442.969 69.84 442.799 70.28 442.459 70.64C442.119 70.98 441.689 71.15 441.169 71.15H440.269Z" fill="white"/>
<path d="M198 180.667C197.533 180.667 197.133 180.522 196.8 180.233C196.467 179.944 196.217 179.565 196.05 179.096C195.417 177.074 194.617 175.178 193.65 173.408C192.717 171.639 191.4 169.562 189.7 167.179C188 164.796 186.617 162.521 185.55 160.354C184.517 158.187 184 155.569 184 152.5C184 148.275 185.35 144.7 188.05 141.775C190.783 138.814 194.1 137.333 198 137.333C201.9 137.333 205.2 138.814 207.9 141.775C210.633 144.7 212 148.275 212 152.5C212 155.786 211.417 158.53 210.25 160.733C209.117 162.9 207.8 165.049 206.3 167.179C204.5 169.779 203.133 171.946 202.2 173.679C201.3 175.376 200.55 177.182 199.95 179.096C199.783 179.601 199.517 179.999 199.15 180.287C198.817 180.54 198.433 180.667 198 180.667ZM198 172.921C198.567 171.693 199.2 170.483 199.9 169.292C200.633 168.1 201.7 166.511 203.1 164.525C204.533 162.503 205.7 160.643 206.6 158.946C207.533 157.212 208 155.064 208 152.5C208 149.503 207.017 146.957 205.05 144.862C203.117 142.732 200.767 141.667 198 141.667C195.233 141.667 192.867 142.732 190.9 144.862C188.967 146.957 188 149.503 188 152.5C188 155.064 188.45 157.212 189.35 158.946C190.283 160.643 191.467 162.503 192.9 164.525C194.3 166.511 195.35 168.1 196.05 169.292C196.783 170.483 197.433 171.693 198 172.921ZM198 157.917C199.4 157.917 200.583 157.393 201.55 156.346C202.517 155.299 203 154.017 203 152.5C203 150.983 202.517 149.701 201.55 148.654C200.583 147.607 199.4 147.083 198 147.083C196.6 147.083 195.417 147.607 194.45 148.654C193.483 149.701 193 150.983 193 152.5C193 154.017 193.483 155.299 194.45 156.346C195.417 157.393 196.6 157.917 198 157.917Z" fill="#44BF4F"/>
</svg>
