<svg width="1266" height="362" viewBox="0 0 1266 362" fill="none" xmlns="http://www.w3.org/2000/svg">
<path d="M12.623 124.751V35.3088H27.9425V110.538H65.9346V124.751H12.623ZM110.374 125.976C104.655 125.976 99.6712 124.873 95.4226 122.668C91.174 120.462 87.865 117.399 85.4956 113.479C83.2079 109.476 82.064 104.82 82.064 99.5109V82.6027C82.064 77.2934 83.2079 72.6784 85.4956 68.7576C87.865 64.7553 91.174 61.6513 95.4226 59.4459C99.6712 57.2405 104.655 56.1378 110.374 56.1378C116.012 56.1378 120.914 57.2405 125.081 59.4459C129.329 61.6513 132.598 64.7553 134.885 68.7576C137.255 72.6784 138.439 77.2934 138.439 82.6027V94.7325H96.8932V99.5109C96.8932 104.248 98.0371 107.842 100.325 110.293C102.613 112.662 106.003 113.846 110.497 113.846C113.928 113.846 116.706 113.275 118.831 112.131C120.955 110.906 122.303 109.149 122.875 106.862H137.949C136.805 112.662 133.701 117.318 128.635 120.83C123.652 124.261 117.564 125.976 110.374 125.976ZM123.61 86.1559V82.4802C123.61 77.8243 122.507 74.2712 120.301 71.8207C118.095 69.2886 114.786 68.0225 110.374 68.0225C105.962 68.0225 102.613 69.2886 100.325 71.8207C98.0371 74.3528 96.8932 77.9469 96.8932 82.6027V85.1757L124.713 84.9307L123.61 86.1559ZM183.86 125.976C178.141 125.976 173.156 124.873 168.908 122.668C164.66 120.462 161.351 117.399 158.981 113.479C156.694 109.476 155.549 104.82 155.549 99.5109V82.6027C155.549 77.2934 156.694 72.6784 158.981 68.7576C161.351 64.7553 164.66 61.6513 168.908 59.4459C173.156 57.2405 178.141 56.1378 183.86 56.1378C189.497 56.1378 194.399 57.2405 198.566 59.4459C202.814 61.6513 206.083 64.7553 208.371 68.7576C210.74 72.6784 211.925 77.2934 211.925 82.6027V94.7325H170.379V99.5109C170.379 104.248 171.523 107.842 173.81 110.293C176.097 112.662 179.489 113.846 183.982 113.846C187.414 113.846 190.191 113.275 192.316 112.131C194.441 110.906 195.789 109.149 196.36 106.862H211.435C210.29 112.662 207.186 117.318 202.12 120.83C197.137 124.261 191.049 125.976 183.86 125.976ZM197.096 86.1559V82.4802C197.096 77.8243 195.993 74.2712 193.787 71.8207C191.581 69.2886 188.272 68.0225 183.86 68.0225C179.448 68.0225 176.097 69.2886 173.81 71.8207C171.523 74.3528 170.379 77.9469 170.379 82.6027V85.1757L198.199 84.9307L197.096 86.1559ZM251.462 125.976C244.763 125.976 239.329 123.648 235.162 118.992C231.077 114.336 229.035 108.088 229.035 100.246V81.9901C229.035 74.067 231.077 67.7775 235.162 63.1216C239.248 58.4657 244.681 56.1378 251.462 56.1378C257.018 56.1378 261.43 57.7306 264.698 60.9162C267.966 64.0201 269.6 68.3084 269.6 73.7811L266.169 70.2279H269.723L269.233 54.1774V35.3088H284.552V124.751H269.6V111.886H266.169L269.6 108.333C269.6 113.805 267.966 118.134 264.698 121.32C261.43 124.424 257.018 125.976 251.462 125.976ZM256.855 112.743C260.776 112.743 263.799 111.6 265.924 109.313C268.13 106.944 269.233 103.677 269.233 99.5109V82.6027C269.233 78.437 268.13 75.2105 265.924 72.9234C263.799 70.5546 260.776 69.3703 256.855 69.3703C252.933 69.3703 249.869 70.5138 247.663 72.8009C245.457 75.088 244.354 78.3553 244.354 82.6027V99.5109C244.354 103.758 245.457 107.026 247.663 109.313C249.869 111.6 252.933 112.743 256.855 112.743ZM328.134 125.853C322.987 125.853 318.493 125.037 314.653 123.403C310.813 121.769 307.79 119.523 305.584 116.664C303.459 113.724 302.316 110.293 302.152 106.372H317.472C317.635 108.496 318.656 110.211 320.536 111.518C322.496 112.825 325.029 113.479 328.134 113.479H333.526C337.284 113.479 340.103 112.743 341.983 111.273C343.862 109.803 344.802 107.802 344.802 105.27C344.802 102.901 343.944 101.063 342.228 99.756C340.593 98.3673 338.02 97.4689 334.507 97.0605L326.173 95.8352C318.493 94.7734 312.856 92.7313 309.261 89.7091C305.665 86.6869 303.868 82.1535 303.868 76.109C303.868 69.8195 305.993 64.9594 310.241 61.5288C314.489 58.0165 320.74 56.2603 328.992 56.2603H333.649C341.166 56.2603 347.171 57.9347 351.665 61.2837C356.158 64.6327 358.569 69.1252 358.895 74.7613H343.576C343.331 72.9643 342.309 71.494 340.512 70.3504C338.796 69.2069 336.509 68.6351 333.649 68.6351H328.992C325.479 68.6351 322.905 69.2886 321.271 70.5955C319.719 71.8207 318.942 73.6586 318.942 76.109C318.942 78.3961 319.637 80.1114 321.026 81.255C322.415 82.3168 324.661 83.0928 327.766 83.5829L336.468 84.8082C344.475 85.9517 350.358 88.1163 354.116 91.3019C357.956 94.4058 359.876 99.0208 359.876 105.147C359.876 111.682 357.629 116.787 353.135 120.462C348.723 124.057 342.187 125.853 333.526 125.853H328.134Z" fill="white"/>
<path d="M12.7793 231.68V142.238H28.0987V178.137H52.1196V142.238H67.439V231.68H52.1196V192.35H28.0987V231.68H12.7793ZM106.119 232.905C99.1738 232.905 93.6997 231.067 89.6962 227.392C85.6927 223.716 83.6909 218.774 83.6909 212.566C83.6909 205.95 85.8969 200.845 90.3089 197.251C94.7209 193.657 100.971 191.86 109.06 191.86H125.85V186.101C125.85 182.834 124.788 180.301 122.664 178.505C120.539 176.626 117.639 175.687 113.962 175.687C110.612 175.687 107.834 176.422 105.628 177.892C103.422 179.363 102.115 181.364 101.707 183.896H86.7548C87.4902 177.525 90.3498 172.46 95.3337 168.703C100.318 164.946 106.691 163.067 114.452 163.067C122.705 163.067 129.2 165.15 133.939 169.316C138.76 173.4 141.169 178.954 141.169 185.979V231.68H126.34V219.918H123.889L126.34 216.61C126.34 221.592 124.502 225.554 120.825 228.494C117.149 231.435 112.246 232.905 106.119 232.905ZM111.143 221.388C115.474 221.388 118.987 220.285 121.683 218.08C124.461 215.874 125.85 213.015 125.85 209.503V201.294H109.305C106.2 201.294 103.708 202.193 101.829 203.99C99.95 205.786 99.0104 208.155 99.0104 211.096C99.0104 214.282 100.073 216.813 102.197 218.692C104.403 220.489 107.385 221.388 111.143 221.388ZM187.447 232.905C181.729 232.905 176.704 231.844 172.373 229.72C168.125 227.514 164.816 224.451 162.446 220.53C160.076 216.528 158.892 211.831 158.892 206.44V189.532C158.892 184.06 160.076 179.363 162.446 175.442C164.816 171.521 168.125 168.499 172.373 166.375C176.704 164.17 181.729 163.067 187.447 163.067C195.945 163.067 202.726 165.272 207.792 169.683C212.858 174.013 215.513 179.934 215.758 187.449H200.438C200.193 183.937 198.926 181.242 196.639 179.363C194.433 177.402 191.369 176.422 187.447 176.422C183.362 176.422 180.135 177.566 177.766 179.853C175.396 182.058 174.211 185.244 174.211 189.409V206.44C174.211 210.606 175.396 213.833 177.766 216.119C180.135 218.406 183.362 219.55 187.447 219.55C191.369 219.55 194.433 218.611 196.639 216.732C198.926 214.772 200.193 212.035 200.438 208.523H215.758C215.513 216.038 212.858 222.001 207.792 226.411C202.726 230.741 195.945 232.905 187.447 232.905ZM233.603 231.68V142.238H248.922V190.757H259.585L276.007 164.292H293.165L272.821 196.883L293.532 231.68H276.007L259.585 203.745H248.922V231.68H233.603Z" fill="white"/>
<path d="M15.7203 343.064V330.935L38.5824 307.978C41.7912 304.704 44.1643 301.763 45.7018 299.157C47.2393 296.483 48.0081 293.743 48.0081 290.936C48.0081 287.528 47.0722 284.888 45.2004 283.017C43.3287 281.079 40.7884 280.11 37.5797 280.11C34.0367 280.11 31.2625 281.146 29.2571 283.218C27.2516 285.222 26.2489 288.029 26.2489 291.638H13.7148C13.7817 286.96 14.7844 282.95 16.723 279.609C18.7285 276.2 21.5361 273.56 25.1459 271.689C28.7557 269.818 32.9672 268.882 37.7803 268.882C42.3928 268.882 46.4037 269.751 49.813 271.489C53.2222 273.226 55.8627 275.666 57.7345 278.807C59.6063 281.948 60.5421 285.69 60.5421 290.034C60.5421 294.512 59.3723 298.889 57.0326 303.167C54.7597 307.377 51.0831 311.921 46.0026 316.8L30.7612 331.737H61.4446V343.064H15.7203ZM98.0049 344.067C93.2586 344.067 89.1474 343.165 85.6713 341.36C82.1952 339.556 79.4879 337.016 77.5492 333.742C75.6775 330.467 74.7416 326.624 74.7416 322.213V290.736C74.7416 286.325 75.6775 282.482 77.5492 279.208C79.4879 275.933 82.1952 273.393 85.6713 271.589C89.1474 269.785 93.2586 268.882 98.0049 268.882C102.818 268.882 106.929 269.785 110.338 271.589C113.815 273.393 116.489 275.933 118.36 279.208C120.299 282.482 121.268 286.325 121.268 290.736V322.213C121.268 326.624 120.299 330.467 118.36 333.742C116.489 337.016 113.815 339.556 110.338 341.36C106.862 343.165 102.751 344.067 98.0049 344.067ZM98.0049 333.24C101.481 333.24 104.255 332.238 106.327 330.233C108.4 328.228 109.436 325.555 109.436 322.213V290.736C109.436 287.394 108.4 284.721 106.327 282.716C104.255 280.711 101.481 279.709 98.0049 279.709C94.5287 279.709 91.7545 280.711 89.6822 282.716C87.6099 284.721 86.5738 287.394 86.5738 290.736V322.213C86.5738 325.555 87.6099 328.228 89.6822 330.233C91.7545 332.238 94.5287 333.24 98.0049 333.24ZM98.0049 312.991C96.0663 312.991 94.4619 312.356 93.1918 311.086C91.9885 309.816 91.3869 308.179 91.3869 306.174C91.3869 304.169 91.9885 302.565 93.1918 301.362C94.3951 300.159 95.9994 299.558 98.0049 299.558C100.01 299.558 101.615 300.159 102.818 301.362C104.021 302.565 104.623 304.169 104.623 306.174C104.623 308.179 104.021 309.816 102.818 311.086C101.615 312.356 100.01 312.991 98.0049 312.991ZM135.969 343.064V330.935L158.832 307.978C162.04 304.704 164.413 301.763 165.951 299.157C167.488 296.483 168.257 293.743 168.257 290.936C168.257 287.528 167.321 284.888 165.45 283.017C163.578 281.079 161.038 280.11 157.829 280.11C154.286 280.11 151.512 281.146 149.506 283.218C147.501 285.222 146.498 288.029 146.498 291.638H133.964C134.031 286.96 135.034 282.95 136.972 279.609C138.978 276.2 141.785 273.56 145.395 271.689C149.005 269.818 153.216 268.882 158.029 268.882C162.642 268.882 166.653 269.751 170.062 271.489C173.471 273.226 176.112 275.666 177.984 278.807C179.855 281.948 180.791 285.69 180.791 290.034C180.791 294.512 179.621 298.889 177.282 303.167C175.009 307.377 171.332 311.921 166.252 316.8L151.01 331.737H181.694V343.064H135.969ZM218.154 344.067C211.402 344.067 205.988 342.396 201.91 339.055C197.832 335.646 195.593 331.035 195.191 325.221H207.726C207.993 327.76 208.996 329.732 210.734 331.135C212.539 332.472 215.012 333.14 218.154 333.14C221.63 333.14 224.271 332.238 226.075 330.433C227.88 328.562 228.783 325.989 228.783 322.715V315.597C228.783 312.255 227.88 309.716 226.075 307.978C224.271 306.174 221.63 305.272 218.154 305.272C216.015 305.272 214.176 305.706 212.639 306.575C211.101 307.444 209.932 308.647 209.129 310.184H196.896L197.397 269.885H238.609V281.213H209.23L209.029 302.465H211.937L208.929 304.971C208.929 301.897 210.132 299.491 212.539 297.753C215.012 295.949 218.321 295.047 222.466 295.047C228.415 294.98 233.028 296.784 236.303 300.46C239.646 304.069 241.317 309.114 241.317 315.597V322.715C241.317 329.331 239.245 334.544 235.1 338.353C231.022 342.162 225.374 344.067 218.154 344.067Z" fill="white"/>
<path d="M12.2554 248.945H240.654" stroke="#44BF4F" stroke-width="5"/>
<path d="M565.067 211.42L612.283 293.876" stroke="#44BF4F" stroke-width="4"/>
<path d="M493.644 83.9651L543.741 159.983" stroke="#44BF4F" stroke-width="4"/>
<path d="M462.183 84.2893L413.917 159.439" stroke="#44BF4F" stroke-width="4"/>
<path d="M382.447 209.523L338.379 279.454" stroke="#44BF4F" stroke-width="4"/>
<path d="M536.738 213.614L492.67 290.851" stroke="#44BF4F" stroke-width="4"/>
<path d="M622.804 349.748C638.802 349.748 651.772 336.782 651.772 320.788C651.772 304.793 638.802 291.828 622.804 291.828C606.806 291.828 593.836 304.793 593.836 320.788C593.836 336.782 606.806 349.748 622.804 349.748Z" stroke="#44BF4F" stroke-width="4"/>
<path d="M580.467 186.569C580.467 202.218 567.536 214.972 551.499 214.972C535.462 214.972 522.531 202.218 522.531 186.569C522.531 170.921 535.462 158.166 551.499 158.166C567.536 158.166 580.467 170.921 580.467 186.569Z" stroke="#44BF4F" stroke-width="4"/>
<path d="M476.852 86.88C492.85 86.88 505.82 73.9141 505.82 57.92C505.82 41.9258 492.85 28.96 476.852 28.96C460.854 28.96 447.884 41.9258 447.884 57.92C447.884 73.9141 460.854 86.88 476.852 86.88Z" stroke="#44BF4F" stroke-width="4"/>
<path d="M430.058 186.569C430.058 202.218 417.127 214.972 401.09 214.972C385.053 214.972 372.123 202.218 372.123 186.569C372.123 170.921 385.053 158.166 401.09 158.166C417.127 158.166 430.058 170.921 430.058 186.569Z" stroke="#44BF4F" stroke-width="4"/>
<path d="M509.162 319.117C509.162 335.456 496.155 348.634 480.194 348.634C464.233 348.634 451.227 335.456 451.227 319.117C451.227 302.778 464.233 289.6 480.194 289.6C496.155 289.6 509.162 302.778 509.162 319.117Z" stroke="#44BF4F" stroke-width="4"/>
<path d="M338.698 280.689C337.468 280.689 336.47 279.941 336.47 279.018C336.47 278.096 337.468 277.348 338.698 277.348C339.929 277.348 340.927 278.096 340.927 279.018C340.927 279.941 339.929 280.689 338.698 280.689Z" fill="#44BF4F"/>
<path d="M344.858 304.609C345.192 315.939 344.505 327.063 343.422 338.186C345.866 330.079 347.136 321.787 347.529 313.356C347.922 304.891 347.407 296.465 345.93 287.59C349.902 290.295 352.964 293.14 355.493 296.484C365.111 309.198 365.222 322.71 358.678 336.628C355.319 343.773 350.253 349.684 344.091 354.727C343.135 355.509 342.548 355.523 341.609 354.716C331.157 345.729 323.861 334.949 322.26 321.17C320.722 307.93 325.673 297.429 337.12 290.029C339.13 288.73 341.326 287.705 343.977 286.259C344.287 292.681 344.571 298.563 344.858 304.609Z" fill="#44BE4F"/>
<path d="M317.872 282.988C308.298 287.357 298.535 290.792 288.631 293.891C296.443 293.025 303.994 291.104 311.347 288.394C318.731 285.672 325.754 282.196 332.818 277.752C331.928 282.074 330.594 285.679 328.641 289.016C321.216 301.706 309.696 306.673 295.44 306.181C288.121 305.929 281.246 303.794 274.719 300.421C273.708 299.899 273.485 299.409 273.838 298.327C277.774 286.28 284.377 276.244 295.591 269.925C306.366 263.852 317.126 264.236 327.567 271.209C329.4 272.435 331.066 273.915 333.255 275.626C327.871 278.204 322.941 280.566 317.872 282.988Z" fill="#44BE4F"/>
<path d="M306.533 324.466C302.572 330.271 298.184 335.61 293.599 340.807C297.758 337.606 301.407 333.895 304.669 329.804C307.947 325.695 310.758 321.283 313.259 316.306C314.24 319.075 314.719 321.589 314.752 324.165C314.881 333.961 310.017 340.781 301.713 345.443C297.451 347.835 292.792 349.003 287.908 349.344C287.15 349.398 286.855 349.196 286.685 348.458C284.785 340.237 285.1 332.236 289.324 324.752C293.383 317.561 299.655 314.05 308.013 314.401C309.48 314.463 310.938 314.728 312.778 314.944C310.593 318.277 308.592 321.33 306.533 324.466Z" fill="#44BE4F"/>
<path d="M749.442 290.323L749.401 272.048L760.151 272.022L760.156 274.072L751.606 274.093L751.619 280.168L759.519 280.148L759.524 282.198L751.674 282.217L751.692 290.317L749.442 290.323ZM769.558 290.524C768.475 290.526 767.524 290.312 766.707 289.881C765.906 289.449 765.279 288.842 764.827 288.06C764.392 287.261 764.174 286.337 764.171 285.287L764.163 281.537C764.16 280.47 764.375 279.545 764.807 278.76C765.255 277.976 765.878 277.366 766.677 276.931C767.493 276.495 768.443 276.276 769.526 276.274C770.609 276.271 771.551 276.485 772.352 276.917C773.17 277.348 773.796 277.955 774.232 278.737C774.683 279.519 774.91 280.444 774.913 281.51L774.918 283.935L766.368 283.956L766.371 285.281C766.374 286.365 766.651 287.197 767.202 287.779C767.753 288.345 768.537 288.626 769.554 288.624C770.42 288.621 771.12 288.47 771.653 288.168C772.185 287.85 772.509 287.383 772.625 286.766L774.875 286.761C774.727 287.911 774.163 288.829 773.181 289.515C772.216 290.184 771.008 290.52 769.558 290.524ZM772.715 282.441L772.713 281.516C772.71 280.433 772.433 279.6 771.882 279.018C771.347 278.436 770.564 278.146 769.53 278.149C768.514 278.151 767.731 278.445 767.182 279.029C766.633 279.614 766.36 280.448 766.363 281.531L766.364 282.256L772.889 282.24L772.715 282.441ZM785.348 290.485C784.215 290.488 783.306 290.19 782.621 289.592C781.936 288.977 781.593 288.144 781.591 287.094L782.042 287.618L781.592 287.619L781.598 290.244L779.348 290.25L779.307 272L781.557 271.994L781.566 275.994L781.523 279.119L782.023 279.118L781.574 279.644C781.571 278.611 781.911 277.785 782.593 277.167C783.292 276.548 784.199 276.238 785.316 276.235C786.699 276.231 787.809 276.687 788.644 277.602C789.48 278.516 789.899 279.765 789.903 281.349L789.912 285.374C789.915 286.94 789.501 288.183 788.67 289.102C787.839 290.02 786.732 290.481 785.348 290.485ZM784.594 288.537C785.544 288.534 786.293 288.249 786.842 287.681C787.391 287.113 787.664 286.296 787.661 285.229L787.653 281.479C787.651 280.412 787.374 279.596 786.822 279.031C786.271 278.466 785.521 278.184 784.571 278.187C783.654 278.189 782.921 278.482 782.373 279.067C781.84 279.652 781.576 280.461 781.578 281.494L781.586 285.244C781.589 286.277 781.857 287.085 782.392 287.667C782.943 288.249 783.677 288.539 784.594 288.537ZM794.813 290.212L794.782 276.462L796.982 276.456L796.988 279.081L797.513 279.08L796.791 280.707C796.788 279.223 797.102 278.106 797.734 277.354C798.382 276.586 799.34 276.2 800.606 276.197C802.056 276.194 803.207 276.649 804.059 277.564C804.928 278.462 805.364 279.686 805.368 281.236L805.37 282.061L803.12 282.066L803.118 281.441C803.116 280.358 802.847 279.534 802.313 278.968C801.795 278.386 801.052 278.096 800.086 278.099C799.136 278.101 798.386 278.394 797.838 278.979C797.306 279.564 797.041 280.389 797.043 281.456L797.063 290.206L794.813 290.212ZM814.504 290.413C812.92 290.417 811.653 289.954 810.7 289.023C809.748 288.075 809.27 286.793 809.267 285.176L809.247 276.426L811.497 276.421L811.517 285.171C811.519 286.204 811.788 287.012 812.322 287.594C812.857 288.159 813.582 288.441 814.499 288.438C815.432 288.436 816.165 288.151 816.697 287.583C817.246 286.998 817.519 286.189 817.517 285.156L817.497 276.406L819.747 276.4L819.767 285.15C819.77 286.767 819.29 288.051 818.325 289.004C817.361 289.94 816.087 290.409 814.504 290.413ZM828.319 290.379C826.869 290.383 825.726 290.019 824.891 289.288C824.056 288.54 823.637 287.532 823.635 286.266C823.632 284.982 824.046 283.973 824.878 283.238C825.709 282.502 826.834 282.133 828.25 282.129L832.5 282.119L832.497 280.744C832.495 279.894 832.235 279.245 831.718 278.796C831.217 278.331 830.499 278.099 829.566 278.101C828.749 278.103 828.067 278.28 827.517 278.631C826.968 278.966 826.652 279.425 826.57 280.009L824.32 280.014C824.468 278.83 825.024 277.887 825.989 277.185C826.954 276.483 828.162 276.13 829.612 276.126C831.195 276.122 832.446 276.527 833.364 277.342C834.283 278.156 834.744 279.264 834.747 280.664L834.768 290.114L832.568 290.119L832.562 287.494L832.187 287.495L832.561 287.119C832.564 288.119 832.174 288.912 831.392 289.497C830.626 290.082 829.602 290.376 828.319 290.379ZM828.865 288.603C829.931 288.6 830.806 288.332 831.488 287.797C832.17 287.262 832.51 286.577 832.508 285.744L832.504 283.794L828.304 283.804C827.554 283.806 826.963 284.016 826.53 284.434C826.098 284.851 825.883 285.419 825.884 286.135C825.886 286.902 826.146 287.51 826.663 287.958C827.198 288.39 827.931 288.605 828.865 288.603ZM839.783 290.101L839.752 276.351L841.952 276.346L841.958 278.971L842.483 278.97L841.762 280.596C841.759 279.113 842.073 277.996 842.704 277.244C843.353 276.476 844.31 276.09 845.577 276.087C847.027 276.083 848.178 276.539 849.03 277.453C849.899 278.351 850.335 279.575 850.338 281.125L850.34 281.95L848.09 281.956L848.089 281.331C848.086 280.247 847.818 279.423 847.283 278.858C846.765 278.276 846.023 277.986 845.056 277.988C844.106 277.991 843.357 278.284 842.808 278.869C842.276 279.453 842.011 280.279 842.014 281.346L842.033 290.096L839.783 290.101ZM856.459 294.56L858.472 289.205L853.343 276.318L855.843 276.312L859.062 284.804C859.179 285.087 859.288 285.428 859.389 285.828C859.49 286.211 859.574 286.536 859.641 286.802C859.707 286.536 859.79 286.21 859.889 285.827C859.988 285.427 860.087 285.085 860.187 284.801L863.168 276.294L865.593 276.288L858.859 294.554L856.459 294.56Z" fill="white"/>
<path d="M777.385 240.714C774.985 240.72 772.901 240.325 771.132 239.529C769.364 238.7 767.994 237.537 767.024 236.039C766.054 234.542 765.567 232.793 765.563 230.793C765.558 228.593 766.17 226.708 767.4 225.138C768.63 223.569 770.46 222.231 772.891 221.125L778.485 218.561C779.684 217.992 780.615 217.223 781.28 216.254C781.978 215.286 782.325 214.202 782.323 213.002C782.319 211.635 781.867 210.553 780.965 209.755C780.063 208.924 778.846 208.51 777.312 208.514C775.779 208.518 774.547 208.937 773.615 209.773C772.717 210.609 772.27 211.71 772.273 213.076C772.275 214.243 772.628 215.309 773.33 216.274C774.032 217.239 774.967 217.986 776.135 218.517L781.691 221.053C784.327 222.213 786.23 223.592 787.4 225.189C788.57 226.753 789.158 228.602 789.162 230.735C789.169 233.802 788.108 236.238 785.979 238.043C783.883 239.815 781.018 240.705 777.385 240.714ZM777.373 235.364C779.106 235.36 780.472 234.906 781.47 234.004C782.501 233.068 783.015 231.85 783.012 230.35C783.009 229.183 782.657 228.084 781.954 227.053C781.252 225.988 780.283 225.173 779.049 224.61L773.093 221.874C770.823 220.813 769.087 219.551 767.884 218.087C766.714 216.59 766.127 214.808 766.122 212.741C766.118 210.875 766.564 209.224 767.461 207.788C768.358 206.353 769.638 205.233 771.303 204.429C773.001 203.625 775.001 203.22 777.301 203.214C779.601 203.208 781.568 203.604 783.203 204.4C784.872 205.195 786.158 206.309 787.061 207.74C787.997 209.171 788.468 210.82 788.472 212.687C788.477 214.787 787.897 216.571 786.734 218.041C785.571 219.51 783.857 220.781 781.592 221.854L775.599 224.668C774.4 225.205 773.452 225.99 772.754 227.025C772.056 228.06 771.709 229.161 771.712 230.328C771.715 231.828 772.218 233.043 773.22 233.974C774.255 234.905 775.64 235.368 777.373 235.364ZM799.334 226.56L799.321 220.76L815.32 220.721L815.334 226.521L799.334 226.56ZM830.745 240.083L841.506 223.056L841.206 222.857C840.541 223.892 839.643 224.678 838.511 225.214C837.379 225.75 836.113 226.02 834.713 226.023C832.78 226.028 831.079 225.565 829.61 224.636C828.174 223.706 827.055 222.409 826.251 220.744C825.447 219.079 825.043 217.13 825.038 214.897C825.032 212.497 825.528 210.429 826.524 208.693C827.553 206.924 828.984 205.554 830.815 204.583C832.646 203.578 834.778 203.073 837.211 203.067C839.711 203.061 841.879 203.572 843.715 204.601C845.55 205.596 846.97 207.01 847.974 208.841C849.012 210.671 849.533 212.82 849.539 215.287C849.543 216.987 849.263 218.804 848.701 220.739C848.139 222.64 847.326 224.425 846.263 226.095L837.695 240.066L830.745 240.083ZM837.302 221.267C839.136 221.262 840.618 220.675 841.748 219.506C842.879 218.303 843.442 216.718 843.438 214.752C843.433 212.852 842.863 211.32 841.727 210.156C840.591 208.959 839.107 208.362 837.273 208.367C835.44 208.371 833.958 208.975 832.827 210.178C831.697 211.347 831.133 212.882 831.138 214.782C831.142 216.749 831.712 218.33 832.848 219.528C833.984 220.692 835.469 221.271 837.302 221.267Z" fill="white"/>
<rect x="0.501124" y="0.498771" width="159.64" height="159.64" transform="matrix(0.999997 -0.00245513 0.00225055 0.999997 725.999 164.396)" stroke="#44BE4F"/>
<path d="M960.12 188.3C958.68 188.3 957.44 188.06 956.4 187.58C955.38 187.1 954.59 186.41 954.03 185.51C953.47 184.61 953.18 183.54 953.16 182.3H955.86C955.86 183.4 956.23 184.27 956.97 184.91C957.73 185.55 958.78 185.87 960.12 185.87C961.38 185.87 962.36 185.56 963.06 184.94C963.78 184.32 964.14 183.46 964.14 182.36C964.14 181.48 963.9 180.71 963.42 180.05C962.96 179.39 962.29 178.93 961.41 178.67L958.44 177.74C956.94 177.28 955.78 176.51 954.96 175.43C954.16 174.35 953.76 173.08 953.76 171.62C953.76 170.44 954.02 169.42 954.54 168.56C955.08 167.68 955.83 167 956.79 166.52C957.75 166.02 958.88 165.77 960.18 165.77C962.1 165.77 963.64 166.31 964.8 167.39C965.96 168.45 966.55 169.87 966.57 171.65H963.87C963.87 170.57 963.54 169.73 962.88 169.13C962.24 168.51 961.33 168.2 960.15 168.2C958.99 168.2 958.08 168.48 957.42 169.04C956.78 169.6 956.46 170.38 956.46 171.38C956.46 172.28 956.7 173.06 957.18 173.72C957.66 174.38 958.35 174.85 959.25 175.13L962.25 176.09C963.71 176.55 964.84 177.33 965.64 178.43C966.44 179.53 966.84 180.82 966.84 182.3C966.84 183.5 966.56 184.55 966 185.45C965.44 186.35 964.65 187.05 963.63 187.55C962.63 188.05 961.46 188.3 960.12 188.3ZM971.538 188V185.54H977.388V173.96H972.288V171.5H980.088V185.54H985.638V188H971.538ZM978.438 168.53C977.778 168.53 977.258 168.36 976.878 168.02C976.498 167.68 976.308 167.22 976.308 166.64C976.308 166.04 976.498 165.57 976.878 165.23C977.258 164.87 977.778 164.69 978.438 164.69C979.098 164.69 979.618 164.87 979.998 165.23C980.378 165.57 980.568 166.04 980.568 166.64C980.568 167.22 980.378 167.68 979.998 168.02C979.618 168.36 979.098 168.53 978.438 168.53ZM990.307 188V171.5H992.947V174.65H993.577L992.707 176.6C992.707 174.82 993.087 173.48 993.847 172.58C994.627 171.66 995.777 171.2 997.297 171.2C999.037 171.2 1000.42 171.75 1001.44 172.85C1002.48 173.93 1003 175.4 1003 177.26V178.25H1000.3V177.5C1000.3 176.2 999.977 175.21 999.337 174.53C998.717 173.83 997.827 173.48 996.667 173.48C995.527 173.48 994.627 173.83 993.967 174.53C993.327 175.23 993.007 176.22 993.007 177.5V188H990.307ZM1026.22 188L1023.7 166.1H1026.28L1027.93 182.3C1027.97 182.74 1028.01 183.2 1028.05 183.68C1028.09 184.14 1028.12 184.58 1028.14 185C1028.18 185.42 1028.2 185.77 1028.2 186.05C1028.24 185.77 1028.27 185.42 1028.29 185C1028.33 184.58 1028.37 184.14 1028.41 183.68C1028.47 183.2 1028.53 182.74 1028.59 182.3L1030.63 166.1H1033.42L1035.28 182.3C1035.34 182.74 1035.39 183.2 1035.43 183.68C1035.49 184.14 1035.54 184.58 1035.58 185C1035.64 185.42 1035.68 185.77 1035.7 186.05C1035.72 185.77 1035.74 185.42 1035.76 185C1035.8 184.58 1035.84 184.14 1035.88 183.68C1035.94 183.2 1035.99 182.74 1036.03 182.3L1037.74 166.1H1040.2L1037.62 188H1034.23L1032.37 171.5C1032.33 171.04 1032.28 170.59 1032.22 170.15C1032.18 169.71 1032.14 169.3 1032.1 168.92C1032.06 168.54 1032.03 168.23 1032.01 167.99C1031.99 168.23 1031.95 168.54 1031.89 168.92C1031.85 169.3 1031.81 169.71 1031.77 170.15C1031.73 170.59 1031.68 171.04 1031.62 171.5L1029.61 188H1026.22ZM1043.49 188V185.54H1049.34V173.96H1044.24V171.5H1052.04V185.54H1057.59V188H1043.49ZM1050.39 168.53C1049.73 168.53 1049.21 168.36 1048.83 168.02C1048.45 167.68 1048.26 167.22 1048.26 166.64C1048.26 166.04 1048.45 165.57 1048.83 165.23C1049.21 164.87 1049.73 164.69 1050.39 164.69C1051.05 164.69 1051.57 164.87 1051.95 165.23C1052.33 165.57 1052.52 166.04 1052.52 166.64C1052.52 167.22 1052.33 167.68 1051.95 168.02C1051.57 168.36 1051.05 168.53 1050.39 168.53ZM1070.18 188C1069.22 188 1068.38 187.81 1067.66 187.43C1066.94 187.05 1066.38 186.51 1065.98 185.81C1065.58 185.11 1065.38 184.29 1065.38 183.35V168.56H1059.83V166.1H1068.08V183.35C1068.08 184.03 1068.27 184.57 1068.65 184.97C1069.03 185.35 1069.54 185.54 1070.18 185.54H1075.43V188H1070.18ZM1088.17 188C1087.21 188 1086.37 187.81 1085.65 187.43C1084.93 187.05 1084.37 186.51 1083.97 185.81C1083.57 185.11 1083.37 184.29 1083.37 183.35V168.56H1077.82V166.1H1086.07V183.35C1086.07 184.03 1086.26 184.57 1086.64 184.97C1087.02 185.35 1087.53 185.54 1088.17 185.54H1093.42V188H1088.17ZM1097.46 188V185.54H1103.31V173.96H1098.21V171.5H1106.01V185.54H1111.56V188H1097.46ZM1104.36 168.53C1103.7 168.53 1103.18 168.36 1102.8 168.02C1102.42 167.68 1102.23 167.22 1102.23 166.64C1102.23 166.04 1102.42 165.57 1102.8 165.23C1103.18 164.87 1103.7 164.69 1104.36 164.69C1105.02 164.69 1105.54 164.87 1105.92 165.23C1106.3 165.57 1106.49 166.04 1106.49 166.64C1106.49 167.22 1106.3 167.68 1105.92 168.02C1105.54 168.36 1105.02 168.53 1104.36 168.53ZM1120.45 188.3C1118.71 188.3 1117.34 187.86 1116.34 186.98C1115.34 186.08 1114.84 184.87 1114.84 183.35C1114.84 181.81 1115.34 180.6 1116.34 179.72C1117.34 178.84 1118.69 178.4 1120.39 178.4H1125.49V176.75C1125.49 175.73 1125.18 174.95 1124.56 174.41C1123.96 173.85 1123.1 173.57 1121.98 173.57C1121 173.57 1120.18 173.78 1119.52 174.2C1118.86 174.6 1118.48 175.15 1118.38 175.85H1115.68C1115.86 174.43 1116.53 173.3 1117.69 172.46C1118.85 171.62 1120.3 171.2 1122.04 171.2C1123.94 171.2 1125.44 171.69 1126.54 172.67C1127.64 173.65 1128.19 174.98 1128.19 176.66V188H1125.55V184.85H1125.1L1125.55 184.4C1125.55 185.6 1125.08 186.55 1124.14 187.25C1123.22 187.95 1121.99 188.3 1120.45 188.3ZM1121.11 186.17C1122.39 186.17 1123.44 185.85 1124.26 185.21C1125.08 184.57 1125.49 183.75 1125.49 182.75V180.41H1120.45C1119.55 180.41 1118.84 180.66 1118.32 181.16C1117.8 181.66 1117.54 182.34 1117.54 183.2C1117.54 184.12 1117.85 184.85 1118.47 185.39C1119.11 185.91 1119.99 186.17 1121.11 186.17ZM1132.86 188V171.5H1135.23V173.48H1135.77L1135.35 174.2C1135.35 173.28 1135.59 172.55 1136.07 172.01C1136.57 171.47 1137.24 171.2 1138.08 171.2C1139 171.2 1139.71 171.54 1140.21 172.22C1140.71 172.9 1140.96 173.86 1140.96 175.1L1140.15 173.48H1141.41L1140.84 174.2C1140.84 173.28 1141.09 172.55 1141.59 172.01C1142.11 171.47 1142.79 171.2 1143.63 171.2C1144.67 171.2 1145.47 171.59 1146.03 172.37C1146.61 173.15 1146.9 174.18 1146.9 175.46V188H1144.41V175.43C1144.41 174.75 1144.26 174.22 1143.96 173.84C1143.68 173.46 1143.26 173.27 1142.7 173.27C1142.16 173.27 1141.73 173.46 1141.41 173.84C1141.11 174.2 1140.96 174.72 1140.96 175.4V188H1138.8V175.43C1138.8 174.73 1138.64 174.2 1138.32 173.84C1138.02 173.46 1137.59 173.27 1137.03 173.27C1136.47 173.27 1136.05 173.46 1135.77 173.84C1135.49 174.2 1135.35 174.72 1135.35 175.4V188H1132.86ZM1169.65 188V166.1H1172.35V175.46H1179.37V166.1H1182.07V188H1179.37V177.92H1172.35V188H1169.65ZM1193.85 188.3C1192.55 188.3 1191.41 188.04 1190.43 187.52C1189.47 187 1188.72 186.27 1188.18 185.33C1187.66 184.37 1187.4 183.26 1187.4 182V177.5C1187.4 176.22 1187.66 175.11 1188.18 174.17C1188.72 173.23 1189.47 172.5 1190.43 171.98C1191.41 171.46 1192.55 171.2 1193.85 171.2C1195.15 171.2 1196.28 171.46 1197.24 171.98C1198.22 172.5 1198.97 173.23 1199.49 174.17C1200.03 175.11 1200.3 176.22 1200.3 177.5V180.41H1190.04V182C1190.04 183.3 1190.37 184.3 1191.03 185C1191.69 185.68 1192.63 186.02 1193.85 186.02C1194.89 186.02 1195.73 185.84 1196.37 185.48C1197.01 185.1 1197.4 184.54 1197.54 183.8H1200.24C1200.06 185.18 1199.38 186.28 1198.2 187.1C1197.04 187.9 1195.59 188.3 1193.85 188.3ZM1197.66 178.61V177.5C1197.66 176.2 1197.33 175.2 1196.67 174.5C1196.03 173.8 1195.09 173.45 1193.85 173.45C1192.63 173.45 1191.69 173.8 1191.03 174.5C1190.37 175.2 1190.04 176.2 1190.04 177.5V178.37H1197.87L1197.66 178.61ZM1205.6 188V171.5H1208.3V174.65H1208.87L1208.3 175.28C1208.3 173.98 1208.69 172.98 1209.47 172.28C1210.25 171.56 1211.33 171.2 1212.71 171.2C1214.37 171.2 1215.69 171.71 1216.67 172.73C1217.65 173.75 1218.14 175.14 1218.14 176.9V188H1215.44V177.2C1215.44 176.02 1215.12 175.12 1214.48 174.5C1213.86 173.86 1213.01 173.54 1211.93 173.54C1210.81 173.54 1209.92 173.88 1209.26 174.56C1208.62 175.24 1208.3 176.22 1208.3 177.5V188H1205.6ZM1224.15 188V171.5H1226.79V174.65H1227.42L1226.55 176.6C1226.55 174.82 1226.93 173.48 1227.69 172.58C1228.47 171.66 1229.62 171.2 1231.14 171.2C1232.88 171.2 1234.26 171.75 1235.28 172.85C1236.32 173.93 1236.84 175.4 1236.84 177.26V178.25H1234.14V177.5C1234.14 176.2 1233.82 175.21 1233.18 174.53C1232.56 173.83 1231.67 173.48 1230.51 173.48C1229.37 173.48 1228.47 173.83 1227.81 174.53C1227.17 175.23 1226.85 176.22 1226.85 177.5V188H1224.15ZM1244.15 193.4L1246.58 186.98L1240.46 171.5H1243.46L1247.3 181.7C1247.44 182.04 1247.57 182.45 1247.69 182.93C1247.81 183.39 1247.91 183.78 1247.99 184.1C1248.07 183.78 1248.17 183.39 1248.29 182.93C1248.41 182.45 1248.53 182.04 1248.65 181.7L1252.25 171.5H1255.16L1247.03 193.4H1244.15ZM953.79 228V206.1H960C962 206.1 963.56 206.6 964.68 207.6C965.82 208.6 966.39 209.99 966.39 211.77C966.39 212.77 966.18 213.64 965.76 214.38C965.34 215.12 964.74 215.69 963.96 216.09C963.2 216.49 962.28 216.68 961.2 216.66V216.21C962.36 216.19 963.36 216.41 964.2 216.87C965.06 217.33 965.72 217.99 966.18 218.85C966.66 219.71 966.9 220.73 966.9 221.91C966.9 223.15 966.64 224.23 966.12 225.15C965.6 226.07 964.86 226.78 963.9 227.28C962.94 227.76 961.79 228 960.45 228H953.79ZM956.43 225.57H960.15C961.41 225.57 962.4 225.24 963.12 224.58C963.86 223.9 964.23 222.98 964.23 221.82C964.23 220.62 963.86 219.65 963.12 218.91C962.4 218.15 961.41 217.77 960.15 217.77H956.43V225.57ZM956.43 215.43H959.97C961.13 215.43 962.04 215.12 962.7 214.5C963.38 213.88 963.72 213.04 963.72 211.98C963.72 210.92 963.39 210.08 962.73 209.46C962.07 208.84 961.16 208.53 960 208.53H956.43V215.43ZM972.318 228V211.5H974.958V214.65H975.588L974.718 216.6C974.718 214.82 975.098 213.48 975.858 212.58C976.638 211.66 977.788 211.2 979.308 211.2C981.048 211.2 982.428 211.75 983.448 212.85C984.488 213.93 985.008 215.4 985.008 217.26V218.25H982.308V217.5C982.308 216.2 981.988 215.21 981.348 214.53C980.728 213.83 979.838 213.48 978.678 213.48C977.538 213.48 976.638 213.83 975.978 214.53C975.338 215.23 975.018 216.22 975.018 217.5V228H972.318ZM994.537 228.3C992.797 228.3 991.427 227.86 990.427 226.98C989.427 226.08 988.927 224.87 988.927 223.35C988.927 221.81 989.427 220.6 990.427 219.72C991.427 218.84 992.777 218.4 994.477 218.4H999.577V216.75C999.577 215.73 999.267 214.95 998.647 214.41C998.047 213.85 997.187 213.57 996.067 213.57C995.087 213.57 994.267 213.78 993.607 214.2C992.947 214.6 992.567 215.15 992.467 215.85H989.767C989.947 214.43 990.617 213.3 991.777 212.46C992.937 211.62 994.387 211.2 996.127 211.2C998.027 211.2 999.527 211.69 1000.63 212.67C1001.73 213.65 1002.28 214.98 1002.28 216.66V228H999.637V224.85H999.187L999.637 224.4C999.637 225.6 999.167 226.55 998.227 227.25C997.307 227.95 996.077 228.3 994.537 228.3ZM995.197 226.17C996.477 226.17 997.527 225.85 998.347 225.21C999.167 224.57 999.577 223.75 999.577 222.75V220.41H994.537C993.637 220.41 992.927 220.66 992.407 221.16C991.887 221.66 991.627 222.34 991.627 223.2C991.627 224.12 991.937 224.85 992.557 225.39C993.197 225.91 994.077 226.17 995.197 226.17ZM1009.79 233.4V230.94H1015.04C1015.88 230.94 1016.49 230.75 1016.87 230.37C1017.27 229.99 1017.47 229.4 1017.47 228.6V226.5L1017.53 223.5H1016.99L1017.5 223.05C1017.5 224.25 1017.1 225.2 1016.3 225.9C1015.5 226.6 1014.43 226.95 1013.09 226.95C1011.39 226.95 1010.05 226.4 1009.07 225.3C1008.09 224.18 1007.6 222.68 1007.6 220.8V217.32C1007.6 215.44 1008.09 213.95 1009.07 212.85C1010.05 211.75 1011.39 211.2 1013.09 211.2C1014.43 211.2 1015.5 211.55 1016.3 212.25C1017.1 212.95 1017.5 213.9 1017.5 215.1L1016.99 214.65H1017.5V211.5H1020.17V228.6C1020.17 230.08 1019.71 231.25 1018.79 232.11C1017.89 232.97 1016.63 233.4 1015.01 233.4H1009.79ZM1013.9 224.61C1015.02 224.61 1015.9 224.26 1016.54 223.56C1017.18 222.86 1017.5 221.89 1017.5 220.65V217.5C1017.5 216.26 1017.18 215.29 1016.54 214.59C1015.9 213.89 1015.02 213.54 1013.9 213.54C1012.76 213.54 1011.87 213.88 1011.23 214.56C1010.61 215.24 1010.3 216.22 1010.3 217.5V220.65C1010.3 221.93 1010.61 222.91 1011.23 223.59C1011.87 224.27 1012.76 224.61 1013.9 224.61ZM1027.78 233.4V230.94H1033.03C1033.87 230.94 1034.48 230.75 1034.86 230.37C1035.26 229.99 1035.46 229.4 1035.46 228.6V226.5L1035.52 223.5H1034.98L1035.49 223.05C1035.49 224.25 1035.09 225.2 1034.29 225.9C1033.49 226.6 1032.42 226.95 1031.08 226.95C1029.38 226.95 1028.04 226.4 1027.06 225.3C1026.08 224.18 1025.59 222.68 1025.59 220.8V217.32C1025.59 215.44 1026.08 213.95 1027.06 212.85C1028.04 211.75 1029.38 211.2 1031.08 211.2C1032.42 211.2 1033.49 211.55 1034.29 212.25C1035.09 212.95 1035.49 213.9 1035.49 215.1L1034.98 214.65H1035.49V211.5H1038.16V228.6C1038.16 230.08 1037.7 231.25 1036.78 232.11C1035.88 232.97 1034.62 233.4 1033 233.4H1027.78ZM1031.89 224.61C1033.01 224.61 1033.89 224.26 1034.53 223.56C1035.17 222.86 1035.49 221.89 1035.49 220.65V217.5C1035.49 216.26 1035.17 215.29 1034.53 214.59C1033.89 213.89 1033.01 213.54 1031.89 213.54C1030.75 213.54 1029.86 213.88 1029.22 214.56C1028.6 215.24 1028.29 216.22 1028.29 217.5V220.65C1028.29 221.93 1028.6 222.91 1029.22 223.59C1029.86 224.27 1030.75 224.61 1031.89 224.61ZM1061.72 228V206.1H1067.93C1069.93 206.1 1071.49 206.6 1072.61 207.6C1073.75 208.6 1074.32 209.99 1074.32 211.77C1074.32 212.77 1074.11 213.64 1073.69 214.38C1073.27 215.12 1072.67 215.69 1071.89 216.09C1071.13 216.49 1070.21 216.68 1069.13 216.66V216.21C1070.29 216.19 1071.29 216.41 1072.13 216.87C1072.99 217.33 1073.65 217.99 1074.11 218.85C1074.59 219.71 1074.83 220.73 1074.83 221.91C1074.83 223.15 1074.57 224.23 1074.05 225.15C1073.53 226.07 1072.79 226.78 1071.83 227.28C1070.87 227.76 1069.72 228 1068.38 228H1061.72ZM1064.36 225.57H1068.08C1069.34 225.57 1070.33 225.24 1071.05 224.58C1071.79 223.9 1072.16 222.98 1072.16 221.82C1072.16 220.62 1071.79 219.65 1071.05 218.91C1070.33 218.15 1069.34 217.77 1068.08 217.77H1064.36V225.57ZM1064.36 215.43H1067.9C1069.06 215.43 1069.97 215.12 1070.63 214.5C1071.31 213.88 1071.65 213.04 1071.65 211.98C1071.65 210.92 1071.32 210.08 1070.66 209.46C1070 208.84 1069.09 208.53 1067.93 208.53H1064.36V215.43ZM1085.89 228.3C1083.99 228.3 1082.47 227.74 1081.33 226.62C1080.19 225.48 1079.62 223.94 1079.62 222V211.5H1082.32V222C1082.32 223.24 1082.64 224.21 1083.28 224.91C1083.92 225.59 1084.79 225.93 1085.89 225.93C1087.01 225.93 1087.89 225.59 1088.53 224.91C1089.19 224.21 1089.52 223.24 1089.52 222V211.5H1092.22V222C1092.22 223.94 1091.64 225.48 1090.48 226.62C1089.32 227.74 1087.79 228.3 1085.89 228.3ZM1097.46 228V225.54H1103.31V213.96H1098.21V211.5H1106.01V225.54H1111.56V228H1097.46ZM1104.36 208.53C1103.7 208.53 1103.18 208.36 1102.8 208.02C1102.42 207.68 1102.23 207.22 1102.23 206.64C1102.23 206.04 1102.42 205.57 1102.8 205.23C1103.18 204.87 1103.7 204.69 1104.36 204.69C1105.02 204.69 1105.54 204.87 1105.92 205.23C1106.3 205.57 1106.49 206.04 1106.49 206.64C1106.49 207.22 1106.3 207.68 1105.92 208.02C1105.54 208.36 1105.02 208.53 1104.36 208.53ZM1124.14 228C1123.18 228 1122.34 227.81 1121.62 227.43C1120.9 227.05 1120.34 226.51 1119.94 225.81C1119.54 225.11 1119.34 224.29 1119.34 223.35V208.56H1113.79V206.1H1122.04V223.35C1122.04 224.03 1122.23 224.57 1122.61 224.97C1122.99 225.35 1123.5 225.54 1124.14 225.54H1129.39V228H1124.14ZM1138.92 228.3C1137.28 228.3 1135.95 227.75 1134.93 226.65C1133.93 225.55 1133.43 224.06 1133.43 222.18V217.35C1133.43 215.45 1133.93 213.95 1134.93 212.85C1135.93 211.75 1137.26 211.2 1138.92 211.2C1140.28 211.2 1141.37 211.57 1142.19 212.31C1143.01 213.05 1143.42 214.04 1143.42 215.28L1142.88 214.65H1143.48L1143.42 210.9V206.1H1146.12V228H1143.42V224.85H1142.88L1143.42 224.22C1143.42 225.48 1143.01 226.48 1142.19 227.22C1141.37 227.94 1140.28 228.3 1138.92 228.3ZM1139.82 225.96C1140.94 225.96 1141.82 225.61 1142.46 224.91C1143.1 224.21 1143.42 223.24 1143.42 222V217.5C1143.42 216.26 1143.1 215.29 1142.46 214.59C1141.82 213.89 1140.94 213.54 1139.82 213.54C1138.68 213.54 1137.78 213.88 1137.12 214.56C1136.46 215.24 1136.13 216.22 1136.13 217.5V222C1136.13 223.28 1136.46 224.26 1137.12 224.94C1137.78 225.62 1138.68 225.96 1139.82 225.96ZM1151.42 228V225.54H1157.27V213.96H1152.17V211.5H1159.97V225.54H1165.52V228H1151.42ZM1158.32 208.53C1157.66 208.53 1157.14 208.36 1156.76 208.02C1156.38 207.68 1156.19 207.22 1156.19 206.64C1156.19 206.04 1156.38 205.57 1156.76 205.23C1157.14 204.87 1157.66 204.69 1158.32 204.69C1158.98 204.69 1159.5 204.87 1159.88 205.23C1160.26 205.57 1160.45 206.04 1160.45 206.64C1160.45 207.22 1160.26 207.68 1159.88 208.02C1159.5 208.36 1158.98 208.53 1158.32 208.53ZM1169.62 228V211.5H1172.32V214.65H1172.89L1172.32 215.28C1172.32 213.98 1172.71 212.98 1173.49 212.28C1174.27 211.56 1175.35 211.2 1176.73 211.2C1178.39 211.2 1179.71 211.71 1180.69 212.73C1181.67 213.75 1182.16 215.14 1182.16 216.9V228H1179.46V217.2C1179.46 216.02 1179.14 215.12 1178.5 214.5C1177.88 213.86 1177.03 213.54 1175.95 213.54C1174.83 213.54 1173.94 213.88 1173.28 214.56C1172.64 215.24 1172.32 216.22 1172.32 217.5V228H1169.62ZM1189.68 233.4V230.94H1194.93C1195.77 230.94 1196.38 230.75 1196.76 230.37C1197.16 229.99 1197.36 229.4 1197.36 228.6V226.5L1197.42 223.5H1196.88L1197.39 223.05C1197.39 224.25 1196.99 225.2 1196.19 225.9C1195.39 226.6 1194.32 226.95 1192.98 226.95C1191.28 226.95 1189.94 226.4 1188.96 225.3C1187.98 224.18 1187.49 222.68 1187.49 220.8V217.32C1187.49 215.44 1187.98 213.95 1188.96 212.85C1189.94 211.75 1191.28 211.2 1192.98 211.2C1194.32 211.2 1195.39 211.55 1196.19 212.25C1196.99 212.95 1197.39 213.9 1197.39 215.1L1196.88 214.65H1197.39V211.5H1200.06V228.6C1200.06 230.08 1199.6 231.25 1198.68 232.11C1197.78 232.97 1196.52 233.4 1194.9 233.4H1189.68ZM1193.79 224.61C1194.91 224.61 1195.79 224.26 1196.43 223.56C1197.07 222.86 1197.39 221.89 1197.39 220.65V217.5C1197.39 216.26 1197.07 215.29 1196.43 214.59C1195.79 213.89 1194.91 213.54 1193.79 213.54C1192.65 213.54 1191.76 213.88 1191.12 214.56C1190.5 215.24 1190.19 216.22 1190.19 217.5V220.65C1190.19 221.93 1190.5 222.91 1191.12 223.59C1191.76 224.27 1192.65 224.61 1193.79 224.61ZM1207.79 232.8L1210.19 223.47H1214.09L1210.19 232.8H1207.79ZM960 268.3C957.96 268.3 956.4 267.74 955.32 266.62C954.24 265.48 953.7 263.94 953.7 262V246.1H956.4V262C956.4 263.2 956.69 264.15 957.27 264.85C957.87 265.55 958.78 265.9 960 265.9C961.2 265.9 962.1 265.55 962.7 264.85C963.3 264.15 963.6 263.2 963.6 262V246.1H966.3V262C966.3 263.96 965.76 265.5 964.68 266.62C963.62 267.74 962.06 268.3 960 268.3ZM971.748 268V251.5H974.448V254.65H975.018L974.448 255.28C974.448 253.98 974.838 252.98 975.618 252.28C976.398 251.56 977.478 251.2 978.858 251.2C980.518 251.2 981.838 251.71 982.818 252.73C983.798 253.75 984.288 255.14 984.288 256.9V268H981.588V257.2C981.588 256.02 981.268 255.12 980.628 254.5C980.008 253.86 979.158 253.54 978.078 253.54C976.958 253.54 976.068 253.88 975.408 254.56C974.768 255.24 974.448 256.22 974.448 257.5V268H971.748ZM989.527 268V265.54H995.377V253.96H990.277V251.5H998.077V265.54H1003.63V268H989.527ZM996.427 248.53C995.767 248.53 995.247 248.36 994.867 248.02C994.487 247.68 994.297 247.22 994.297 246.64C994.297 246.04 994.487 245.57 994.867 245.23C995.247 244.87 995.767 244.69 996.427 244.69C997.087 244.69 997.607 244.87 997.987 245.23C998.367 245.57 998.557 246.04 998.557 246.64C998.557 247.22 998.367 247.68 997.987 248.02C997.607 248.36 997.087 248.53 996.427 248.53ZM1012.13 268L1006.61 251.5H1009.37L1013.03 262.6C1013.25 263.26 1013.45 263.9 1013.63 264.52C1013.81 265.12 1013.94 265.59 1014.02 265.93C1014.12 265.59 1014.26 265.12 1014.44 264.52C1014.62 263.9 1014.81 263.26 1015.01 262.6L1018.58 251.5H1021.31L1015.79 268H1012.13ZM1031.95 268.3C1030.65 268.3 1029.51 268.04 1028.53 267.52C1027.57 267 1026.82 266.27 1026.28 265.33C1025.76 264.37 1025.5 263.26 1025.5 262V257.5C1025.5 256.22 1025.76 255.11 1026.28 254.17C1026.82 253.23 1027.57 252.5 1028.53 251.98C1029.51 251.46 1030.65 251.2 1031.95 251.2C1033.25 251.2 1034.38 251.46 1035.34 251.98C1036.32 252.5 1037.07 253.23 1037.59 254.17C1038.13 255.11 1038.4 256.22 1038.4 257.5V260.41H1028.14V262C1028.14 263.3 1028.47 264.3 1029.13 265C1029.79 265.68 1030.73 266.02 1031.95 266.02C1032.99 266.02 1033.83 265.84 1034.47 265.48C1035.11 265.1 1035.5 264.54 1035.64 263.8H1038.34C1038.16 265.18 1037.48 266.28 1036.3 267.1C1035.14 267.9 1033.69 268.3 1031.95 268.3ZM1035.76 258.61V257.5C1035.76 256.2 1035.43 255.2 1034.77 254.5C1034.13 253.8 1033.19 253.45 1031.95 253.45C1030.73 253.45 1029.79 253.8 1029.13 254.5C1028.47 255.2 1028.14 256.2 1028.14 257.5V258.37H1035.97L1035.76 258.61ZM1044.27 268V251.5H1046.91V254.65H1047.54L1046.67 256.6C1046.67 254.82 1047.05 253.48 1047.81 252.58C1048.59 251.66 1049.74 251.2 1051.26 251.2C1053 251.2 1054.38 251.75 1055.4 252.85C1056.44 253.93 1056.96 255.4 1056.96 257.26V258.25H1054.26V257.5C1054.26 256.2 1053.94 255.21 1053.3 254.53C1052.68 253.83 1051.79 253.48 1050.63 253.48C1049.49 253.48 1048.59 253.83 1047.93 254.53C1047.29 255.23 1046.97 256.22 1046.97 257.5V268H1044.27ZM1067.42 268.24C1066.3 268.24 1065.32 268.07 1064.48 267.73C1063.66 267.37 1063 266.87 1062.5 266.23C1062.02 265.59 1061.73 264.83 1061.63 263.95H1064.33C1064.45 264.53 1064.77 264.99 1065.29 265.33C1065.83 265.67 1066.54 265.84 1067.42 265.84H1068.68C1069.74 265.84 1070.53 265.63 1071.05 265.21C1071.57 264.77 1071.83 264.19 1071.83 263.47C1071.83 262.77 1071.59 262.22 1071.11 261.82C1070.65 261.4 1069.96 261.12 1069.04 260.98L1066.82 260.62C1065.2 260.34 1063.99 259.84 1063.19 259.12C1062.41 258.38 1062.02 257.31 1062.02 255.91C1062.02 254.43 1062.49 253.29 1063.43 252.49C1064.37 251.67 1065.78 251.26 1067.66 251.26H1068.8C1070.38 251.26 1071.65 251.63 1072.61 252.37C1073.57 253.11 1074.15 254.11 1074.35 255.37H1071.65C1071.53 254.85 1071.23 254.44 1070.75 254.14C1070.27 253.82 1069.62 253.66 1068.8 253.66H1067.66C1066.64 253.66 1065.89 253.85 1065.41 254.23C1064.95 254.61 1064.72 255.18 1064.72 255.94C1064.72 256.62 1064.92 257.12 1065.32 257.44C1065.72 257.76 1066.35 257.99 1067.21 258.13L1069.43 258.49C1071.21 258.77 1072.5 259.29 1073.3 260.05C1074.12 260.81 1074.53 261.91 1074.53 263.35C1074.53 264.87 1074.04 266.07 1073.06 266.95C1072.1 267.81 1070.64 268.24 1068.68 268.24H1067.42ZM1079.47 268V265.54H1085.32V253.96H1080.22V251.5H1088.02V265.54H1093.57V268H1079.47ZM1086.37 248.53C1085.71 248.53 1085.19 248.36 1084.81 248.02C1084.43 247.68 1084.24 247.22 1084.24 246.64C1084.24 246.04 1084.43 245.57 1084.81 245.23C1085.19 244.87 1085.71 244.69 1086.37 244.69C1087.03 244.69 1087.55 244.87 1087.93 245.23C1088.31 245.57 1088.5 246.04 1088.5 246.64C1088.5 247.22 1088.31 247.68 1087.93 248.02C1087.55 248.36 1087.03 248.53 1086.37 248.53ZM1105.71 268C1104.29 268 1103.18 267.62 1102.38 266.86C1101.6 266.1 1101.21 265.03 1101.21 263.65V253.96H1096.56V251.5H1101.21V246.85H1103.91V251.5H1110.51V253.96H1103.91V263.65C1103.91 264.91 1104.51 265.54 1105.71 265.54H1110.21V268H1105.71ZM1118.23 273.4L1120.66 266.98L1114.54 251.5H1117.54L1121.38 261.7C1121.52 262.04 1121.65 262.45 1121.77 262.93C1121.89 263.39 1121.99 263.78 1122.07 264.1C1122.15 263.78 1122.25 263.39 1122.37 262.93C1122.49 262.45 1122.61 262.04 1122.73 261.7L1126.33 251.5H1129.24L1121.11 273.4H1118.23ZM1157.87 268.24C1156.55 268.24 1155.41 267.99 1154.45 267.49C1153.49 266.99 1152.74 266.27 1152.2 265.33C1151.68 264.37 1151.42 263.24 1151.42 261.94V257.56C1151.42 256.24 1151.68 255.11 1152.2 254.17C1152.74 253.23 1153.49 252.51 1154.45 252.01C1155.41 251.51 1156.55 251.26 1157.87 251.26C1159.19 251.26 1160.33 251.51 1161.29 252.01C1162.25 252.51 1162.99 253.23 1163.51 254.17C1164.05 255.11 1164.32 256.23 1164.32 257.53V261.94C1164.32 263.24 1164.05 264.37 1163.51 265.33C1162.99 266.27 1162.25 266.99 1161.29 267.49C1160.33 267.99 1159.19 268.24 1157.87 268.24ZM1157.87 265.84C1159.05 265.84 1159.97 265.51 1160.63 264.85C1161.29 264.19 1161.62 263.22 1161.62 261.94V257.56C1161.62 256.28 1161.29 255.31 1160.63 254.65C1159.97 253.99 1159.05 253.66 1157.87 253.66C1156.71 253.66 1155.79 253.99 1155.11 254.65C1154.45 255.31 1154.12 256.28 1154.12 257.56V261.94C1154.12 263.22 1154.45 264.19 1155.11 264.85C1155.79 265.51 1156.71 265.84 1157.87 265.84ZM1173.46 268V255.61H1168.66V253.15H1173.46V250.3C1173.46 249 1173.87 247.98 1174.69 247.24C1175.51 246.48 1176.64 246.1 1178.08 246.1H1182.91V248.56H1178.08C1177.46 248.56 1176.98 248.71 1176.64 249.01C1176.32 249.29 1176.16 249.72 1176.16 250.3V253.15H1182.91V255.61H1176.16V268H1173.46ZM954.45 308V286.1H957.15V305.54H967.05V308H954.45ZM977.988 308.3C976.688 308.3 975.548 308.04 974.568 307.52C973.608 307 972.858 306.27 972.318 305.33C971.798 304.37 971.538 303.26 971.538 302V297.5C971.538 296.22 971.798 295.11 972.318 294.17C972.858 293.23 973.608 292.5 974.568 291.98C975.548 291.46 976.688 291.2 977.988 291.2C979.288 291.2 980.418 291.46 981.378 291.98C982.358 292.5 983.108 293.23 983.628 294.17C984.168 295.11 984.438 296.22 984.438 297.5V300.41H974.178V302C974.178 303.3 974.508 304.3 975.168 305C975.828 305.68 976.768 306.02 977.988 306.02C979.028 306.02 979.868 305.84 980.508 305.48C981.148 305.1 981.538 304.54 981.678 303.8H984.378C984.198 305.18 983.518 306.28 982.338 307.1C981.178 307.9 979.728 308.3 977.988 308.3ZM981.798 298.61V297.5C981.798 296.2 981.468 295.2 980.808 294.5C980.168 293.8 979.228 293.45 977.988 293.45C976.768 293.45 975.828 293.8 975.168 294.5C974.508 295.2 974.178 296.2 974.178 297.5V298.37H982.008L981.798 298.61ZM995.977 308.3C994.677 308.3 993.537 308.04 992.557 307.52C991.597 307 990.847 306.27 990.307 305.33C989.787 304.37 989.527 303.26 989.527 302V297.5C989.527 296.22 989.787 295.11 990.307 294.17C990.847 293.23 991.597 292.5 992.557 291.98C993.537 291.46 994.677 291.2 995.977 291.2C997.277 291.2 998.407 291.46 999.367 291.98C1000.35 292.5 1001.1 293.23 1001.62 294.17C1002.16 295.11 1002.43 296.22 1002.43 297.5V300.41H992.167V302C992.167 303.3 992.497 304.3 993.157 305C993.817 305.68 994.757 306.02 995.977 306.02C997.017 306.02 997.857 305.84 998.497 305.48C999.137 305.1 999.527 304.54 999.667 303.8H1002.37C1002.19 305.18 1001.51 306.28 1000.33 307.1C999.167 307.9 997.717 308.3 995.977 308.3ZM999.787 298.61V297.5C999.787 296.2 999.457 295.2 998.797 294.5C998.157 293.8 997.217 293.45 995.977 293.45C994.757 293.45 993.817 293.8 993.157 294.5C992.497 295.2 992.167 296.2 992.167 297.5V298.37H999.997L999.787 298.61ZM1013 308.3C1011.36 308.3 1010.03 307.75 1009.01 306.65C1008.01 305.55 1007.51 304.06 1007.51 302.18V297.35C1007.51 295.45 1008.01 293.95 1009.01 292.85C1010.01 291.75 1011.34 291.2 1013 291.2C1014.36 291.2 1015.45 291.57 1016.27 292.31C1017.09 293.05 1017.5 294.04 1017.5 295.28L1016.96 294.65H1017.56L1017.5 290.9V286.1H1020.2V308H1017.5V304.85H1016.96L1017.5 304.22C1017.5 305.48 1017.09 306.48 1016.27 307.22C1015.45 307.94 1014.36 308.3 1013 308.3ZM1013.9 305.96C1015.02 305.96 1015.9 305.61 1016.54 304.91C1017.18 304.21 1017.5 303.24 1017.5 302V297.5C1017.5 296.26 1017.18 295.29 1016.54 294.59C1015.9 293.89 1015.02 293.54 1013.9 293.54C1012.76 293.54 1011.86 293.88 1011.2 294.56C1010.54 295.24 1010.21 296.22 1010.21 297.5V302C1010.21 303.28 1010.54 304.26 1011.2 304.94C1011.86 305.62 1012.76 305.96 1013.9 305.96ZM1031.44 308.24C1030.32 308.24 1029.34 308.07 1028.5 307.73C1027.68 307.37 1027.02 306.87 1026.52 306.23C1026.04 305.59 1025.75 304.83 1025.65 303.95H1028.35C1028.47 304.53 1028.79 304.99 1029.31 305.33C1029.85 305.67 1030.56 305.84 1031.44 305.84H1032.7C1033.76 305.84 1034.55 305.63 1035.07 305.21C1035.59 304.77 1035.85 304.19 1035.85 303.47C1035.85 302.77 1035.61 302.22 1035.13 301.82C1034.67 301.4 1033.98 301.12 1033.06 300.98L1030.84 300.62C1029.22 300.34 1028.01 299.84 1027.21 299.12C1026.43 298.38 1026.04 297.31 1026.04 295.91C1026.04 294.43 1026.51 293.29 1027.45 292.49C1028.39 291.67 1029.8 291.26 1031.68 291.26H1032.82C1034.4 291.26 1035.67 291.63 1036.63 292.37C1037.59 293.11 1038.17 294.11 1038.37 295.37H1035.67C1035.55 294.85 1035.25 294.44 1034.77 294.14C1034.29 293.82 1033.64 293.66 1032.82 293.66H1031.68C1030.66 293.66 1029.91 293.85 1029.43 294.23C1028.97 294.61 1028.74 295.18 1028.74 295.94C1028.74 296.62 1028.94 297.12 1029.34 297.44C1029.74 297.76 1030.37 297.99 1031.23 298.13L1033.45 298.49C1035.23 298.77 1036.52 299.29 1037.32 300.05C1038.14 300.81 1038.55 301.91 1038.55 303.35C1038.55 304.87 1038.06 306.07 1037.08 306.95C1036.12 307.81 1034.66 308.24 1032.7 308.24H1031.44Z" fill="white"/>
<path d="M727.27 56L724.75 34.1H727.33L728.98 50.3C729.02 50.74 729.06 51.2 729.1 51.68C729.14 52.14 729.17 52.58 729.19 53C729.23 53.42 729.25 53.77 729.25 54.05C729.29 53.77 729.32 53.42 729.34 53C729.38 52.58 729.42 52.14 729.46 51.68C729.52 51.2 729.58 50.74 729.64 50.3L731.68 34.1H734.47L736.33 50.3C736.39 50.74 736.44 51.2 736.48 51.68C736.54 52.14 736.59 52.58 736.63 53C736.69 53.42 736.73 53.77 736.75 54.05C736.77 53.77 736.79 53.42 736.81 53C736.85 52.58 736.89 52.14 736.93 51.68C736.99 51.2 737.04 50.74 737.08 50.3L738.79 34.1H741.25L738.67 56H735.28L733.42 39.5C733.38 39.04 733.33 38.59 733.27 38.15C733.23 37.71 733.19 37.3 733.15 36.92C733.11 36.54 733.08 36.23 733.06 35.99C733.04 36.23 733 36.54 732.94 36.92C732.9 37.3 732.86 37.71 732.82 38.15C732.78 38.59 732.73 39.04 732.67 39.5L730.66 56H727.27ZM750.988 56.3C749.688 56.3 748.548 56.04 747.568 55.52C746.608 55 745.858 54.27 745.318 53.33C744.798 52.37 744.538 51.26 744.538 50V45.5C744.538 44.22 744.798 43.11 745.318 42.17C745.858 41.23 746.608 40.5 747.568 39.98C748.548 39.46 749.688 39.2 750.988 39.2C752.288 39.2 753.418 39.46 754.378 39.98C755.358 40.5 756.108 41.23 756.628 42.17C757.168 43.11 757.438 44.22 757.438 45.5V48.41H747.178V50C747.178 51.3 747.508 52.3 748.168 53C748.828 53.68 749.768 54.02 750.988 54.02C752.028 54.02 752.868 53.84 753.508 53.48C754.148 53.1 754.538 52.54 754.678 51.8H757.378C757.198 53.18 756.518 54.28 755.338 55.1C754.178 55.9 752.728 56.3 750.988 56.3ZM754.798 46.61V45.5C754.798 44.2 754.468 43.2 753.808 42.5C753.168 41.8 752.228 41.45 750.988 41.45C749.768 41.45 748.828 41.8 748.168 42.5C747.508 43.2 747.178 44.2 747.178 45.5V46.37H755.008L754.798 46.61ZM764.777 42.05L767.177 32.72H771.077L767.177 42.05H764.777ZM781.295 56V39.5H783.935V42.65H784.565L783.695 44.6C783.695 42.82 784.075 41.48 784.835 40.58C785.615 39.66 786.765 39.2 788.285 39.2C790.025 39.2 791.405 39.75 792.425 40.85C793.465 41.93 793.985 43.4 793.985 45.26V46.25H791.285V45.5C791.285 44.2 790.965 43.21 790.325 42.53C789.705 41.83 788.815 41.48 787.655 41.48C786.515 41.48 785.615 41.83 784.955 42.53C784.315 43.23 783.995 44.22 783.995 45.5V56H781.295ZM804.953 56.3C803.653 56.3 802.513 56.04 801.533 55.52C800.573 55 799.823 54.27 799.283 53.33C798.763 52.37 798.503 51.26 798.503 50V45.5C798.503 44.22 798.763 43.11 799.283 42.17C799.823 41.23 800.573 40.5 801.533 39.98C802.513 39.46 803.653 39.2 804.953 39.2C806.253 39.2 807.383 39.46 808.343 39.98C809.323 40.5 810.073 41.23 810.593 42.17C811.133 43.11 811.403 44.22 811.403 45.5V48.41H801.143V50C801.143 51.3 801.473 52.3 802.133 53C802.793 53.68 803.733 54.02 804.953 54.02C805.993 54.02 806.833 53.84 807.473 53.48C808.113 53.1 808.503 52.54 808.643 51.8H811.343C811.163 53.18 810.483 54.28 809.303 55.1C808.143 55.9 806.693 56.3 804.953 56.3ZM808.763 46.61V45.5C808.763 44.2 808.433 43.2 807.773 42.5C807.133 41.8 806.193 41.45 804.953 41.45C803.733 41.45 802.793 41.8 802.133 42.5C801.473 43.2 801.143 44.2 801.143 45.5V46.37H808.973L808.763 46.61ZM840.93 56.3C839.63 56.3 838.49 56.04 837.51 55.52C836.55 55 835.8 54.27 835.26 53.33C834.74 52.37 834.48 51.26 834.48 50V45.5C834.48 44.22 834.74 43.11 835.26 42.17C835.8 41.23 836.55 40.5 837.51 39.98C838.49 39.46 839.63 39.2 840.93 39.2C842.23 39.2 843.36 39.46 844.32 39.98C845.3 40.5 846.05 41.23 846.57 42.17C847.11 43.11 847.38 44.22 847.38 45.5V48.41H837.12V50C837.12 51.3 837.45 52.3 838.11 53C838.77 53.68 839.71 54.02 840.93 54.02C841.97 54.02 842.81 53.84 843.45 53.48C844.09 53.1 844.48 52.54 844.62 51.8H847.32C847.14 53.18 846.46 54.28 845.28 55.1C844.12 55.9 842.67 56.3 840.93 56.3ZM844.74 46.61V45.5C844.74 44.2 844.41 43.2 843.75 42.5C843.11 41.8 842.17 41.45 840.93 41.45C839.71 41.45 838.77 41.8 838.11 42.5C837.45 43.2 837.12 44.2 837.12 45.5V46.37H844.95L844.74 46.61ZM851.418 56L857.268 47.51L851.778 39.5H854.958L858.228 44.6C858.368 44.82 858.498 45.06 858.618 45.32C858.758 45.58 858.868 45.79 858.948 45.95C859.008 45.79 859.098 45.58 859.218 45.32C859.358 45.06 859.498 44.82 859.638 44.6L862.938 39.5H866.088L860.598 47.54L866.418 56H863.238L859.698 50.6C859.558 50.38 859.418 50.13 859.278 49.85C859.158 49.55 859.048 49.31 858.948 49.13C858.868 49.31 858.748 49.55 858.588 49.85C858.448 50.13 858.298 50.38 858.138 50.6L854.568 56H851.418ZM877.026 56.3C875.706 56.3 874.546 56.05 873.546 55.55C872.566 55.05 871.806 54.33 871.266 53.39C870.726 52.43 870.456 51.3 870.456 50V45.5C870.456 44.18 870.726 43.05 871.266 42.11C871.806 41.17 872.566 40.45 873.546 39.95C874.546 39.45 875.706 39.2 877.026 39.2C878.926 39.2 880.456 39.71 881.616 40.73C882.776 41.75 883.386 43.14 883.446 44.9H880.746C880.686 43.84 880.326 43.03 879.666 42.47C879.026 41.89 878.146 41.6 877.026 41.6C875.846 41.6 874.906 41.94 874.206 42.62C873.506 43.28 873.156 44.23 873.156 45.47V50C873.156 51.24 873.506 52.2 874.206 52.88C874.906 53.56 875.846 53.9 877.026 53.9C878.146 53.9 879.026 53.61 879.666 53.03C880.326 52.45 880.686 51.64 880.746 50.6H883.446C883.386 52.36 882.776 53.75 881.616 54.77C880.456 55.79 878.926 56.3 877.026 56.3ZM888.445 56V53.54H894.295V41.96H889.195V39.5H896.995V53.54H902.545V56H888.445ZM895.345 36.53C894.685 36.53 894.165 36.36 893.785 36.02C893.405 35.68 893.215 35.22 893.215 34.64C893.215 34.04 893.405 33.57 893.785 33.23C894.165 32.87 894.685 32.69 895.345 32.69C896.005 32.69 896.525 32.87 896.905 33.23C897.285 33.57 897.475 34.04 897.475 34.64C897.475 35.22 897.285 35.68 896.905 36.02C896.525 36.36 896.005 36.53 895.345 36.53ZM914.683 56C913.263 56 912.153 55.62 911.353 54.86C910.573 54.1 910.183 53.03 910.183 51.65V41.96H905.533V39.5H910.183V34.85H912.883V39.5H919.483V41.96H912.883V51.65C912.883 52.91 913.483 53.54 914.683 53.54H919.183V56H914.683ZM930.871 56.3C929.571 56.3 928.431 56.04 927.451 55.52C926.491 55 925.741 54.27 925.201 53.33C924.681 52.37 924.421 51.26 924.421 50V45.5C924.421 44.22 924.681 43.11 925.201 42.17C925.741 41.23 926.491 40.5 927.451 39.98C928.431 39.46 929.571 39.2 930.871 39.2C932.171 39.2 933.301 39.46 934.261 39.98C935.241 40.5 935.991 41.23 936.511 42.17C937.051 43.11 937.321 44.22 937.321 45.5V48.41H927.061V50C927.061 51.3 927.391 52.3 928.051 53C928.711 53.68 929.651 54.02 930.871 54.02C931.911 54.02 932.751 53.84 933.391 53.48C934.031 53.1 934.421 52.54 934.561 51.8H937.261C937.081 53.18 936.401 54.28 935.221 55.1C934.061 55.9 932.611 56.3 930.871 56.3ZM934.681 46.61V45.5C934.681 44.2 934.351 43.2 933.691 42.5C933.051 41.8 932.111 41.45 930.871 41.45C929.651 41.45 928.711 41.8 928.051 42.5C927.391 43.2 927.061 44.2 927.061 45.5V46.37H934.891L934.681 46.61ZM947.899 56.3C946.259 56.3 944.929 55.75 943.909 54.65C942.909 53.55 942.409 52.06 942.409 50.18V45.35C942.409 43.45 942.909 41.95 943.909 40.85C944.909 39.75 946.239 39.2 947.899 39.2C949.259 39.2 950.349 39.57 951.169 40.31C951.989 41.05 952.399 42.04 952.399 43.28L951.859 42.65H952.459L952.399 38.9V34.1H955.099V56H952.399V52.85H951.859L952.399 52.22C952.399 53.48 951.989 54.48 951.169 55.22C950.349 55.94 949.259 56.3 947.899 56.3ZM948.799 53.96C949.919 53.96 950.799 53.61 951.439 52.91C952.079 52.21 952.399 51.24 952.399 50V45.5C952.399 44.26 952.079 43.29 951.439 42.59C950.799 41.89 949.919 41.54 948.799 41.54C947.659 41.54 946.759 41.88 946.099 42.56C945.439 43.24 945.109 44.22 945.109 45.5V50C945.109 51.28 945.439 52.26 946.099 52.94C946.759 53.62 947.659 53.96 948.799 53.96ZM986.636 56C985.216 56 984.106 55.62 983.306 54.86C982.526 54.1 982.136 53.03 982.136 51.65V41.96H977.486V39.5H982.136V34.85H984.836V39.5H991.436V41.96H984.836V51.65C984.836 52.91 985.436 53.54 986.636 53.54H991.136V56H986.636ZM1002.82 56.24C1001.5 56.24 1000.36 55.99 999.404 55.49C998.444 54.99 997.694 54.27 997.154 53.33C996.634 52.37 996.374 51.24 996.374 49.94V45.56C996.374 44.24 996.634 43.11 997.154 42.17C997.694 41.23 998.444 40.51 999.404 40.01C1000.36 39.51 1001.5 39.26 1002.82 39.26C1004.14 39.26 1005.28 39.51 1006.24 40.01C1007.2 40.51 1007.94 41.23 1008.46 42.17C1009 43.11 1009.27 44.23 1009.27 45.53V49.94C1009.27 51.24 1009 52.37 1008.46 53.33C1007.94 54.27 1007.2 54.99 1006.24 55.49C1005.28 55.99 1004.14 56.24 1002.82 56.24ZM1002.82 53.84C1004 53.84 1004.92 53.51 1005.58 52.85C1006.24 52.19 1006.57 51.22 1006.57 49.94V45.56C1006.57 44.28 1006.24 43.31 1005.58 42.65C1004.92 41.99 1004 41.66 1002.82 41.66C1001.66 41.66 1000.74 41.99 1000.06 42.65C999.404 43.31 999.074 44.28 999.074 45.56V49.94C999.074 51.22 999.404 52.19 1000.06 52.85C1000.74 53.51 1001.66 53.84 1002.82 53.84ZM1033.49 56L1030.85 39.5H1033.25L1034.9 51.2C1034.96 51.64 1035.02 52.12 1035.08 52.64C1035.16 53.14 1035.22 53.56 1035.26 53.9C1035.3 53.56 1035.36 53.14 1035.44 52.64C1035.54 52.12 1035.62 51.64 1035.68 51.2L1037.51 39.5H1040.09L1041.92 51.2C1041.98 51.64 1042.05 52.12 1042.13 52.64C1042.23 53.14 1042.3 53.56 1042.34 53.9C1042.38 53.56 1042.44 53.14 1042.52 52.64C1042.62 52.12 1042.7 51.64 1042.76 51.2L1044.47 39.5H1046.75L1043.99 56H1041.02L1039.25 44.6C1039.17 44.04 1039.08 43.48 1038.98 42.92C1038.88 42.36 1038.81 41.92 1038.77 41.6C1038.73 41.92 1038.67 42.36 1038.59 42.92C1038.51 43.48 1038.42 44.04 1038.32 44.6L1036.46 56H1033.49ZM1056.79 56.3C1055.49 56.3 1054.35 56.04 1053.37 55.52C1052.41 55 1051.66 54.27 1051.12 53.33C1050.6 52.37 1050.34 51.26 1050.34 50V45.5C1050.34 44.22 1050.6 43.11 1051.12 42.17C1051.66 41.23 1052.41 40.5 1053.37 39.98C1054.35 39.46 1055.49 39.2 1056.79 39.2C1058.09 39.2 1059.22 39.46 1060.18 39.98C1061.16 40.5 1061.91 41.23 1062.43 42.17C1062.97 43.11 1063.24 44.22 1063.24 45.5V48.41H1052.98V50C1052.98 51.3 1053.31 52.3 1053.97 53C1054.63 53.68 1055.57 54.02 1056.79 54.02C1057.83 54.02 1058.67 53.84 1059.31 53.48C1059.95 53.1 1060.34 52.54 1060.48 51.8H1063.18C1063 53.18 1062.32 54.28 1061.14 55.1C1059.98 55.9 1058.53 56.3 1056.79 56.3ZM1060.6 46.61V45.5C1060.6 44.2 1060.27 43.2 1059.61 42.5C1058.97 41.8 1058.03 41.45 1056.79 41.45C1055.57 41.45 1054.63 41.8 1053.97 42.5C1053.31 43.2 1052.98 44.2 1052.98 45.5V46.37H1060.81L1060.6 46.61ZM1077.03 56C1076.07 56 1075.23 55.81 1074.51 55.43C1073.79 55.05 1073.23 54.51 1072.83 53.81C1072.43 53.11 1072.23 52.29 1072.23 51.35V36.56H1066.68V34.1H1074.93V51.35C1074.93 52.03 1075.12 52.57 1075.5 52.97C1075.88 53.35 1076.39 53.54 1077.03 53.54H1082.28V56H1077.03ZM1092.89 56.3C1091.57 56.3 1090.41 56.05 1089.41 55.55C1088.43 55.05 1087.67 54.33 1087.13 53.39C1086.59 52.43 1086.32 51.3 1086.32 50V45.5C1086.32 44.18 1086.59 43.05 1087.13 42.11C1087.67 41.17 1088.43 40.45 1089.41 39.95C1090.41 39.45 1091.57 39.2 1092.89 39.2C1094.79 39.2 1096.32 39.71 1097.48 40.73C1098.64 41.75 1099.25 43.14 1099.31 44.9H1096.61C1096.55 43.84 1096.19 43.03 1095.53 42.47C1094.89 41.89 1094.01 41.6 1092.89 41.6C1091.71 41.6 1090.77 41.94 1090.07 42.62C1089.37 43.28 1089.02 44.23 1089.02 45.47V50C1089.02 51.24 1089.37 52.2 1090.07 52.88C1090.77 53.56 1091.71 53.9 1092.89 53.9C1094.01 53.9 1094.89 53.61 1095.53 53.03C1096.19 52.45 1096.55 51.64 1096.61 50.6H1099.31C1099.25 52.36 1098.64 53.75 1097.48 54.77C1096.32 55.79 1094.79 56.3 1092.89 56.3ZM1110.75 56.24C1109.43 56.24 1108.29 55.99 1107.33 55.49C1106.37 54.99 1105.62 54.27 1105.08 53.33C1104.56 52.37 1104.3 51.24 1104.3 49.94V45.56C1104.3 44.24 1104.56 43.11 1105.08 42.17C1105.62 41.23 1106.37 40.51 1107.33 40.01C1108.29 39.51 1109.43 39.26 1110.75 39.26C1112.07 39.26 1113.21 39.51 1114.17 40.01C1115.13 40.51 1115.87 41.23 1116.39 42.17C1116.93 43.11 1117.2 44.23 1117.2 45.53V49.94C1117.2 51.24 1116.93 52.37 1116.39 53.33C1115.87 54.27 1115.13 54.99 1114.17 55.49C1113.21 55.99 1112.07 56.24 1110.75 56.24ZM1110.75 53.84C1111.93 53.84 1112.85 53.51 1113.51 52.85C1114.17 52.19 1114.5 51.22 1114.5 49.94V45.56C1114.5 44.28 1114.17 43.31 1113.51 42.65C1112.85 41.99 1111.93 41.66 1110.75 41.66C1109.59 41.66 1108.67 41.99 1107.99 42.65C1107.33 43.31 1107 44.28 1107 45.56V49.94C1107 51.22 1107.33 52.19 1107.99 52.85C1108.67 53.51 1109.59 53.84 1110.75 53.84ZM1121.72 56V39.5H1124.09V41.48H1124.63L1124.21 42.2C1124.21 41.28 1124.45 40.55 1124.93 40.01C1125.43 39.47 1126.1 39.2 1126.94 39.2C1127.86 39.2 1128.57 39.54 1129.07 40.22C1129.57 40.9 1129.82 41.86 1129.82 43.1L1129.01 41.48H1130.27L1129.7 42.2C1129.7 41.28 1129.95 40.55 1130.45 40.01C1130.97 39.47 1131.65 39.2 1132.49 39.2C1133.53 39.2 1134.33 39.59 1134.89 40.37C1135.47 41.15 1135.76 42.18 1135.76 43.46V56H1133.27V43.43C1133.27 42.75 1133.12 42.22 1132.82 41.84C1132.54 41.46 1132.12 41.27 1131.56 41.27C1131.02 41.27 1130.59 41.46 1130.27 41.84C1129.97 42.2 1129.82 42.72 1129.82 43.4V56H1127.66V43.43C1127.66 42.73 1127.5 42.2 1127.18 41.84C1126.88 41.46 1126.45 41.27 1125.89 41.27C1125.33 41.27 1124.91 41.46 1124.63 41.84C1124.35 42.2 1124.21 42.72 1124.21 43.4V56H1121.72ZM1146.73 56.3C1145.43 56.3 1144.29 56.04 1143.31 55.52C1142.35 55 1141.6 54.27 1141.06 53.33C1140.54 52.37 1140.28 51.26 1140.28 50V45.5C1140.28 44.22 1140.54 43.11 1141.06 42.17C1141.6 41.23 1142.35 40.5 1143.31 39.98C1144.29 39.46 1145.43 39.2 1146.73 39.2C1148.03 39.2 1149.16 39.46 1150.12 39.98C1151.1 40.5 1151.85 41.23 1152.37 42.17C1152.91 43.11 1153.18 44.22 1153.18 45.5V48.41H1142.92V50C1142.92 51.3 1143.25 52.3 1143.91 53C1144.57 53.68 1145.51 54.02 1146.73 54.02C1147.77 54.02 1148.61 53.84 1149.25 53.48C1149.89 53.1 1150.28 52.54 1150.42 51.8H1153.12C1152.94 53.18 1152.26 54.28 1151.08 55.1C1149.92 55.9 1148.47 56.3 1146.73 56.3ZM1150.54 46.61V45.5C1150.54 44.2 1150.21 43.2 1149.55 42.5C1148.91 41.8 1147.97 41.45 1146.73 41.45C1145.51 41.45 1144.57 41.8 1143.91 42.5C1143.25 43.2 1142.92 44.2 1142.92 45.5V46.37H1150.75L1150.54 46.61ZM1179.05 61.4L1181.48 54.98L1175.36 39.5H1178.36L1182.2 49.7C1182.34 50.04 1182.47 50.45 1182.59 50.93C1182.71 51.39 1182.81 51.78 1182.89 52.1C1182.97 51.78 1183.07 51.39 1183.19 50.93C1183.31 50.45 1183.43 50.04 1183.55 49.7L1187.15 39.5H1190.06L1181.93 61.4H1179.05ZM1200.7 56.24C1199.38 56.24 1198.24 55.99 1197.28 55.49C1196.32 54.99 1195.57 54.27 1195.03 53.33C1194.51 52.37 1194.25 51.24 1194.25 49.94V45.56C1194.25 44.24 1194.51 43.11 1195.03 42.17C1195.57 41.23 1196.32 40.51 1197.28 40.01C1198.24 39.51 1199.38 39.26 1200.7 39.26C1202.02 39.26 1203.16 39.51 1204.12 40.01C1205.08 40.51 1205.82 41.23 1206.34 42.17C1206.88 43.11 1207.15 44.23 1207.15 45.53V49.94C1207.15 51.24 1206.88 52.37 1206.34 53.33C1205.82 54.27 1205.08 54.99 1204.12 55.49C1203.16 55.99 1202.02 56.24 1200.7 56.24ZM1200.7 53.84C1201.88 53.84 1202.8 53.51 1203.46 52.85C1204.12 52.19 1204.45 51.22 1204.45 49.94V45.56C1204.45 44.28 1204.12 43.31 1203.46 42.65C1202.8 41.99 1201.88 41.66 1200.7 41.66C1199.54 41.66 1198.62 41.99 1197.94 42.65C1197.28 43.31 1196.95 44.28 1196.95 45.56V49.94C1196.95 51.22 1197.28 52.19 1197.94 52.85C1198.62 53.51 1199.54 53.84 1200.7 53.84ZM1218.65 56.3C1216.75 56.3 1215.23 55.74 1214.09 54.62C1212.95 53.48 1212.38 51.94 1212.38 50V39.5H1215.08V50C1215.08 51.24 1215.4 52.21 1216.04 52.91C1216.68 53.59 1217.55 53.93 1218.65 53.93C1219.77 53.93 1220.65 53.59 1221.29 52.91C1221.95 52.21 1222.28 51.24 1222.28 50V39.5H1224.98V50C1224.98 51.94 1224.4 53.48 1223.24 54.62C1222.08 55.74 1220.55 56.3 1218.65 56.3ZM734.8 96C733.38 96 732.27 95.62 731.47 94.86C730.69 94.1 730.3 93.03 730.3 91.65V81.96H725.65V79.5H730.3V74.85H733V79.5H739.6V81.96H733V91.65C733 92.91 733.6 93.54 734.8 93.54H739.3V96H734.8ZM750.988 96.24C749.668 96.24 748.528 95.99 747.568 95.49C746.608 94.99 745.858 94.27 745.318 93.33C744.798 92.37 744.538 91.24 744.538 89.94V85.56C744.538 84.24 744.798 83.11 745.318 82.17C745.858 81.23 746.608 80.51 747.568 80.01C748.528 79.51 749.668 79.26 750.988 79.26C752.308 79.26 753.448 79.51 754.408 80.01C755.368 80.51 756.108 81.23 756.628 82.17C757.168 83.11 757.438 84.23 757.438 85.53V89.94C757.438 91.24 757.168 92.37 756.628 93.33C756.108 94.27 755.368 94.99 754.408 95.49C753.448 95.99 752.308 96.24 750.988 96.24ZM750.988 93.84C752.168 93.84 753.088 93.51 753.748 92.85C754.408 92.19 754.738 91.22 754.738 89.94V85.56C754.738 84.28 754.408 83.31 753.748 82.65C753.088 81.99 752.168 81.66 750.988 81.66C749.828 81.66 748.908 81.99 748.228 82.65C747.568 83.31 747.238 84.28 747.238 85.56V89.94C747.238 91.22 747.568 92.19 748.228 92.85C748.908 93.51 749.828 93.84 750.988 93.84ZM786.965 96.24C785.645 96.24 784.505 95.99 783.545 95.49C782.585 94.99 781.835 94.27 781.295 93.33C780.775 92.37 780.515 91.24 780.515 89.94V85.56C780.515 84.24 780.775 83.11 781.295 82.17C781.835 81.23 782.585 80.51 783.545 80.01C784.505 79.51 785.645 79.26 786.965 79.26C788.285 79.26 789.425 79.51 790.385 80.01C791.345 80.51 792.085 81.23 792.605 82.17C793.145 83.11 793.415 84.23 793.415 85.53V89.94C793.415 91.24 793.145 92.37 792.605 93.33C792.085 94.27 791.345 94.99 790.385 95.49C789.425 95.99 788.285 96.24 786.965 96.24ZM786.965 93.84C788.145 93.84 789.065 93.51 789.725 92.85C790.385 92.19 790.715 91.22 790.715 89.94V85.56C790.715 84.28 790.385 83.31 789.725 82.65C789.065 81.99 788.145 81.66 786.965 81.66C785.805 81.66 784.885 81.99 784.205 82.65C783.545 83.31 783.215 84.28 783.215 85.56V89.94C783.215 91.22 783.545 92.19 784.205 92.85C784.885 93.51 785.805 93.84 786.965 93.84ZM804.923 96.3C803.023 96.3 801.503 95.74 800.363 94.62C799.223 93.48 798.653 91.94 798.653 90V79.5H801.353V90C801.353 91.24 801.673 92.21 802.313 92.91C802.953 93.59 803.823 93.93 804.923 93.93C806.043 93.93 806.923 93.59 807.563 92.91C808.223 92.21 808.553 91.24 808.553 90V79.5H811.253V90C811.253 91.94 810.673 93.48 809.513 94.62C808.353 95.74 806.823 96.3 804.923 96.3ZM817.271 96V79.5H819.911V82.65H820.541L819.671 84.6C819.671 82.82 820.051 81.48 820.811 80.58C821.591 79.66 822.741 79.2 824.261 79.2C826.001 79.2 827.381 79.75 828.401 80.85C829.441 81.93 829.961 83.4 829.961 85.26V86.25H827.261V85.5C827.261 84.2 826.941 83.21 826.301 82.53C825.681 81.83 824.791 81.48 823.631 81.48C822.491 81.48 821.591 81.83 820.931 82.53C820.291 83.23 819.971 84.22 819.971 85.5V96H817.271ZM852.678 96V93.24L859.368 86.13C860.508 84.91 861.338 83.83 861.858 82.89C862.378 81.93 862.638 81.01 862.638 80.13C862.638 78.91 862.298 77.95 861.618 77.25C860.958 76.55 860.048 76.2 858.888 76.2C857.608 76.2 856.598 76.56 855.858 77.28C855.138 78 854.778 78.99 854.778 80.25H852.078C852.118 78.93 852.418 77.79 852.978 76.83C853.558 75.85 854.348 75.1 855.348 74.58C856.368 74.06 857.548 73.8 858.888 73.8C860.208 73.8 861.348 74.06 862.308 74.58C863.288 75.08 864.038 75.8 864.558 76.74C865.078 77.68 865.338 78.8 865.338 80.1C865.338 81.34 865.008 82.57 864.348 83.79C863.688 85.01 862.608 86.4 861.108 87.96L855.708 93.54H865.698V96H852.678ZM880.206 96V91.2H870.306V86.97L878.976 74.1H881.916L873.006 87.54V88.74H880.206V83.4H882.906V96H880.206ZM906.643 96V74.1H909.343V79.5V82.65H909.913L909.343 83.28C909.343 81.98 909.733 80.98 910.513 80.28C911.293 79.56 912.373 79.2 913.753 79.2C915.413 79.2 916.733 79.71 917.713 80.73C918.693 81.75 919.183 83.14 919.183 84.9V96H916.483V85.2C916.483 84.02 916.163 83.11 915.523 82.47C914.903 81.81 914.053 81.48 912.973 81.48C911.853 81.48 910.963 81.83 910.303 82.53C909.663 83.23 909.343 84.22 909.343 85.5V96H906.643ZM930.871 96.24C929.551 96.24 928.411 95.99 927.451 95.49C926.491 94.99 925.741 94.27 925.201 93.33C924.681 92.37 924.421 91.24 924.421 89.94V85.56C924.421 84.24 924.681 83.11 925.201 82.17C925.741 81.23 926.491 80.51 927.451 80.01C928.411 79.51 929.551 79.26 930.871 79.26C932.191 79.26 933.331 79.51 934.291 80.01C935.251 80.51 935.991 81.23 936.511 82.17C937.051 83.11 937.321 84.23 937.321 85.53V89.94C937.321 91.24 937.051 92.37 936.511 93.33C935.991 94.27 935.251 94.99 934.291 95.49C933.331 95.99 932.191 96.24 930.871 96.24ZM930.871 93.84C932.051 93.84 932.971 93.51 933.631 92.85C934.291 92.19 934.621 91.22 934.621 89.94V85.56C934.621 84.28 934.291 83.31 933.631 82.65C932.971 81.99 932.051 81.66 930.871 81.66C929.711 81.66 928.791 81.99 928.111 82.65C927.451 83.31 927.121 84.28 927.121 85.56V89.94C927.121 91.22 927.451 92.19 928.111 92.85C928.791 93.51 929.711 93.84 930.871 93.84ZM948.829 96.3C946.929 96.3 945.409 95.74 944.269 94.62C943.129 93.48 942.559 91.94 942.559 90V79.5H945.259V90C945.259 91.24 945.579 92.21 946.219 92.91C946.859 93.59 947.729 93.93 948.829 93.93C949.949 93.93 950.829 93.59 951.469 92.91C952.129 92.21 952.459 91.24 952.459 90V79.5H955.159V90C955.159 91.94 954.579 93.48 953.419 94.62C952.259 95.74 950.729 96.3 948.829 96.3ZM961.178 96V79.5H963.818V82.65H964.448L963.578 84.6C963.578 82.82 963.958 81.48 964.718 80.58C965.498 79.66 966.648 79.2 968.168 79.2C969.908 79.2 971.288 79.75 972.308 80.85C973.348 81.93 973.868 83.4 973.868 85.26V86.25H971.168V85.5C971.168 84.2 970.848 83.21 970.208 82.53C969.588 81.83 968.698 81.48 967.538 81.48C966.398 81.48 965.498 81.83 964.838 82.53C964.198 83.23 963.878 84.22 963.878 85.5V96H961.178ZM996.614 96V74.1H999.314V83.46H1006.33V74.1H1009.03V96H1006.33V85.92H999.314V96H996.614ZM1019.37 96.3C1017.63 96.3 1016.26 95.86 1015.26 94.98C1014.26 94.08 1013.76 92.87 1013.76 91.35C1013.76 89.81 1014.26 88.6 1015.26 87.72C1016.26 86.84 1017.61 86.4 1019.31 86.4H1024.41V84.75C1024.41 83.73 1024.1 82.95 1023.48 82.41C1022.88 81.85 1022.02 81.57 1020.9 81.57C1019.92 81.57 1019.1 81.78 1018.44 82.2C1017.78 82.6 1017.4 83.15 1017.3 83.85H1014.6C1014.78 82.43 1015.45 81.3 1016.61 80.46C1017.77 79.62 1019.22 79.2 1020.96 79.2C1022.86 79.2 1024.36 79.69 1025.46 80.67C1026.56 81.65 1027.11 82.98 1027.11 84.66V96H1024.47V92.85H1024.02L1024.47 92.4C1024.47 93.6 1024 94.55 1023.06 95.25C1022.14 95.95 1020.91 96.3 1019.37 96.3ZM1020.03 94.17C1021.31 94.17 1022.36 93.85 1023.18 93.21C1024 92.57 1024.41 91.75 1024.41 90.75V88.41H1019.37C1018.47 88.41 1017.76 88.66 1017.24 89.16C1016.72 89.66 1016.46 90.34 1016.46 91.2C1016.46 92.12 1016.77 92.85 1017.39 93.39C1018.03 93.91 1018.91 94.17 1020.03 94.17ZM1038.92 96.3C1037.6 96.3 1036.44 96.05 1035.44 95.55C1034.46 95.05 1033.7 94.33 1033.16 93.39C1032.62 92.43 1032.35 91.3 1032.35 90V85.5C1032.35 84.18 1032.62 83.05 1033.16 82.11C1033.7 81.17 1034.46 80.45 1035.44 79.95C1036.44 79.45 1037.6 79.2 1038.92 79.2C1040.82 79.2 1042.35 79.71 1043.51 80.73C1044.67 81.75 1045.28 83.14 1045.34 84.9H1042.64C1042.58 83.84 1042.22 83.03 1041.56 82.47C1040.92 81.89 1040.04 81.6 1038.92 81.6C1037.74 81.6 1036.8 81.94 1036.1 82.62C1035.4 83.28 1035.05 84.23 1035.05 85.47V90C1035.05 91.24 1035.4 92.2 1036.1 92.88C1036.8 93.56 1037.74 93.9 1038.92 93.9C1040.04 93.9 1040.92 93.61 1041.56 93.03C1042.22 92.45 1042.58 91.64 1042.64 90.6H1045.34C1045.28 92.36 1044.67 93.75 1043.51 94.77C1042.35 95.79 1040.82 96.3 1038.92 96.3ZM1050.64 96V74.1H1053.34V86.31H1056.52L1061.32 79.5H1064.41L1058.86 87.36L1064.5 96H1061.35L1056.55 88.65H1053.34V96H1050.64ZM1073.34 96.3C1071.6 96.3 1070.23 95.86 1069.23 94.98C1068.23 94.08 1067.73 92.87 1067.73 91.35C1067.73 89.81 1068.23 88.6 1069.23 87.72C1070.23 86.84 1071.58 86.4 1073.28 86.4H1078.38V84.75C1078.38 83.73 1078.07 82.95 1077.45 82.41C1076.85 81.85 1075.99 81.57 1074.87 81.57C1073.89 81.57 1073.07 81.78 1072.41 82.2C1071.75 82.6 1071.37 83.15 1071.27 83.85H1068.57C1068.75 82.43 1069.42 81.3 1070.58 80.46C1071.74 79.62 1073.19 79.2 1074.93 79.2C1076.83 79.2 1078.33 79.69 1079.43 80.67C1080.53 81.65 1081.08 82.98 1081.08 84.66V96H1078.44V92.85H1077.99L1078.44 92.4C1078.44 93.6 1077.97 94.55 1077.03 95.25C1076.11 95.95 1074.88 96.3 1073.34 96.3ZM1074 94.17C1075.28 94.17 1076.33 93.85 1077.15 93.21C1077.97 92.57 1078.38 91.75 1078.38 90.75V88.41H1073.34C1072.44 88.41 1071.73 88.66 1071.21 89.16C1070.69 89.66 1070.43 90.34 1070.43 91.2C1070.43 92.12 1070.74 92.85 1071.36 93.39C1072 93.91 1072.88 94.17 1074 94.17ZM1094.57 96C1093.15 96 1092.04 95.62 1091.24 94.86C1090.46 94.1 1090.07 93.03 1090.07 91.65V81.96H1085.42V79.5H1090.07V74.85H1092.77V79.5H1099.37V81.96H1092.77V91.65C1092.77 92.91 1093.37 93.54 1094.57 93.54H1099.07V96H1094.57ZM1104.51 96V74.1H1107.21V79.5V82.65H1107.78L1107.21 83.28C1107.21 81.98 1107.6 80.98 1108.38 80.28C1109.16 79.56 1110.24 79.2 1111.62 79.2C1113.28 79.2 1114.6 79.71 1115.58 80.73C1116.56 81.75 1117.05 83.14 1117.05 84.9V96H1114.35V85.2C1114.35 84.02 1114.03 83.11 1113.39 82.47C1112.77 81.81 1111.92 81.48 1110.84 81.48C1109.72 81.48 1108.83 81.83 1108.17 82.53C1107.53 83.23 1107.21 84.22 1107.21 85.5V96H1104.51ZM1128.74 96.24C1127.42 96.24 1126.28 95.99 1125.32 95.49C1124.36 94.99 1123.61 94.27 1123.07 93.33C1122.55 92.37 1122.29 91.24 1122.29 89.94V85.56C1122.29 84.24 1122.55 83.11 1123.07 82.17C1123.61 81.23 1124.36 80.51 1125.32 80.01C1126.28 79.51 1127.42 79.26 1128.74 79.26C1130.06 79.26 1131.2 79.51 1132.16 80.01C1133.12 80.51 1133.86 81.23 1134.38 82.17C1134.92 83.11 1135.19 84.23 1135.19 85.53V89.94C1135.19 91.24 1134.92 92.37 1134.38 93.33C1133.86 94.27 1133.12 94.99 1132.16 95.49C1131.2 95.99 1130.06 96.24 1128.74 96.24ZM1128.74 93.84C1129.92 93.84 1130.84 93.51 1131.5 92.85C1132.16 92.19 1132.49 91.22 1132.49 89.94V85.56C1132.49 84.28 1132.16 83.31 1131.5 82.65C1130.84 81.99 1129.92 81.66 1128.74 81.66C1127.58 81.66 1126.66 81.99 1125.98 82.65C1125.32 83.31 1124.99 84.28 1124.99 85.56V89.94C1124.99 91.22 1125.32 92.19 1125.98 92.85C1126.66 93.51 1127.58 93.84 1128.74 93.84ZM1140.49 96V79.5H1143.19V82.65H1143.76L1143.19 83.28C1143.19 81.98 1143.58 80.98 1144.36 80.28C1145.14 79.56 1146.22 79.2 1147.6 79.2C1149.26 79.2 1150.58 79.71 1151.56 80.73C1152.54 81.75 1153.03 83.14 1153.03 84.9V96H1150.33V85.2C1150.33 84.02 1150.01 83.12 1149.37 82.5C1148.75 81.86 1147.9 81.54 1146.82 81.54C1145.7 81.54 1144.81 81.88 1144.15 82.56C1143.51 83.24 1143.19 84.22 1143.19 85.5V96H1140.49ZM1163.76 89.55L1163.13 77.7V74.1H1166.31V77.7L1165.68 89.55H1163.76ZM1164.27 96.15C1163.75 96.15 1163.32 95.98 1162.98 95.64C1162.64 95.3 1162.47 94.87 1162.47 94.35C1162.47 93.83 1162.64 93.4 1162.98 93.06C1163.32 92.72 1163.75 92.55 1164.27 92.55H1165.17C1165.75 92.55 1166.19 92.72 1166.49 93.06C1166.81 93.38 1166.97 93.8 1166.97 94.32C1166.97 94.84 1166.8 95.28 1166.46 95.64C1166.12 95.98 1165.69 96.15 1165.17 96.15H1164.27Z" fill="white"/>
<path d="M922 205.667C921.533 205.667 921.133 205.522 920.8 205.233C920.467 204.944 920.217 204.565 920.05 204.096C919.417 202.074 918.617 200.178 917.65 198.408C916.717 196.639 915.4 194.562 913.7 192.179C912 189.796 910.617 187.521 909.55 185.354C908.517 183.187 908 180.569 908 177.5C908 173.275 909.35 169.7 912.05 166.775C914.783 163.814 918.1 162.333 922 162.333C925.9 162.333 929.2 163.814 931.9 166.775C934.633 169.7 936 173.275 936 177.5C936 180.786 935.417 183.53 934.25 185.733C933.117 187.9 931.8 190.049 930.3 192.179C928.5 194.779 927.133 196.946 926.2 198.679C925.3 200.376 924.55 202.182 923.95 204.096C923.783 204.601 923.517 204.999 923.15 205.287C922.817 205.54 922.433 205.667 922 205.667ZM922 197.921C922.567 196.693 923.2 195.483 923.9 194.292C924.633 193.1 925.7 191.511 927.1 189.525C928.533 187.503 929.7 185.643 930.6 183.946C931.533 182.212 932 180.064 932 177.5C932 174.503 931.017 171.957 929.05 169.862C927.117 167.732 924.767 166.667 922 166.667C919.233 166.667 916.867 167.732 914.9 169.862C912.967 171.957 912 174.503 912 177.5C912 180.064 912.45 182.212 913.35 183.946C914.283 185.643 915.467 187.503 916.9 189.525C918.3 191.511 919.35 193.1 920.05 194.292C920.783 195.483 921.433 196.693 922 197.921ZM922 182.917C923.4 182.917 924.583 182.393 925.55 181.346C926.517 180.299 927 179.017 927 177.5C927 175.983 926.517 174.701 925.55 173.654C924.583 172.607 923.4 172.083 922 172.083C920.6 172.083 919.417 172.607 918.45 173.654C917.483 174.701 917 175.983 917 177.5C917 179.017 917.483 180.299 918.45 181.346C919.417 182.393 920.6 182.917 922 182.917Z" fill="#44BF4F"/>
</svg>
