<svg width="587" height="325" viewBox="0 0 587 325" fill="none" xmlns="http://www.w3.org/2000/svg">
<path d="M11.3301 112V31.7H25.0801V99.2399H59.1801V112H11.3301ZM99.0671 113.1C93.9338 113.1 89.4605 112.11 85.6471 110.13C81.8338 108.15 78.8638 105.4 76.7371 101.88C74.6838 98.2866 73.6571 94.1066 73.6571 89.3399V74.16C73.6571 69.3933 74.6838 65.2499 76.7371 61.7299C78.8638 58.1366 81.8338 55.3499 85.6471 53.3699C89.4605 51.3899 93.9338 50.4 99.0671 50.4C104.127 50.4 108.527 51.3899 112.267 53.3699C116.08 55.3499 119.014 58.1366 121.067 61.7299C123.194 65.2499 124.257 69.3933 124.257 74.16V85.05H86.9671V89.3399C86.9671 93.5932 87.9938 96.8199 90.0471 99.0199C92.1005 101.147 95.1438 102.21 99.1771 102.21C102.257 102.21 104.75 101.697 106.657 100.67C108.564 99.57 109.774 97.9933 110.287 95.94H123.817C122.79 101.147 120.004 105.327 115.457 108.48C110.984 111.56 105.52 113.1 99.0671 113.1ZM110.947 77.3499V74.05C110.947 69.87 109.957 66.68 107.977 64.48C105.997 62.2067 103.027 61.07 99.0671 61.07C95.1071 61.07 92.1005 62.2067 90.0471 64.48C87.9938 66.7533 86.9671 69.98 86.9671 74.16V76.47L111.937 76.25L110.947 77.3499ZM165.024 113.1C159.891 113.1 155.417 112.11 151.604 110.13C147.791 108.15 144.821 105.4 142.694 101.88C140.641 98.2866 139.614 94.1066 139.614 89.3399V74.16C139.614 69.3933 140.641 65.2499 142.694 61.7299C144.821 58.1366 147.791 55.3499 151.604 53.3699C155.417 51.3899 159.891 50.4 165.024 50.4C170.084 50.4 174.484 51.3899 178.224 53.3699C182.037 55.3499 184.971 58.1366 187.024 61.7299C189.151 65.2499 190.214 69.3933 190.214 74.16V85.05H152.924V89.3399C152.924 93.5932 153.951 96.8199 156.004 99.0199C158.057 101.147 161.101 102.21 165.134 102.21C168.214 102.21 170.707 101.697 172.614 100.67C174.521 99.57 175.731 97.9933 176.244 95.94H189.774C188.747 101.147 185.961 105.327 181.414 108.48C176.941 111.56 171.477 113.1 165.024 113.1ZM176.904 77.3499V74.05C176.904 69.87 175.914 66.68 173.934 64.48C171.954 62.2067 168.984 61.07 165.024 61.07C161.064 61.07 158.057 62.2067 156.004 64.48C153.951 66.7533 152.924 69.98 152.924 74.16V76.47L177.894 76.25L176.904 77.3499ZM225.701 113.1C219.688 113.1 214.811 111.01 211.071 106.83C207.404 102.65 205.571 97.04 205.571 90V73.61C205.571 66.4967 207.404 60.8499 211.071 56.6699C214.738 52.4899 219.614 50.4 225.701 50.4C230.688 50.4 234.648 51.8299 237.581 54.6899C240.514 57.4766 241.981 61.3266 241.981 66.2399L238.901 63.0499H242.091L241.651 48.6399V31.7H255.401V112H241.981V100.45H238.901L241.981 97.2599C241.981 102.173 240.514 106.06 237.581 108.92C234.648 111.707 230.688 113.1 225.701 113.1ZM230.541 101.22C234.061 101.22 236.774 100.193 238.681 98.14C240.661 96.0133 241.651 93.0799 241.651 89.3399V74.16C241.651 70.42 240.661 67.5233 238.681 65.47C236.774 63.3433 234.061 62.2799 230.541 62.2799C227.021 62.2799 224.271 63.3067 222.291 65.36C220.311 67.4133 219.321 70.3467 219.321 74.16V89.3399C219.321 93.1532 220.311 96.0867 222.291 98.14C224.271 100.193 227.021 101.22 230.541 101.22ZM294.518 112.99C289.898 112.99 285.865 112.257 282.418 110.79C278.971 109.323 276.258 107.307 274.278 104.74C272.371 102.1 271.345 99.02 271.198 95.5H284.948C285.095 97.4067 286.011 98.9466 287.698 100.12C289.458 101.293 291.731 101.88 294.518 101.88H299.358C302.731 101.88 305.261 101.22 306.948 99.8999C308.635 98.5799 309.478 96.7833 309.478 94.51C309.478 92.3833 308.708 90.7332 307.168 89.5599C305.701 88.3132 303.391 87.5066 300.238 87.1399L292.758 86.04C285.865 85.0867 280.805 83.2533 277.578 80.54C274.351 77.8267 272.738 73.7567 272.738 68.33C272.738 62.6833 274.645 58.32 278.458 55.24C282.271 52.0867 287.881 50.5099 295.288 50.5099H299.468C306.215 50.5099 311.605 52.0133 315.638 55.02C319.671 58.0267 321.835 62.06 322.128 67.12H308.378C308.158 65.5067 307.241 64.1867 305.628 63.16C304.088 62.1333 302.035 61.6199 299.468 61.6199H295.288C292.135 61.6199 289.825 62.2067 288.358 63.38C286.965 64.48 286.268 66.13 286.268 68.33C286.268 70.3833 286.891 71.9232 288.138 72.9499C289.385 73.9032 291.401 74.6 294.188 75.04L301.998 76.1399C309.185 77.1666 314.465 79.11 317.838 81.97C321.285 84.7567 323.008 88.9 323.008 94.4C323.008 100.267 320.991 104.85 316.958 108.15C312.998 111.377 307.131 112.99 299.358 112.99H294.518Z" fill="white"/>
<path d="M11.4697 208V127.7H25.2197V159.93H46.7797V127.7H60.5297V208H46.7797V172.69H25.2197V208H11.4697ZM95.2467 209.1C89.0134 209.1 84.1001 207.45 80.5067 204.15C76.9134 200.85 75.1167 196.413 75.1167 190.84C75.1167 184.9 77.0967 180.317 81.0567 177.09C85.0167 173.863 90.6267 172.25 97.8867 172.25H112.957V167.08C112.957 164.147 112.004 161.873 110.097 160.26C108.19 158.573 105.587 157.73 102.287 157.73C99.2801 157.73 96.7867 158.39 94.8067 159.71C92.8267 161.03 91.6534 162.827 91.2867 165.1H77.8667C78.5267 159.38 81.0934 154.833 85.5667 151.46C90.0401 148.087 95.7601 146.4 102.727 146.4C110.134 146.4 115.964 148.27 120.217 152.01C124.544 155.677 126.707 160.663 126.707 166.97V208H113.397V197.44H111.197L113.397 194.47C113.397 198.943 111.747 202.5 108.447 205.14C105.147 207.78 100.747 209.1 95.2467 209.1ZM99.7567 198.76C103.644 198.76 106.797 197.77 109.217 195.79C111.71 193.81 112.957 191.243 112.957 188.09V180.72H98.1067C95.3201 180.72 93.0834 181.527 91.3967 183.14C89.7101 184.753 88.8667 186.88 88.8667 189.52C88.8667 192.38 89.8201 194.653 91.7267 196.34C93.7067 197.953 96.3834 198.76 99.7567 198.76ZM168.244 209.1C163.111 209.1 158.601 208.147 154.714 206.24C150.901 204.26 147.931 201.51 145.804 197.99C143.677 194.397 142.614 190.18 142.614 185.34V170.16C142.614 165.247 143.677 161.03 145.804 157.51C147.931 153.99 150.901 151.277 154.714 149.37C158.601 147.39 163.111 146.4 168.244 146.4C175.871 146.4 181.957 148.38 186.504 152.34C191.051 156.227 193.434 161.543 193.654 168.29H179.904C179.684 165.137 178.547 162.717 176.494 161.03C174.514 159.27 171.764 158.39 168.244 158.39C164.577 158.39 161.681 159.417 159.554 161.47C157.427 163.45 156.364 166.31 156.364 170.05V185.34C156.364 189.08 157.427 191.977 159.554 194.03C161.681 196.083 164.577 197.11 168.244 197.11C171.764 197.11 174.514 196.267 176.494 194.58C178.547 192.82 179.684 190.363 179.904 187.21H193.654C193.434 193.957 191.051 199.31 186.504 203.27C181.957 207.157 175.871 209.1 168.244 209.1ZM209.671 208V127.7H223.421V171.26H232.991L247.731 147.5H263.131L244.871 176.76L263.461 208H247.731L232.991 182.92H223.421V208H209.671Z" fill="white"/>
<path d="M14.1096 308V297.11L34.6296 276.5C37.5096 273.56 39.6396 270.92 41.0196 268.58C42.3996 266.18 43.0896 263.72 43.0896 261.2C43.0896 258.14 42.2496 255.77 40.5696 254.09C38.8896 252.35 36.6096 251.48 33.7296 251.48C30.5496 251.48 28.0596 252.41 26.2596 254.27C24.4596 256.07 23.5596 258.59 23.5596 261.83H12.3096C12.3696 257.63 13.2696 254.03 15.0096 251.03C16.8096 247.97 19.3296 245.6 22.5696 243.92C25.8096 242.24 29.5896 241.4 33.9096 241.4C38.0496 241.4 41.6496 242.18 44.7096 243.74C47.7696 245.3 50.1396 247.49 51.8196 250.31C53.4996 253.13 54.3396 256.49 54.3396 260.39C54.3396 264.41 53.2896 268.34 51.1896 272.18C49.1496 275.96 45.8496 280.04 41.2896 284.42L27.6096 297.83H55.1496V308H14.1096ZM87.9644 308.9C83.7044 308.9 80.0144 308.09 76.8944 306.47C73.7744 304.85 71.3444 302.57 69.6044 299.63C67.9244 296.69 67.0844 293.24 67.0844 289.28V261.02C67.0844 257.06 67.9244 253.61 69.6044 250.67C71.3444 247.73 73.7744 245.45 76.8944 243.83C80.0144 242.21 83.7044 241.4 87.9644 241.4C92.2844 241.4 95.9744 242.21 99.0344 243.83C102.155 245.45 104.555 247.73 106.235 250.67C107.975 253.61 108.845 257.06 108.845 261.02V289.28C108.845 293.24 107.975 296.69 106.235 299.63C104.555 302.57 102.155 304.85 99.0344 306.47C95.9144 308.09 92.2244 308.9 87.9644 308.9ZM87.9644 299.18C91.0844 299.18 93.5744 298.28 95.4344 296.48C97.2944 294.68 98.2244 292.28 98.2244 289.28V261.02C98.2244 258.02 97.2944 255.62 95.4344 253.82C93.5744 252.02 91.0844 251.12 87.9644 251.12C84.8444 251.12 82.3544 252.02 80.4944 253.82C78.6344 255.62 77.7044 258.02 77.7044 261.02V289.28C77.7044 292.28 78.6344 294.68 80.4944 296.48C82.3544 298.28 84.8444 299.18 87.9644 299.18ZM87.9644 281C86.2244 281 84.7844 280.43 83.6444 279.29C82.5644 278.15 82.0244 276.68 82.0244 274.88C82.0244 273.08 82.5644 271.64 83.6444 270.56C84.7244 269.48 86.1644 268.94 87.9644 268.94C89.7644 268.94 91.2044 269.48 92.2844 270.56C93.3644 271.64 93.9044 273.08 93.9044 274.88C93.9044 276.68 93.3644 278.15 92.2844 279.29C91.2044 280.43 89.7644 281 87.9644 281ZM122.04 308V297.11L142.56 276.5C145.44 273.56 147.57 270.92 148.95 268.58C150.33 266.18 151.02 263.72 151.02 261.2C151.02 258.14 150.18 255.77 148.5 254.09C146.82 252.35 144.54 251.48 141.66 251.48C138.48 251.48 135.99 252.41 134.19 254.27C132.39 256.07 131.49 258.59 131.49 261.83H120.24C120.3 257.63 121.2 254.03 122.94 251.03C124.74 247.97 127.26 245.6 130.5 243.92C133.74 242.24 137.52 241.4 141.84 241.4C145.98 241.4 149.58 242.18 152.64 243.74C155.7 245.3 158.07 247.49 159.75 250.31C161.43 253.13 162.27 256.49 162.27 260.39C162.27 264.41 161.22 268.34 159.12 272.18C157.08 275.96 153.78 280.04 149.22 284.42L135.54 297.83H163.08V308H122.04ZM195.805 308.9C189.745 308.9 184.885 307.4 181.225 304.4C177.565 301.34 175.555 297.2 175.195 291.98H186.445C186.685 294.26 187.585 296.03 189.145 297.29C190.765 298.49 192.985 299.09 195.805 299.09C198.925 299.09 201.295 298.28 202.915 296.66C204.535 294.98 205.345 292.67 205.345 289.73V283.34C205.345 280.34 204.535 278.06 202.915 276.5C201.295 274.88 198.925 274.07 195.805 274.07C193.885 274.07 192.235 274.46 190.855 275.24C189.475 276.02 188.425 277.1 187.705 278.48H176.725L177.175 242.3H214.165V252.47H187.795L187.615 271.55H190.225L187.525 273.8C187.525 271.04 188.605 268.88 190.765 267.32C192.985 265.7 195.955 264.89 199.675 264.89C205.015 264.83 209.155 266.45 212.095 269.75C215.095 272.99 216.595 277.52 216.595 283.34V289.73C216.595 295.67 214.735 300.35 211.015 303.77C207.355 307.19 202.285 308.9 195.805 308.9Z" fill="white"/>
<path d="M11 223.5H216" stroke="#44BF4F" stroke-width="5"/>
<path d="M507.178 189.811L549.557 263.839" stroke="#44BF4F" stroke-width="4"/>
<path d="M443.072 75.3829L488.037 143.631" stroke="#44BF4F" stroke-width="4"/>
<path d="M414.834 75.6742L371.513 143.143" stroke="#44BF4F" stroke-width="4"/>
<path d="M343.267 188.107L303.713 250.891" stroke="#44BF4F" stroke-width="4"/>
<path d="M481.752 191.781L442.198 261.123" stroke="#44BF4F" stroke-width="4"/>
<path d="M559 314C573.359 314 585 302.359 585 288C585 273.641 573.359 262 559 262C544.641 262 533 273.641 533 288C533 302.359 544.641 314 559 314Z" stroke="#44BF4F" stroke-width="4"/>
<path d="M521 167.5C521 181.549 509.394 193 495 193C480.606 193 469 181.549 469 167.5C469 153.451 480.606 142 495 142C509.394 142 521 153.451 521 167.5Z" stroke="#44BF4F" stroke-width="4"/>
<path d="M428 78C442.359 78 454 66.3594 454 52C454 37.6406 442.359 26 428 26C413.641 26 402 37.6406 402 52C402 66.3594 413.641 78 428 78Z" stroke="#44BF4F" stroke-width="4"/>
<path d="M386 167.5C386 181.549 374.394 193 360 193C345.606 193 334 181.549 334 167.5C334 153.451 345.606 142 360 142C374.394 142 386 153.451 386 167.5Z" stroke="#44BF4F" stroke-width="4"/>
<path d="M457 286.5C457 301.169 445.326 313 431 313C416.674 313 405 301.169 405 286.5C405 271.831 416.674 260 431 260C445.326 260 457 271.831 457 286.5Z" stroke="#44BF4F" stroke-width="4"/>
<path d="M304 252C302.895 252 302 251.328 302 250.5C302 249.672 302.895 249 304 249C305.105 249 306 249.672 306 250.5C306 251.328 305.105 252 304 252Z" fill="#44BF4F"/>
<path d="M309.529 273.475C309.828 283.647 309.212 293.634 308.24 303.62C310.433 296.342 311.573 288.897 311.926 281.328C312.279 273.728 311.816 266.163 310.491 258.195C314.056 260.624 316.804 263.178 319.074 266.18C327.707 277.595 327.806 289.726 321.933 302.221C318.918 308.636 314.371 313.943 308.84 318.47C307.982 319.172 307.455 319.185 306.612 318.46C297.231 310.392 290.683 300.714 289.246 288.343C287.865 276.456 292.309 267.029 302.583 260.385C304.387 259.219 306.358 258.299 308.738 257C309.016 262.766 309.271 268.047 309.529 273.475Z" fill="#44BE4F"/>
<path d="M285.307 254.064C276.714 257.986 267.951 261.07 259.062 263.852C266.073 263.075 272.851 261.35 279.451 258.917C286.078 256.473 292.382 253.353 298.722 249.363C297.923 253.243 296.726 256.48 294.973 259.476C288.309 270.869 277.969 275.328 265.173 274.886C258.604 274.66 252.433 272.743 246.575 269.715C245.668 269.246 245.467 268.806 245.784 267.835C249.317 257.019 255.244 248.009 265.309 242.336C274.98 236.884 284.638 237.228 294.009 243.489C295.654 244.589 297.149 245.918 299.114 247.454C294.282 249.769 289.857 251.889 285.307 254.064Z" fill="#44BE4F"/>
<path d="M275.13 291.302C271.575 296.514 267.636 301.307 263.521 305.973C267.254 303.099 270.529 299.768 273.457 296.095C276.399 292.406 278.922 288.445 281.167 283.976C282.047 286.462 282.477 288.719 282.507 291.032C282.623 299.827 278.257 305.95 270.804 310.135C266.978 312.283 262.797 313.331 258.413 313.638C257.733 313.686 257.468 313.505 257.315 312.842C255.61 305.461 255.893 298.278 259.684 291.559C263.327 285.103 268.957 281.951 276.458 282.266C277.775 282.322 279.084 282.56 280.735 282.754C278.774 285.746 276.978 288.487 275.13 291.302Z" fill="#44BE4F"/>
</svg>
