<svg xmlns="http://www.w3.org/2000/svg" viewBox="0 0 750 202.59"><title>Pexip Logo White RGB</title><path d="M342.71,486.52a42.21,42.21,0,0,0-35.78,18.88V490H280.81V641.3h26.78V586.77c5.05,8.56,16.46,15.88,35.12,15.88,27.88,0,46.54-23,46.54-57.95C389.25,509.57,370.59,486.52,342.71,486.52Zm-8.78,92.78c-16.24,0-27.66-11.54-27.66-34.82,0-23.07,11.42-34.6,27.66-34.6,15.59,0,27.44,9.06,27.44,34.6C361.37,570.23,349.52,579.3,333.93,579.3Zm435.78-92.78a42.21,42.21,0,0,0-35.78,18.88V490H707.81V641.3h26.78V586.77c5,8.56,16.46,15.88,35.12,15.88,27.88,0,46.54-23,46.54-57.95C816.25,509.57,797.59,486.52,769.71,486.52Zm-8.78,92.78c-16.24,0-27.66-11.54-27.66-34.82,0-23.07,11.42-34.6,27.66-34.6,15.59,0,27.44,9.06,27.44,34.6C788.37,570.23,776.52,579.3,760.93,579.3ZM590.32,543.16l41.27,56.2H599.1l-11-16c-5.93-9-10.32-15.36-14.49-21.29-4.61,6.59-8.78,12.51-14.49,21.07l-11,16.25h-29l40.39-56.64L521.17,490h32.05l9.44,14.27c5.93,8.78,9.44,14,13.39,19.75,4.17-5.71,7.47-10.75,13.61-19.75L599.54,490H629ZM650.69,490h26.56V599.36H650.69Zm29.93-34.68A16.65,16.65,0,1,1,664,438.7,16.67,16.67,0,0,1,680.62,455.36ZM915,449.3v24H888v144h27v24H864v-192ZM460.37,581.58c-14.05,0-25.9-8.13-27-30.3h77.27c3.51-36.22-16-64.54-50.93-64.54-30.29,0-52.9,23.05-52.9,58,0,36.44,21.07,57.95,53.34,57.95,28.76,0,44.13-14.93,51.15-31.83l-24.15-9C483.2,571,476,581.58,460.37,581.58Zm-.66-74.86c13.83,0,23.49,8.78,24.37,24.81H434.25C436.22,515.72,446.54,506.72,459.71,506.72ZM165,641.3v-24h27v-144H165v-24h51v192Z" transform="translate(-165 -438.7)" fill="#fff"/></svg>